<svg width="439" height="110" viewBox="0 0 439 110" fill="none" xmlns="http://www.w3.org/2000/svg">
<rect width="438.83" height="110" rx="55" fill="#4866CF"/>
<path d="M93.0352 67.75C93.0352 65.65 91.8352 64.6 89.3352 64.6H79.8352V55.5C79.8352 50 83.3852 46.2 89.0852 46.2H95.4352L95.7852 50.35H88.9852C86.0352 50.35 84.0352 52.5 84.0352 55.35V60.3H90.0352C94.9352 60.3 97.1852 63 97.1852 67.5C97.1852 73.9 91.1852 79.2 83.4852 79.2H79.6352C71.1852 79.2 66.5352 74.05 66.5352 65.35V55.9H70.6852V65.25C70.6852 71.55 73.7852 74.9 79.7352 74.9H83.4852C89.2352 74.9 93.0352 71.85 93.0352 67.75ZM114.041 34.1V38.05H109.491V34.1H114.041ZM118.341 40.95V44.9H105.141V40.95H118.341ZM110.041 65.55V50.9H114.191V65.55C114.191 74 108.841 79.2 101.091 79.2H99.691L99.291 74.9H100.991C106.641 74.9 110.041 71.45 110.041 65.55ZM145.949 62.7C146.199 62.7 146.449 62.9 146.449 64.9C146.449 66.85 146.199 67 145.949 67H141.149C140.549 74.65 135.649 79.2 128.249 79.2H122.099L121.699 74.9H128.299C133.649 74.9 137.049 71.85 137.099 67H132.099C125.149 67 122.399 64.2 122.399 58.25C122.399 51.95 126.299 47.65 131.899 47.65C137.699 47.65 141.249 51.8 141.249 58.5V62.7H145.949ZM126.549 58C126.549 61.4 127.999 62.7 132.349 62.7H137.099V58.8C137.099 54.2 135.199 51.85 131.649 51.85C128.549 51.85 126.549 54.35 126.549 58ZM147.484 62.7C149.834 62.7 151.484 61.3 151.484 59V34.65H155.684V59.05C155.684 64.05 152.384 67 147.484 67H145.934C145.734 67 145.434 66.85 145.434 64.9C145.434 62.9 145.734 62.7 145.934 62.7H147.484ZM187.941 62.7C188.191 62.7 188.441 62.9 188.441 64.9C188.441 66.85 188.191 67 187.941 67H183.141C182.541 74.65 177.641 79.2 170.241 79.2H164.091L163.691 74.9H170.291C175.641 74.9 179.041 71.85 179.091 67H174.091C167.141 67 164.391 64.2 164.391 58.25C164.391 51.95 168.291 47.65 173.891 47.65C179.691 47.65 183.241 51.8 183.241 58.5V62.7H187.941ZM168.541 58C168.541 61.4 169.991 62.7 174.341 62.7H179.091V58.8C179.091 54.2 177.191 51.85 173.641 51.85C170.541 51.85 168.541 54.35 168.541 58ZM201.976 44.9H196.676V40.75H201.976V44.9ZM193.926 62.7C196.476 62.7 198.176 61.3 198.176 59V50.9H202.326V58.9C202.326 61.4 203.726 62.7 206.326 62.7H207.726C207.926 62.7 208.226 62.9 208.226 64.85C208.226 66.85 207.926 67 207.726 67H206.176C203.226 67 201.126 66.05 200.176 64.05C198.976 66.05 196.776 67 193.926 67H187.926C187.726 67 187.426 66.85 187.426 64.9C187.426 62.9 187.726 62.7 187.926 62.7H193.926ZM221.6 62.7C224.5 62.7 226.2 61.45 226.2 59.55C226.2 58.2 225.6 57 224.15 55.5L212.4 43.85V40.25L230.65 33L231.9 37L217.3 42.75L227.2 52.7C236.4 61.95 237.65 62.7 240.7 62.7C240.9 62.7 241.2 62.9 241.2 64.9C241.2 66.85 240.9 67 240.7 67C236.65 67 235 66.25 229.8 61.05C229.55 64.45 226.6 67 221.6 67H207.75C207.55 67 207.25 66.85 207.25 64.9C207.25 62.9 207.55 62.7 207.75 62.7H221.6ZM255.659 40.95V44.9H242.459V40.95H255.659ZM249.959 59V50.9H254.109V59.05C254.109 64.05 250.809 67 245.909 67H240.709C240.509 67 240.209 66.85 240.209 64.9C240.209 62.9 240.509 62.7 240.709 62.7H245.909C248.259 62.7 249.959 61.4 249.959 59ZM274.006 58.75C274.006 55.05 275.756 51.65 281.006 46.45L278.806 44.2L281.756 41.05C291.656 50.35 293.706 53.7 293.706 58.25C293.706 63.6 289.556 67.5 283.456 67.5C277.756 67.5 274.006 63.95 274.006 58.75ZM289.556 58.25C289.556 55.5 288.256 53.2 283.856 49.1C279.606 53.2 278.156 55.75 278.156 58.5C278.156 61.2 280.206 63.2 283.606 63.2C287.056 63.2 289.556 61.1 289.556 58.25ZM308.869 65.55C308.869 74 303.519 79.2 295.769 79.2H292.269L291.869 74.9H295.669C301.319 74.9 304.719 71.45 304.719 65.55V50.9H308.869V65.55ZM326.427 62.7C326.677 62.7 326.927 62.9 326.927 64.9C326.927 66.85 326.677 67 326.427 67H325.127C319.977 67 317.377 63.75 317.377 58.25V34.65H321.527V58.05C321.527 61.15 322.777 62.7 325.327 62.7H326.427ZM339.851 59.05C339.851 64.05 336.551 67 331.651 67H326.451C326.251 67 325.951 66.85 325.951 64.9C325.951 62.9 326.251 62.7 326.451 62.7H331.651C334.001 62.7 335.701 61.4 335.701 59V50.9H339.851V59.05ZM333.101 77.5H327.801V73.3H333.101V77.5ZM355.011 65.55C355.011 74 349.661 79.2 341.911 79.2H340.511L340.111 74.9H341.811C347.461 74.9 350.861 71.45 350.861 65.55V50.9H355.011V65.55ZM369.47 44.75L372.42 41.8L382.02 52.85C384.27 55.4 385.02 57.5 385.02 59.6C385.02 63.9 381.97 67 376.27 67H362.02L361.62 62.7H376.27C379.22 62.7 380.87 61.45 380.87 59.55C380.87 58.35 380.27 57.2 378.82 55.5L369.47 44.75Z" fill="white"/>
</svg>
