<svg width="1378" height="312" viewBox="0 0 1378 312" fill="none" xmlns="http://www.w3.org/2000/svg">
<rect x="0.5" y="0.5" width="1377" height="311" rx="75.5" stroke="black"/>
<path d="M1307.36 123.112C1308.09 124.908 1306.09 126.584 1304.45 125.557L1293.4 118.652C1292.66 118.193 1291.71 118.259 1291.05 118.816L1281.07 127.192C1279.58 128.437 1277.37 127.056 1277.84 125.176L1280.99 112.533C1281.2 111.692 1280.85 110.812 1280.11 110.353L1269.06 103.448C1267.42 102.422 1268.05 99.8923 1269.98 99.7571L1282.98 98.8482C1283.85 98.7878 1284.57 98.1776 1284.78 97.3369L1287.94 84.6942C1288.4 82.8143 1291 82.6324 1291.73 84.4288L1296.61 96.5098C1296.94 97.3132 1297.74 97.8162 1298.61 97.7557L1311.6 96.8468C1313.54 96.7117 1314.51 99.1287 1313.03 100.374L1303.05 108.749C1302.38 109.306 1302.15 110.227 1302.48 111.031L1307.36 123.112Z" fill="#FFE710"/>
<path d="M1307.36 74.0727C1308.09 75.8691 1306.09 77.5447 1304.45 76.518L1293.4 69.6133C1292.66 69.1541 1291.71 69.2203 1291.05 69.7773L1281.07 78.1527C1279.58 79.398 1277.37 78.0166 1277.84 76.1368L1280.99 63.494C1281.2 62.6533 1280.85 61.7732 1280.11 61.314L1269.06 54.4093C1267.42 53.3826 1268.05 50.8532 1269.98 50.7181L1282.98 49.8091C1283.85 49.7487 1284.57 49.1386 1284.78 48.2979L1287.94 35.6551C1288.4 33.7752 1291 33.5933 1291.73 35.3897L1296.61 47.4707C1296.94 48.2741 1297.74 48.7771 1298.61 48.7167L1311.6 47.8077C1313.54 47.6726 1314.51 50.0896 1313.03 51.335L1303.05 59.7104C1302.38 60.2673 1302.15 61.1883 1302.48 61.9917L1307.36 74.0727Z" fill="#FFE710"/>
<path d="M1307.36 172.151C1308.09 173.947 1306.09 175.623 1304.45 174.596L1293.4 167.691C1292.66 167.232 1291.71 167.298 1291.05 167.855L1281.07 176.231C1279.58 177.476 1277.37 176.095 1277.84 174.215L1280.99 161.572C1281.2 160.731 1280.85 159.851 1280.11 159.392L1269.06 152.487C1267.42 151.461 1268.05 148.931 1269.98 148.796L1282.98 147.887C1283.85 147.827 1284.57 147.217 1284.78 146.376L1287.94 133.733C1288.4 131.853 1291 131.671 1291.73 133.468L1296.61 145.549C1296.94 146.352 1297.74 146.855 1298.61 146.795L1311.6 145.886C1313.54 145.751 1314.51 148.168 1313.03 149.413L1303.05 157.788C1302.38 158.345 1302.15 159.266 1302.48 160.07L1307.36 172.151Z" fill="#FFE710"/>
<path d="M1307.36 221.19C1308.09 222.986 1306.09 224.662 1304.45 223.635L1293.4 216.73C1292.66 216.271 1291.71 216.338 1291.05 216.894L1281.07 225.27C1279.58 226.515 1277.37 225.134 1277.84 223.254L1280.99 210.611C1281.2 209.77 1280.85 208.89 1280.11 208.431L1269.06 201.526C1267.42 200.5 1268.05 197.97 1269.98 197.835L1282.98 196.926C1283.85 196.866 1284.57 196.256 1284.78 195.415L1287.94 182.772C1288.4 180.892 1291 180.711 1291.73 182.507L1296.61 194.588C1296.94 195.391 1297.74 195.894 1298.61 195.834L1311.6 194.925C1313.54 194.79 1314.51 197.207 1313.03 198.452L1303.05 206.828C1302.38 207.385 1302.15 208.306 1302.48 209.109L1307.36 221.19Z" fill="#FFE710"/>
<path d="M1307.36 270.229C1308.09 272.025 1306.09 273.701 1304.45 272.674L1293.4 265.77C1292.66 265.31 1291.71 265.377 1291.05 265.934L1281.07 274.309C1279.58 275.554 1277.37 274.173 1277.84 272.293L1280.99 259.65C1281.2 258.81 1280.85 257.929 1280.11 257.47L1269.06 250.566C1267.42 249.539 1268.05 247.009 1269.98 246.874L1282.98 245.965C1283.85 245.905 1284.57 245.295 1284.78 244.454L1287.94 231.811C1288.4 229.931 1291 229.75 1291.73 231.546L1296.61 243.627C1296.94 244.43 1297.74 244.933 1298.61 244.873L1311.6 243.964C1313.54 243.829 1314.51 246.246 1313.03 247.491L1303.05 255.867C1302.38 256.424 1302.15 257.345 1302.48 258.148L1307.36 270.229Z" fill="#FFE710"/>
<circle cx="1147" cy="129" r="62" fill="#D9D9D9"/>
<path d="M1105.76 213.928L1105.98 211.936H1115.7C1115.79 211.936 1115.94 212.032 1115.94 212.992C1115.94 213.928 1115.79 214 1115.7 214H1113.2C1113.44 214.24 1113.56 214.672 1113.56 215.128C1113.56 217.912 1111.02 219.856 1107.06 219.856H1105.21C1101.15 219.856 1098.92 217.384 1098.92 213.208V208.672H1100.91V213.16C1100.91 216.184 1102.4 217.792 1105.26 217.792H1107.06C1110.03 217.792 1111.57 216.784 1111.57 215.176C1111.57 214.312 1111.16 213.928 1110.22 213.928H1105.76ZM1116.78 203.392V201.496H1123.12V203.392H1116.78ZM1125.21 211.936C1125.3 211.936 1125.45 212.032 1125.45 212.968C1125.45 213.928 1125.3 214 1125.21 214H1124.46C1123.05 214 1122.04 213.544 1121.58 212.584C1121.01 213.544 1119.95 214 1118.58 214H1115.7C1115.61 214 1115.46 213.928 1115.46 212.992C1115.46 212.032 1115.61 211.936 1115.7 211.936H1118.58C1119.81 211.936 1120.62 211.264 1120.62 210.16V206.272H1122.62V210.112C1122.62 211.312 1123.29 211.936 1124.54 211.936H1125.21ZM1125.96 211.936C1127.09 211.936 1127.88 211.264 1127.88 210.16V198.472H1129.9V210.04C1129.9 211.408 1130.71 211.936 1131.75 211.936H1132.35C1132.44 211.936 1132.59 212.032 1132.59 212.968C1132.59 213.928 1132.44 214 1132.35 214H1131.67C1130.28 214 1129.27 213.496 1128.89 212.56C1128.34 213.496 1127.33 214 1125.96 214H1125.22C1125.12 214 1124.98 213.928 1124.98 212.992C1124.98 212.032 1125.12 211.936 1125.22 211.936H1125.96ZM1132.9 211.936C1134.05 211.936 1134.6 211.432 1134.6 210.4V209.416C1134.6 206.344 1136.33 204.472 1139.18 204.472C1142.04 204.472 1143.62 206.176 1143.62 209.32C1143.62 212.296 1141.92 214 1139.11 214C1137.43 214 1136.3 213.472 1135.75 212.512C1135.22 213.544 1134.38 214 1132.9 214H1132.34C1132.25 214 1132.1 213.928 1132.1 212.992C1132.1 212.032 1132.25 211.936 1132.34 211.936H1132.9ZM1141.63 209.32C1141.63 207.448 1140.82 206.488 1139.11 206.488C1137.41 206.488 1136.59 207.448 1136.59 209.416C1136.59 210.976 1137.5 211.936 1139.11 211.936C1140.77 211.936 1141.63 211.096 1141.63 209.32ZM1165.9 214.36C1165.9 213.352 1165.32 212.848 1164.12 212.848H1159.56V208.48C1159.56 205.84 1161.27 204.016 1164 204.016H1167.05L1167.22 206.008H1163.95C1162.54 206.008 1161.58 207.04 1161.58 208.408V210.784H1164.46C1166.81 210.784 1167.89 212.08 1167.89 214.24C1167.89 217.312 1165.01 219.856 1161.31 219.856H1159.47C1155.41 219.856 1153.18 217.384 1153.18 213.208V208.672H1155.17V213.16C1155.17 216.184 1156.66 217.792 1159.51 217.792H1161.31C1164.07 217.792 1165.9 216.328 1165.9 214.36ZM1176.32 211.936C1176.44 211.936 1176.56 212.032 1176.56 212.992C1176.56 213.928 1176.44 214 1176.32 214H1175.7C1173.23 214 1171.98 212.44 1171.98 209.8V198.472H1173.97V209.704C1173.97 211.192 1174.57 211.936 1175.8 211.936H1176.32ZM1179.7 200.992V199.096H1186.03V200.992H1179.7ZM1182.98 203.512C1185.91 203.512 1187.62 205.408 1187.62 208.672V209.488C1187.62 212.488 1185.58 214 1181.74 214H1176.34C1176.24 214 1176.1 213.928 1176.1 212.992C1176.1 212.032 1176.24 211.936 1176.34 211.936H1180.58C1180.99 211.936 1181.5 211.912 1181.81 211.84C1179.22 210.88 1178.38 209.92 1178.38 208.072C1178.38 205.504 1180.32 203.512 1182.98 203.512ZM1185.62 209.368V208.792C1185.62 206.608 1184.69 205.528 1182.94 205.528C1181.52 205.528 1180.37 206.656 1180.37 208.024C1180.37 209.56 1181.3 210.352 1184.76 211.48C1185.31 211.024 1185.62 210.328 1185.62 209.368ZM1191.29 197.248C1190.62 197.248 1190.26 197.488 1190.07 197.992L1189.45 199.48L1188.1 198.88L1188.82 197.032C1189.3 195.832 1189.97 195.472 1191.29 195.472H1197.17V197.248H1191.29ZM1192.28 200.656H1194.27V214H1192.28V200.656Z" fill="black"/>
<path d="M1051.63 241.072H1050.14V239.91H1051.63V241.072ZM1050.79 249.416C1048.42 249.416 1047.12 247.974 1047.12 245.538V242.892H1048.28V245.51C1048.28 247.274 1049.15 248.212 1050.82 248.212H1051.4C1053 248.212 1054.05 247.218 1054.05 245.622V241.492H1055.21V245.51C1055.21 247.96 1053.63 249.416 1051.4 249.416H1050.79ZM1057.6 246V236.942H1058.76V246H1057.6ZM1063.16 243.718C1063.16 244.404 1063.56 244.796 1064.33 244.796H1064.52C1064.57 244.796 1064.66 244.866 1064.66 245.412C1064.66 245.958 1064.57 246 1064.52 246H1064.33C1063.83 246 1063.35 245.804 1063.16 245.524V245.692C1063.12 247.96 1061.66 249.416 1059.49 249.416H1058.51L1058.4 248.212H1059.46C1061.04 248.212 1062 247.246 1062 245.594V241.492H1063.16V243.718ZM1073.08 244.796C1073.14 244.796 1073.22 244.852 1073.22 245.412C1073.22 245.958 1073.14 246 1073.08 246C1071.86 246 1071.37 246.238 1070.84 247.246L1069.69 249.36H1069.05C1067.05 249.36 1065.83 248.226 1065.83 246.168V246H1064.51C1064.46 246 1064.37 245.958 1064.37 245.412C1064.37 244.852 1064.46 244.796 1064.51 244.796H1065.83V243.298C1065.83 241.436 1066.82 240.274 1068.43 240.274C1069.97 240.274 1070.94 241.226 1070.94 242.752C1070.94 244.572 1069.3 245.916 1066.99 245.958V246.126C1066.99 247.54 1067.68 248.198 1069.05 248.198L1069.9 246.63C1070.71 245.16 1071.39 244.796 1073.08 244.796ZM1069.78 242.822C1069.78 241.94 1069.27 241.45 1068.42 241.45C1067.49 241.45 1066.99 242.108 1066.99 243.298V244.796C1068.71 244.796 1069.78 244.04 1069.78 242.822ZM1077.27 238.706V239.812H1073.57V238.706H1077.27ZM1075.67 243.76V241.492H1076.84V243.774C1076.84 245.174 1075.91 246 1074.54 246H1073.08C1073.03 246 1072.94 245.958 1072.94 245.412C1072.94 244.852 1073.03 244.796 1073.08 244.796H1074.54C1075.2 244.796 1075.67 244.432 1075.67 243.76ZM1082.41 243.69C1082.41 242.654 1082.9 241.702 1084.37 240.246L1083.75 239.616L1084.58 238.734C1087.35 241.338 1087.92 242.276 1087.92 243.55C1087.92 245.048 1086.76 246.14 1085.05 246.14C1083.46 246.14 1082.41 245.146 1082.41 243.69ZM1086.76 243.55C1086.76 242.78 1086.4 242.136 1085.17 240.988C1083.98 242.136 1083.57 242.85 1083.57 243.62C1083.57 244.376 1084.14 244.936 1085.1 244.936C1086.06 244.936 1086.76 244.348 1086.76 243.55ZM1092.83 244.796C1092.9 244.796 1092.97 244.852 1092.97 245.412C1092.97 245.958 1092.9 246 1092.83 246H1092.47C1091.03 246 1090.3 245.09 1090.3 243.55V236.942H1091.46V243.494C1091.46 244.362 1091.81 244.796 1092.53 244.796H1092.83ZM1094.16 236.578L1098.71 234.674L1098.94 235.43L1094.16 237.418V236.578ZM1096.72 244.796C1097.53 244.796 1098.01 244.446 1098.01 243.914C1098.01 243.536 1097.84 243.2 1097.43 242.78L1094.14 239.518V238.51L1099.25 236.48L1099.6 237.6L1095.51 239.21L1098.29 241.996C1100.86 244.586 1101.21 244.796 1102.07 244.796C1102.12 244.796 1102.21 244.852 1102.21 245.412C1102.21 245.958 1102.12 246 1102.07 246C1100.93 246 1100.47 245.79 1099.01 244.334C1098.94 245.286 1098.12 246 1096.72 246H1092.84C1092.78 246 1092.7 245.958 1092.7 245.412C1092.7 244.852 1092.78 244.796 1092.84 244.796H1096.72ZM1109.38 236.788V237.894H1108.1V236.788H1109.38ZM1106.88 239.812V238.706H1110.58V239.812H1106.88ZM1114.42 244.796C1114.49 244.796 1114.57 244.852 1114.57 245.412C1114.57 245.958 1114.49 246 1114.42 246H1114.01C1113.13 246 1112.54 245.734 1112.27 245.174C1111.94 245.734 1111.35 246 1110.54 246C1109.57 246 1108.98 245.692 1108.72 245.132C1108.38 245.692 1107.77 246 1106.88 246C1105.85 246 1105.26 245.692 1104.99 245.132C1104.66 245.692 1104.04 246 1103.16 246H1102.07C1102.01 246 1101.93 245.958 1101.93 245.412C1101.93 244.852 1102.01 244.796 1102.07 244.796H1103.16C1104 244.796 1104.46 244.362 1104.46 243.69V241.492H1105.64V243.69C1105.64 244.39 1106.03 244.796 1106.88 244.796C1107.72 244.796 1108.19 244.362 1108.19 243.69V241.492H1109.35V243.69C1109.35 244.39 1109.75 244.796 1110.54 244.796C1111.32 244.796 1111.74 244.362 1111.74 243.69V241.492H1112.9V243.69C1112.9 244.432 1113.3 244.796 1114.01 244.796H1114.42ZM1117.54 239.812H1116.05V238.65H1117.54V239.812ZM1118.18 243.774C1118.18 245.174 1117.26 246 1115.88 246H1114.43C1114.37 246 1114.29 245.958 1114.29 245.412C1114.29 244.852 1114.37 244.796 1114.43 244.796H1115.88C1116.54 244.796 1117.02 244.432 1117.02 243.76V241.492H1118.18V243.774ZM1120.55 246V236.942H1121.72V246H1120.55ZM1125.91 239.77L1126.74 238.944L1129.43 242.038C1130.06 242.752 1130.27 243.34 1130.27 243.928C1130.27 245.132 1129.41 246 1127.82 246H1123.83L1123.71 244.796H1127.82C1128.64 244.796 1129.1 244.446 1129.1 243.914C1129.1 243.578 1128.94 243.256 1128.53 242.78L1125.91 239.77ZM1137.64 239.77L1138.47 238.944L1141.16 242.038C1141.79 242.752 1142 243.34 1142 243.928C1142 245.132 1141.14 246 1139.55 246H1135.56L1135.44 244.796H1139.55C1140.37 244.796 1140.83 244.446 1140.83 243.914C1140.83 243.578 1140.67 243.256 1140.26 242.78L1137.64 239.77ZM1144.37 246V236.942H1145.53V246H1144.37ZM1149.99 239.812H1148.5V238.65H1149.99V239.812ZM1149.93 245.594C1149.93 247.96 1148.43 249.416 1146.26 249.416H1145.28L1145.17 248.212H1146.24C1147.82 248.212 1148.77 247.246 1148.77 245.594V241.492H1149.93V245.594ZM1152.08 236.228C1151.69 236.228 1151.48 236.368 1151.37 236.662L1151 237.53L1150.22 237.18L1150.64 236.102C1150.92 235.402 1151.31 235.192 1152.08 235.192H1155.51V236.228H1152.08ZM1152.66 238.216H1153.82V246H1152.66V238.216ZM1171.42 236.788V237.894H1170.14V236.788H1171.42ZM1168.92 239.812V238.706H1172.62V239.812H1168.92ZM1173.75 241.492H1174.92V243.662C1174.92 245.132 1173.99 246 1172.54 246C1171.57 246 1170.98 245.692 1170.73 245.132C1170.38 245.692 1169.76 246 1168.88 246C1168.24 246 1167.83 245.832 1167.64 245.594V245.762C1167.59 247.918 1166.05 249.416 1163.83 249.416H1163.21C1160.85 249.416 1159.54 247.974 1159.54 245.538V242.892H1160.71V245.51C1160.71 247.274 1161.57 248.212 1163.24 248.212H1163.83C1165.42 248.212 1166.47 247.218 1166.47 245.622V241.492H1167.64V243.718C1167.64 244.362 1168.03 244.796 1168.88 244.796C1169.74 244.796 1170.2 244.362 1170.2 243.69V241.492H1171.36V243.69C1171.36 244.39 1171.75 244.796 1172.54 244.796C1173.32 244.796 1173.75 244.39 1173.75 243.69V241.492ZM1179.22 239.812H1177.73V238.65H1179.22V239.812ZM1179.16 245.594C1179.16 247.96 1177.66 249.416 1175.49 249.416H1174.51L1174.4 248.212H1175.47C1177.05 248.212 1178 247.246 1178 245.594V241.492H1179.16V245.594ZM1188.06 244.796C1188.13 244.796 1188.2 244.852 1188.2 245.412C1188.2 245.958 1188.13 246 1188.06 246H1186.71C1186.54 248.142 1185.17 249.416 1183.1 249.416H1181.38L1181.27 248.212H1183.11C1184.61 248.212 1185.56 247.358 1185.58 246H1184.18C1182.23 246 1181.46 245.216 1181.46 243.55C1181.46 241.786 1182.55 240.582 1184.12 240.582C1185.75 240.582 1186.74 241.744 1186.74 243.62V244.796H1188.06ZM1182.62 243.48C1182.62 244.432 1183.03 244.796 1184.25 244.796H1185.58V243.704C1185.58 242.416 1185.05 241.758 1184.05 241.758C1183.18 241.758 1182.62 242.458 1182.62 243.48ZM1188.37 244.796C1189.04 244.796 1189.37 244.502 1189.37 243.9V243.326C1189.37 241.534 1190.37 240.442 1192.04 240.442C1193.71 240.442 1194.63 241.436 1194.63 243.27C1194.63 245.006 1193.64 246 1192 246C1191.02 246 1190.36 245.692 1190.04 245.132C1189.73 245.734 1189.24 246 1188.37 246H1188.05C1187.99 246 1187.91 245.958 1187.91 245.412C1187.91 244.852 1187.99 244.796 1188.05 244.796H1188.37ZM1193.47 243.27C1193.47 242.178 1192.99 241.618 1192 241.618C1191 241.618 1190.53 242.178 1190.53 243.326C1190.53 244.236 1191.06 244.796 1192 244.796C1192.96 244.796 1193.47 244.306 1193.47 243.27ZM1196.78 236.228C1196.38 236.228 1196.17 236.368 1196.06 236.662L1195.7 237.53L1194.91 237.18L1195.33 236.102C1195.61 235.402 1196.01 235.192 1196.78 235.192H1200.21V236.228H1196.78ZM1197.35 238.216H1198.51V246H1197.35V238.216ZM1207.91 249.416C1205.54 249.416 1204.24 247.974 1204.24 245.538V242.892H1205.4V245.51C1205.4 247.274 1206.27 248.212 1207.93 248.212H1208.52C1210.12 248.212 1211.17 247.218 1211.17 245.622V236.942H1212.33V245.51C1212.33 247.96 1210.75 249.416 1208.52 249.416H1207.91ZM1221.36 244.796C1221.43 244.796 1221.5 244.852 1221.5 245.412C1221.5 245.958 1221.43 246 1221.36 246H1220.02C1219.85 248.142 1218.48 249.416 1216.4 249.416H1214.68L1214.57 248.212H1216.42C1217.92 248.212 1218.87 247.358 1218.88 246H1217.48C1215.54 246 1214.77 245.216 1214.77 243.55C1214.77 241.786 1215.86 240.582 1217.43 240.582C1219.05 240.582 1220.04 241.744 1220.04 243.62V244.796H1221.36ZM1215.93 243.48C1215.93 244.432 1216.33 244.796 1217.55 244.796H1218.88V243.704C1218.88 242.416 1218.35 241.758 1217.36 241.758C1216.49 241.758 1215.93 242.458 1215.93 243.48ZM1222.67 239.644L1223.6 239.182C1223.01 238.986 1222.73 238.426 1222.73 237.908C1222.73 236.984 1223.39 236.34 1224.34 236.34H1225.05V237.096H1224.37C1223.82 237.096 1223.46 237.446 1223.46 237.894C1223.46 238.398 1223.88 238.72 1224.31 238.72C1224.62 238.72 1225 238.496 1225.64 238.16L1225.93 238.832L1223.04 240.33L1222.67 239.644ZM1223.04 244.796C1223.75 244.796 1224.23 244.404 1224.23 243.76V241.492H1225.39V243.732C1225.39 244.432 1225.78 244.796 1226.51 244.796H1226.9C1226.96 244.796 1227.04 244.852 1227.04 245.398C1227.04 245.958 1226.96 246 1226.9 246H1226.47C1225.64 246 1225.05 245.734 1224.79 245.174C1224.45 245.734 1223.83 246 1223.04 246H1221.36C1221.3 246 1221.22 245.958 1221.22 245.412C1221.22 244.852 1221.3 244.796 1221.36 244.796H1223.04ZM1228 244.796C1228.84 244.796 1229.3 244.362 1229.3 243.69V241.492H1230.48V243.69C1230.48 244.39 1230.87 244.796 1231.72 244.796C1232.56 244.796 1233.02 244.362 1233.02 243.69V241.492H1234.19V243.69C1234.19 244.39 1234.59 244.796 1235.38 244.796C1236.16 244.796 1236.58 244.362 1236.58 243.69V241.492H1237.74V243.69C1237.74 244.432 1238.13 244.796 1238.85 244.796H1239.25C1239.32 244.796 1239.41 244.852 1239.41 245.412C1239.41 245.958 1239.32 246 1239.25 246H1238.85C1237.97 246 1237.38 245.734 1237.11 245.174C1236.78 245.734 1236.19 246 1235.38 246C1234.41 246 1233.82 245.692 1233.56 245.132C1233.22 245.692 1232.6 246 1231.72 246C1230.69 246 1230.1 245.692 1229.83 245.132C1229.5 245.692 1228.88 246 1228 246H1226.91C1226.85 246 1226.77 245.958 1226.77 245.412C1226.77 244.852 1226.85 244.796 1226.91 244.796H1228ZM1239.59 244.796C1240.26 244.796 1240.58 244.502 1240.58 243.9V243.326C1240.58 241.534 1241.59 240.442 1243.26 240.442C1244.92 240.442 1245.85 241.436 1245.85 243.27C1245.85 245.006 1244.85 246 1243.21 246C1242.23 246 1241.58 245.692 1241.25 245.132C1240.95 245.734 1240.46 246 1239.59 246H1239.27C1239.21 246 1239.13 245.958 1239.13 245.412C1239.13 244.852 1239.21 244.796 1239.27 244.796H1239.59ZM1244.68 243.27C1244.68 242.178 1244.21 241.618 1243.21 241.618C1242.22 241.618 1241.74 242.178 1241.74 243.326C1241.74 244.236 1242.28 244.796 1243.21 244.796C1244.18 244.796 1244.68 244.306 1244.68 243.27Z" fill="black"/>
<path d="M114.861 128.344C110.467 128.344 108.049 125.666 108.049 121.142V116.228H110.207V121.09C110.207 124.366 111.819 126.108 114.913 126.108H116.005C118.969 126.108 120.919 124.262 120.919 121.298V105.178H123.077V117.918C123.077 119.036 123.805 119.764 125.105 119.764H125.599C125.703 119.764 125.859 119.868 125.859 120.908C125.859 121.922 125.703 122 125.599 122H125.183C124.273 122 123.441 121.688 123.077 121.246V121.558C122.999 125.562 120.139 128.344 116.005 128.344H114.861ZM126.194 119.764C127.442 119.764 128.04 119.218 128.04 118.1V117.034C128.04 113.706 129.912 111.678 133.006 111.678C136.1 111.678 137.816 113.524 137.816 116.93C137.816 120.154 135.97 122 132.928 122C131.108 122 129.886 121.428 129.288 120.388C128.716 121.506 127.806 122 126.194 122H125.596C125.492 122 125.336 121.922 125.336 120.908C125.336 119.868 125.492 119.764 125.596 119.764H126.194ZM135.658 116.93C135.658 114.902 134.774 113.862 132.928 113.862C131.082 113.862 130.198 114.902 130.198 117.034C130.198 118.724 131.186 119.764 132.928 119.764C134.722 119.764 135.658 118.854 135.658 116.93ZM146.937 119.764C147.067 119.764 147.197 119.868 147.197 120.908C147.197 121.922 147.067 122 146.937 122H146.261C143.583 122 142.231 120.31 142.231 117.45V105.178H144.389V117.346C144.389 118.958 145.039 119.764 146.365 119.764H146.937ZM154.151 119.764C155.659 119.764 156.543 119.114 156.543 118.126C156.543 117.424 156.231 116.8 155.477 116.02L149.367 109.962V108.09L158.857 104.32L159.507 106.4L151.915 109.39L157.115 114.616C158.259 115.76 158.701 116.982 158.701 118.152C158.701 120.388 157.115 122 154.151 122H146.949C146.845 122 146.689 121.922 146.689 120.908C146.689 119.868 146.845 119.764 146.949 119.764H154.151ZM179.375 121.168C179.375 125.614 176.723 128.344 172.615 128.344H169.417L169.209 126.108H172.641C175.423 126.108 177.191 124.522 177.217 122H174.617C171.003 122 169.573 120.544 169.573 117.45C169.573 114.174 171.601 111.938 174.513 111.938C177.529 111.938 179.375 114.096 179.375 117.58V121.168ZM171.731 117.32C171.731 119.088 172.485 119.764 174.747 119.764H177.217V117.736C177.217 115.344 176.229 114.122 174.383 114.122C172.771 114.122 171.731 115.422 171.731 117.32ZM189.808 114.122L191.004 111.938H197.66C199.558 111.938 201.066 112.796 201.066 114.668C201.066 115.994 200.442 117.034 197.712 119.348C198.232 119.66 198.934 119.764 200.702 119.764H203.25C203.38 119.764 203.51 119.868 203.51 120.908C203.51 121.922 203.38 122 203.25 122H200.702C197.374 122 196.334 121.688 195.294 120.674C192.772 122.234 191.888 123.768 191.888 125.458C191.888 127.72 193.162 128.786 196.438 128.786H201.508L201.3 131.022H196.308C191.732 131.022 189.73 129.228 189.73 125.536C189.73 123.196 190.874 121.168 193.422 119.348L189.808 114.122ZM198.96 115.11C198.96 114.408 198.388 114.018 197.348 114.018H192.2L195.528 118.88C198.336 116.54 198.96 115.786 198.96 115.11ZM203.838 119.764C205.086 119.764 205.684 119.218 205.684 118.1V117.034C205.684 113.706 207.556 111.678 210.65 111.678C213.744 111.678 215.46 113.524 215.46 116.93C215.46 120.154 213.614 122 210.572 122C208.752 122 207.53 121.428 206.932 120.388C206.36 121.506 205.45 122 203.838 122H203.24C203.136 122 202.98 121.922 202.98 120.908C202.98 119.868 203.136 119.764 203.24 119.764H203.838ZM213.302 116.93C213.302 114.902 212.418 113.862 210.572 113.862C208.726 113.862 207.842 114.902 207.842 117.034C207.842 118.724 208.83 119.764 210.572 119.764C212.366 119.764 213.302 118.854 213.302 116.93ZM224.581 119.764C224.711 119.764 224.841 119.868 224.841 120.908C224.841 121.922 224.711 122 224.581 122H223.905C221.227 122 219.875 120.31 219.875 117.45V105.178H222.033V117.346C222.033 118.958 222.683 119.764 224.009 119.764H224.581ZM226.414 119.764C229.04 119.764 230.522 119.4 232.342 118.36L236.294 116.046C235.748 114.148 234.89 113.55 233.018 113.55H226.934L227.22 111.288H233.382C236.476 111.288 237.828 112.666 238.816 116.774L233.356 120.154C231.146 121.532 229.404 122 226.336 122H224.594C224.49 122 224.334 121.922 224.334 120.908C224.334 119.868 224.49 119.764 224.594 119.764H226.414ZM232.16 127.46H229.404V125.276H232.16V127.46ZM253.791 121.246C253.791 125.64 251.009 128.344 246.979 128.344H246.251L246.043 126.108H246.927C249.865 126.108 251.633 124.314 251.633 121.246V113.628H253.791V121.246ZM262.921 119.764C263.051 119.764 263.181 119.868 263.181 120.908C263.181 121.922 263.051 122 262.921 122H262.245C259.567 122 258.215 120.31 258.215 117.45V105.178H260.373V117.346C260.373 118.958 261.023 119.764 262.349 119.764H262.921ZM273.23 119.764C273.334 119.764 273.49 119.868 273.49 120.882C273.49 121.922 273.334 122 273.23 122H272.424C270.89 122 269.798 121.506 269.304 120.466C268.68 121.506 267.536 122 266.054 122H262.934C262.83 122 262.674 121.922 262.674 120.908C262.674 119.868 262.83 119.764 262.934 119.764H266.054C267.38 119.764 268.264 119.036 268.264 117.84V113.628H270.422V117.788C270.422 119.088 271.15 119.764 272.502 119.764H273.23ZM268.29 125.276V127.356H261.426V125.276H268.29ZM275.27 119.764C276.83 119.764 277.688 118.958 277.688 117.71V113.628H279.872V117.71C279.872 119.01 280.6 119.764 282.186 119.764C283.746 119.764 284.604 118.958 284.604 117.71V113.628H286.762V117.71C286.762 119.01 287.516 119.764 288.972 119.764C290.428 119.764 291.208 118.958 291.208 117.71V113.628H293.366V117.71C293.366 119.088 294.094 119.764 295.42 119.764H296.174C296.304 119.764 296.46 119.868 296.46 120.908C296.46 121.922 296.304 122 296.174 122H295.42C293.782 122 292.69 121.506 292.196 120.466C291.572 121.506 290.48 122 288.972 122C287.178 122 286.086 121.428 285.592 120.388C284.968 121.428 283.824 122 282.186 122C280.262 122 279.17 121.428 278.676 120.388C278.052 121.428 276.908 122 275.27 122H273.242C273.138 122 272.982 121.922 272.982 120.908C272.982 119.868 273.138 119.764 273.242 119.764H275.27ZM303.163 117.866C303.163 120.466 301.447 122 298.899 122H296.195C296.091 122 295.935 121.922 295.935 120.908C295.935 119.868 296.091 119.764 296.195 119.764H298.899C300.121 119.764 301.005 119.088 301.005 117.84V113.628H303.163V117.866ZM299.653 127.46H296.897V125.276H299.653V127.46ZM319.152 116.15C319.152 115.11 319.412 114.304 320.036 113.732H318.866C316.838 113.732 315.668 114.85 315.668 116.748V128.344H313.51V116.748C313.51 113.602 315.642 111.548 318.996 111.548H324.326C327.29 111.548 328.772 113.134 328.772 115.76V117.554C328.772 120.414 327.082 122 323.91 122C320.738 122 319.152 120.362 319.152 117.762V116.15ZM323.988 119.764C325.626 119.764 326.614 119.114 326.614 117.528V115.968C326.614 114.59 325.756 113.732 324.326 113.732H323.494C322.038 113.732 321.31 114.668 321.31 116.02V117.346C321.31 119.062 322.22 119.764 323.988 119.764ZM336.313 110.43L337.847 108.896L342.839 114.642C344.009 115.968 344.399 117.06 344.399 118.152C344.399 120.388 342.813 122 339.849 122H332.439L332.231 119.764H339.849C341.383 119.764 342.241 119.114 342.241 118.126C342.241 117.502 341.929 116.904 341.175 116.02L336.313 110.43ZM352.281 117.762C352.281 119.036 353.035 119.764 354.465 119.764H354.803C354.907 119.764 355.063 119.894 355.063 120.908C355.063 121.922 354.907 122 354.803 122H354.465C353.529 122 352.645 121.636 352.281 121.116V121.428C352.203 125.64 349.499 128.344 345.469 128.344H343.649L343.441 126.108H345.417C348.355 126.108 350.123 124.314 350.123 121.246V113.628H352.281V117.762ZM361.999 119.764C363.507 119.764 364.391 119.114 364.391 118.126C364.391 117.424 364.079 116.8 363.325 116.02L357.215 109.962V108.09L366.705 104.32L367.355 106.4L359.763 109.39L364.963 114.616C366.107 115.76 366.549 116.982 366.549 118.152C366.549 120.388 364.963 122 361.999 122H354.797C354.693 122 354.537 121.922 354.537 120.908C354.537 119.868 354.693 119.764 354.797 119.764H361.999ZM382.932 111.444V109.39H389.796V111.444H382.932ZM398.272 119.764C398.376 119.764 398.532 119.868 398.532 120.908C398.532 121.922 398.376 122 398.272 122H397.492C395.958 122 394.866 121.506 394.372 120.466C393.748 121.506 392.604 122 391.096 122H381.918C378.798 122 377.316 120.206 377.316 117.502V113.628H379.474V117.216C379.474 118.776 380.228 119.764 382.048 119.764H391.096C392.448 119.764 393.306 119.036 393.306 117.866V113.628H395.464V117.788C395.464 119.088 396.192 119.764 397.57 119.764H398.272ZM405.468 119.764C406.976 119.764 407.86 119.114 407.86 118.126C407.86 117.424 407.548 116.8 406.794 116.02L400.684 109.962V108.09L410.174 104.32L410.824 106.4L403.232 109.39L408.432 114.616C409.576 115.76 410.018 116.982 410.018 118.152C410.018 120.388 408.432 122 405.468 122H398.266C398.162 122 398.006 121.922 398.006 120.908C398.006 119.868 398.162 119.764 398.266 119.764H405.468ZM418.322 117.762C418.322 119.036 419.076 119.764 420.506 119.764H420.844C420.948 119.764 421.104 119.894 421.104 120.908C421.104 121.922 420.948 122 420.844 122H420.506C419.57 122 418.686 121.636 418.322 121.116V121.428C418.244 125.64 415.54 128.344 411.51 128.344H409.69L409.482 126.108H411.458C414.396 126.108 416.164 124.314 416.164 121.246V113.628H418.322V117.762ZM434.41 104.892V106.946H432.044V104.892H434.41ZM429.782 110.508V108.454H436.646V110.508H429.782ZM438.804 113.628H440.962V117.658C440.962 120.388 439.246 122 436.568 122C434.774 122 433.682 121.428 433.188 120.388C432.564 121.428 431.42 122 429.782 122C427.858 122 426.766 121.428 426.272 120.388C425.648 121.428 424.504 122 422.866 122H420.838C420.734 122 420.578 121.922 420.578 120.908C420.578 119.868 420.734 119.764 420.838 119.764H422.866C424.426 119.764 425.284 118.958 425.284 117.71V113.628H427.468V117.71C427.468 119.01 428.196 119.764 429.782 119.764C431.342 119.764 432.2 118.958 432.2 117.71V113.628H434.358V117.71C434.358 119.01 435.112 119.764 436.568 119.764C438.024 119.764 438.804 119.01 438.804 117.71V113.628ZM459.727 112.848H456.971V110.69H459.727V112.848ZM458.167 128.344C453.773 128.344 451.355 125.666 451.355 121.142V116.228H453.513V121.09C453.513 124.366 455.125 126.108 458.219 126.108H459.311C462.275 126.108 464.225 124.262 464.225 121.298V113.628H466.383V121.09C466.383 125.64 463.445 128.344 459.311 128.344H458.167ZM475.517 119.764C475.647 119.764 475.777 119.868 475.777 120.908C475.777 121.922 475.647 122 475.517 122H474.841C472.163 122 470.811 120.31 470.811 117.45V105.178H472.969V117.346C472.969 118.958 473.619 119.764 474.945 119.764H475.517ZM476.127 119.764C477.375 119.764 477.973 119.218 477.973 118.1V117.034C477.973 113.706 479.845 111.678 482.939 111.678C486.033 111.678 487.749 113.524 487.749 116.93C487.749 120.154 485.903 122 482.861 122C481.041 122 479.819 121.428 479.221 120.388C478.649 121.506 477.739 122 476.127 122H475.529C475.425 122 475.269 121.922 475.269 120.908C475.269 119.868 475.425 119.764 475.529 119.764H476.127ZM485.591 116.93C485.591 114.902 484.707 113.862 482.861 113.862C481.015 113.862 480.131 114.902 480.131 117.034C480.131 118.724 481.119 119.764 482.861 119.764C484.655 119.764 485.591 118.854 485.591 116.93ZM495.74 110.508H492.984V108.35H495.74V110.508ZM495.636 121.246C495.636 125.64 492.854 128.344 488.824 128.344H487.004L486.796 126.108H488.772C491.71 126.108 493.478 124.314 493.478 121.246V113.628H495.636V121.246ZM527.94 117.71C527.94 119.01 528.668 119.764 530.124 119.764C531.58 119.764 532.386 119.01 532.386 117.71V113.628H534.544V117.658C534.544 120.388 532.828 122 530.124 122C528.33 122 527.238 121.428 526.77 120.388C526.12 121.428 524.976 122 523.338 122C522.142 122 521.388 121.688 521.024 121.246V121.558C520.946 125.562 518.086 128.344 513.952 128.344H512.808C508.414 128.344 505.996 125.666 505.996 121.142V116.228H508.154V121.09C508.154 124.366 509.766 126.108 512.86 126.108H513.952C516.916 126.108 518.866 124.262 518.866 121.298V113.628H521.024V117.762C521.024 118.958 521.752 119.764 523.338 119.764C524.924 119.764 525.782 118.958 525.782 117.71V113.628H527.94V117.71ZM548.605 121.168C548.605 125.614 545.953 128.344 541.845 128.344H538.647L538.439 126.108H541.871C544.653 126.108 546.421 124.522 546.447 122H543.847C540.233 122 538.803 120.544 538.803 117.45C538.803 114.174 540.831 111.938 543.743 111.938C546.759 111.938 548.605 114.096 548.605 117.58V121.168ZM540.961 117.32C540.961 119.088 541.715 119.764 543.977 119.764H546.447V117.736C546.447 115.344 545.459 114.122 543.613 114.122C542.001 114.122 540.961 115.422 540.961 117.32ZM562.672 121.168C562.672 125.614 560.02 128.344 555.912 128.344H552.714L552.506 126.108H555.938C558.72 126.108 560.488 124.522 560.514 122H557.914C554.3 122 552.87 120.544 552.87 117.45C552.87 114.174 554.898 111.938 557.81 111.938C560.826 111.938 562.672 114.096 562.672 117.58V121.168ZM555.028 117.32C555.028 119.088 555.782 119.764 558.044 119.764H560.514V117.736C560.514 115.344 559.526 114.122 557.68 114.122C556.068 114.122 555.028 115.422 555.028 117.32ZM571.798 119.764C571.928 119.764 572.058 119.868 572.058 120.908C572.058 121.922 571.928 122 571.798 122H571.122C568.444 122 567.092 120.31 567.092 117.45V105.178H569.25V117.346C569.25 118.958 569.9 119.764 571.226 119.764H571.798ZM579.013 119.764C580.521 119.764 581.405 119.114 581.405 118.126C581.405 117.424 581.093 116.8 580.339 116.02L574.229 109.962V108.09L583.719 104.32L584.369 106.4L576.777 109.39L581.925 114.564C586.709 119.374 587.359 119.764 588.945 119.764C589.049 119.764 589.205 119.868 589.205 120.908C589.205 121.922 589.049 122 588.945 122C586.839 122 585.981 121.61 583.277 118.906C583.147 120.674 581.613 122 579.013 122H571.811C571.707 122 571.551 121.922 571.551 120.908C571.551 119.868 571.707 119.764 571.811 119.764H579.013ZM599.245 119.764C599.349 119.764 599.505 119.868 599.505 120.882C599.505 121.922 599.349 122 599.245 122H598.439C596.905 122 595.813 121.506 595.319 120.466C594.695 121.506 593.551 122 592.069 122H588.949C588.845 122 588.689 121.922 588.689 120.908C588.689 119.868 588.845 119.764 588.949 119.764H592.069C593.395 119.764 594.279 119.036 594.279 117.84V113.628H596.437V117.788C596.437 119.088 597.165 119.764 598.517 119.764H599.245ZM594.305 125.276V127.356H587.441V125.276H594.305ZM606.46 119.764C607.968 119.764 608.852 119.114 608.852 118.126C608.852 117.424 608.54 116.8 607.786 116.02L601.676 109.962V108.09L611.166 104.32L611.816 106.4L604.224 109.39L609.424 114.616C610.568 115.76 611.01 116.982 611.01 118.152C611.01 120.388 609.424 122 606.46 122H599.258C599.154 122 598.998 121.922 598.998 120.908C598.998 119.868 599.154 119.764 599.258 119.764H606.46ZM627.393 111.444V109.39H634.257V111.444H627.393ZM642.733 119.764C642.837 119.764 642.993 119.868 642.993 120.908C642.993 121.922 642.837 122 642.733 122H641.953C640.419 122 639.327 121.506 638.833 120.466C638.209 121.506 637.065 122 635.557 122H626.379C623.259 122 621.777 120.206 621.777 117.502V113.628H623.935V117.216C623.935 118.776 624.689 119.764 626.509 119.764H635.557C636.909 119.764 637.767 119.036 637.767 117.866V113.628H639.925V117.788C639.925 119.088 640.653 119.764 642.031 119.764H642.733ZM649.929 119.764C651.437 119.764 652.321 119.114 652.321 118.126C652.321 117.424 652.009 116.8 651.255 116.02L645.145 109.962V108.09L654.635 104.32L655.285 106.4L647.693 109.39L652.893 114.616C654.037 115.76 654.479 116.982 654.479 118.152C654.479 120.388 652.893 122 649.929 122H642.727C642.623 122 642.467 121.922 642.467 120.908C642.467 119.868 642.623 119.764 642.727 119.764H649.929ZM662.783 117.762C662.783 119.036 663.537 119.764 664.967 119.764H665.305C665.409 119.764 665.565 119.894 665.565 120.908C665.565 121.922 665.409 122 665.305 122H664.967C664.031 122 663.147 121.636 662.783 121.116V121.428C662.705 125.64 660.001 128.344 655.971 128.344H654.151L653.943 126.108H655.919C658.857 126.108 660.625 124.314 660.625 121.246V113.628H662.783V117.762ZM678.871 104.892V106.946H676.505V104.892H678.871ZM674.243 110.508V108.454H681.107V110.508H674.243ZM683.265 113.628H685.423V117.658C685.423 120.388 683.707 122 681.029 122C679.235 122 678.143 121.428 677.649 120.388C677.025 121.428 675.881 122 674.243 122C672.319 122 671.227 121.428 670.733 120.388C670.109 121.428 668.965 122 667.327 122H665.299C665.195 122 665.039 121.922 665.039 120.908C665.039 119.868 665.195 119.764 665.299 119.764H667.327C668.887 119.764 669.745 118.958 669.745 117.71V113.628H671.929V117.71C671.929 119.01 672.657 119.764 674.243 119.764C675.803 119.764 676.661 118.958 676.661 117.71V113.628H678.819V117.71C678.819 119.01 679.573 119.764 681.029 119.764C682.485 119.764 683.265 119.01 683.265 117.71V113.628ZM709.596 122.39C709.596 121.298 708.972 120.752 707.672 120.752H702.732V116.02C702.732 113.16 704.578 111.184 707.542 111.184H710.844L711.026 113.342H707.49C705.956 113.342 704.916 114.46 704.916 115.942V118.516H708.036C710.584 118.516 711.754 119.92 711.754 122.26C711.754 125.588 708.634 128.344 704.63 128.344H702.628C698.234 128.344 695.816 125.666 695.816 121.142V116.228H697.974V121.09C697.974 124.366 699.586 126.108 702.68 126.108H704.63C707.62 126.108 709.596 124.522 709.596 122.39ZM720.597 121.246C720.597 125.64 717.815 128.344 713.785 128.344H713.057L712.849 126.108H713.733C716.671 126.108 718.439 124.314 718.439 121.246V113.628H720.597V121.246ZM725.022 122V105.178H727.18V122H725.022ZM737.181 119.764C738.403 119.764 739.209 119.166 739.209 118.36C739.209 117.606 738.715 116.306 736.323 109.858L738.325 108.948L741.367 117.58C741.913 119.14 742.485 119.764 743.733 119.764H744.279C744.409 119.764 744.539 119.894 744.539 120.908C744.539 121.974 744.409 122 744.279 122H743.655C742.095 122 741.055 121.506 740.457 120.362C739.807 121.506 738.767 122 737.181 122H731.097L730.889 119.764H737.181ZM751.257 117.866C751.257 120.466 749.541 122 746.993 122H744.289C744.185 122 744.029 121.922 744.029 120.908C744.029 119.868 744.185 119.764 744.289 119.764H746.993C748.215 119.764 749.099 119.088 749.099 117.84V113.628H751.257V117.866ZM747.747 127.46H744.991V125.276H747.747V127.46ZM760.374 119.764C760.504 119.764 760.634 119.868 760.634 120.908C760.634 121.922 760.504 122 760.374 122H759.698C757.02 122 755.668 120.31 755.668 117.45V105.178H757.826V117.346C757.826 118.958 758.476 119.764 759.802 119.764H760.374ZM762.415 119.764C763.975 119.764 764.833 118.958 764.833 117.71V113.628H767.017V117.71C767.017 119.01 767.745 119.764 769.331 119.764C770.891 119.764 771.749 118.958 771.749 117.71V113.628H773.907V117.71C773.907 119.01 774.661 119.764 776.117 119.764C777.573 119.764 778.353 118.958 778.353 117.71V113.628H780.511V117.71C780.511 119.088 781.239 119.764 782.565 119.764H783.319C783.449 119.764 783.605 119.868 783.605 120.908C783.605 121.922 783.449 122 783.319 122H782.565C780.927 122 779.835 121.506 779.341 120.466C778.717 121.506 777.625 122 776.117 122C774.323 122 773.231 121.428 772.737 120.388C772.113 121.428 770.969 122 769.331 122C767.407 122 766.315 121.428 765.821 120.388C765.197 121.428 764.053 122 762.415 122H760.387C760.283 122 760.127 121.922 760.127 120.908C760.127 119.868 760.283 119.764 760.387 119.764H762.415ZM785.16 119.764C787.786 119.764 789.268 119.4 791.088 118.36L795.04 116.046C794.494 114.148 793.636 113.55 791.764 113.55H785.68L785.966 111.288H792.128C795.222 111.288 796.574 112.666 797.562 116.774L792.102 120.154C789.892 121.532 788.15 122 785.082 122H783.34C783.236 122 783.08 121.922 783.08 120.908C783.08 119.868 783.236 119.764 783.34 119.764H785.16ZM829.177 104.892V106.946H826.811V104.892H829.177ZM824.549 110.508V108.454H831.413V110.508H824.549ZM833.519 113.628H835.677V117.658C835.677 120.388 833.961 122 831.257 122C829.463 122 828.371 121.428 827.903 120.388C827.253 121.428 826.109 122 824.471 122C823.275 122 822.521 121.688 822.157 121.246V121.558C822.079 125.562 819.219 128.344 815.085 128.344H813.941C809.547 128.344 807.129 125.666 807.129 121.142V116.228H809.287V121.09C809.287 124.366 810.899 126.108 813.993 126.108H815.085C818.049 126.108 819.999 124.262 819.999 121.298V113.628H822.157V117.762C822.157 118.958 822.885 119.764 824.471 119.764C826.057 119.764 826.915 118.958 826.915 117.71V113.628H829.073V117.71C829.073 119.01 829.801 119.764 831.257 119.764C832.713 119.764 833.519 119.01 833.519 117.71V113.628ZM843.668 110.508H840.912V108.35H843.668V110.508ZM843.564 121.246C843.564 125.64 840.782 128.344 836.752 128.344H834.932L834.724 126.108H836.7C839.638 126.108 841.406 124.314 841.406 121.246V113.628H843.564V121.246ZM860.078 119.764C860.208 119.764 860.338 119.868 860.338 120.908C860.338 121.922 860.208 122 860.078 122H857.582C857.27 125.978 854.722 128.344 850.874 128.344H847.676L847.468 126.108H850.9C853.682 126.108 855.45 124.522 855.476 122H852.876C849.262 122 847.832 120.544 847.832 117.45C847.832 114.174 849.86 111.938 852.772 111.938C855.788 111.938 857.634 114.096 857.634 117.58V119.764H860.078ZM849.99 117.32C849.99 119.088 850.744 119.764 853.006 119.764H855.476V117.736C855.476 115.344 854.488 114.122 852.642 114.122C851.03 114.122 849.99 115.422 849.99 117.32ZM860.668 119.764C861.916 119.764 862.514 119.218 862.514 118.1V117.034C862.514 113.706 864.386 111.678 867.48 111.678C870.574 111.678 872.29 113.524 872.29 116.93C872.29 120.154 870.444 122 867.402 122C865.582 122 864.36 121.428 863.762 120.388C863.19 121.506 862.28 122 860.668 122H860.07C859.966 122 859.81 121.922 859.81 120.908C859.81 119.868 859.966 119.764 860.07 119.764H860.668ZM870.132 116.93C870.132 114.902 869.248 113.862 867.402 113.862C865.556 113.862 864.672 114.902 864.672 117.034C864.672 118.724 865.66 119.764 867.402 119.764C869.196 119.764 870.132 118.854 870.132 116.93ZM876.274 103.852C875.546 103.852 875.156 104.112 874.948 104.658L874.272 106.27L872.816 105.62L873.596 103.618C874.116 102.318 874.844 101.928 876.274 101.928H882.644V103.852H876.274ZM877.34 107.544H879.498V122H877.34V107.544ZM890.131 117.71C890.131 115.786 891.041 114.018 893.771 111.314L892.627 110.144L894.161 108.506C899.309 113.342 900.375 115.084 900.375 117.45C900.375 120.232 898.217 122.26 895.045 122.26C892.081 122.26 890.131 120.414 890.131 117.71ZM898.217 117.45C898.217 116.02 897.541 114.824 895.253 112.692C893.043 114.824 892.289 116.15 892.289 117.58C892.289 118.984 893.355 120.024 895.123 120.024C896.917 120.024 898.217 118.932 898.217 117.45ZM908.259 121.246C908.259 125.64 905.477 128.344 901.447 128.344H899.627L899.419 126.108H901.395C904.333 126.108 906.101 124.314 906.101 121.246V113.628H908.259V121.246ZM922.33 121.168C922.33 125.614 919.678 128.344 915.57 128.344H912.372L912.164 126.108H915.596C918.378 126.108 920.146 124.522 920.172 122H917.572C913.958 122 912.528 120.544 912.528 117.45C912.528 114.174 914.556 111.938 917.468 111.938C920.484 111.938 922.33 114.096 922.33 117.58V121.168ZM914.686 117.32C914.686 119.088 915.44 119.764 917.702 119.764H920.172V117.736C920.172 115.344 919.184 114.122 917.338 114.122C915.726 114.122 914.686 115.422 914.686 117.32ZM929.844 110.43L931.378 108.896L936.37 114.642C937.54 115.968 937.93 117.06 937.93 118.152C937.93 120.388 936.344 122 933.38 122H925.97L925.762 119.764H933.38C934.914 119.764 935.772 119.114 935.772 118.126C935.772 117.502 935.46 116.904 934.706 116.02L929.844 110.43ZM137.098 157.164C137.098 159.036 137.774 159.764 138.996 159.764H139.62C139.75 159.764 139.88 159.868 139.88 160.908C139.88 161.922 139.75 162 139.62 162H138.996C137.176 162 135.928 161.272 135.512 159.53C134.732 160.362 133.224 160.726 131.794 160.726C128.882 160.726 127.244 159.14 127.244 156.02C127.244 153.108 129.272 150.716 132.314 150.716H134.94V148.922H137.098V157.164ZM129.402 155.968C129.402 157.632 130.208 158.49 131.924 158.49C133.77 158.49 134.94 157.762 134.94 156.618V152.9H132.314C130.52 152.9 129.402 153.992 129.402 155.968ZM146.917 150.508H144.161V148.35H146.917V150.508ZM142.731 159.764C144.057 159.764 144.941 159.036 144.941 157.84V153.628H147.099V157.788C147.099 159.088 147.827 159.764 149.179 159.764H149.907C150.011 159.764 150.167 159.868 150.167 160.882C150.167 161.922 150.011 162 149.907 162H149.101C147.567 162 146.475 161.506 145.981 160.466C145.357 161.506 144.213 162 142.731 162H139.611C139.507 162 139.351 161.922 139.351 160.908C139.351 159.868 139.507 159.764 139.611 159.764H142.731ZM157.122 159.764C158.63 159.764 159.514 159.114 159.514 158.126C159.514 157.424 159.202 156.8 158.448 156.02L152.338 149.962V148.09L161.828 144.32L162.478 146.4L154.886 149.39L160.086 154.616C161.23 155.76 161.672 156.982 161.672 158.152C161.672 160.388 160.086 162 157.122 162H149.92C149.816 162 149.66 161.922 149.66 160.908C149.66 159.868 149.816 159.764 149.92 159.764H157.122ZM177.041 162C173.921 162 172.439 160.206 172.439 157.502V153.628H174.597V157.216C174.597 158.776 175.351 159.764 177.171 159.764H186.505C188.039 159.764 188.897 159.114 188.897 158.126C188.897 157.424 188.585 156.8 187.831 156.02L181.747 149.962V148.09L191.211 144.32L191.861 146.4L184.269 149.39L189.417 154.564C194.227 159.374 194.877 159.764 196.437 159.764C196.541 159.764 196.697 159.868 196.697 160.908C196.697 161.922 196.541 162 196.437 162C194.331 162 193.499 161.61 190.795 158.906C190.639 160.674 189.105 162 186.505 162H177.041ZM197.034 159.764C198.282 159.764 198.88 159.218 198.88 158.1V157.034C198.88 153.706 200.752 151.678 203.846 151.678C206.94 151.678 208.656 153.524 208.656 156.93V157.658C208.656 159.166 209.28 159.764 210.45 159.764H211.1C211.204 159.764 211.36 159.868 211.36 160.908C211.36 161.922 211.204 162 211.1 162H210.45C208.968 162 207.98 161.506 207.512 160.336C206.784 161.454 205.354 162 203.768 162C201.948 162 200.726 161.428 200.128 160.388C199.556 161.506 198.646 162 197.034 162H196.436C196.332 162 196.176 161.922 196.176 160.908C196.176 159.868 196.332 159.764 196.436 159.764H197.034ZM206.498 156.93C206.498 154.902 205.614 153.862 203.768 153.862C201.922 153.862 201.038 154.902 201.038 157.034C201.038 158.724 202.026 159.764 203.768 159.764C205.562 159.764 206.498 158.854 206.498 156.93ZM218.313 159.764C219.821 159.764 220.705 159.114 220.705 158.126C220.705 157.424 220.393 156.8 219.639 156.02L213.529 149.962V148.09L223.019 144.32L223.669 146.4L216.077 149.39L221.277 154.616C222.421 155.76 222.863 156.982 222.863 158.152C222.863 160.388 221.277 162 218.313 162H211.111C211.007 162 210.851 161.922 210.851 160.908C210.851 159.868 211.007 159.764 211.111 159.764H218.313ZM242.003 152.848H239.247V150.69H242.003V152.848ZM248.659 157.918C248.659 159.036 249.387 159.764 250.687 159.764H251.181C251.285 159.764 251.441 159.868 251.441 160.908C251.441 161.922 251.285 162 251.181 162H250.765C249.855 162 249.023 161.688 248.659 161.246V161.558C248.581 165.562 245.721 168.344 241.587 168.344H240.443C236.049 168.344 233.631 165.666 233.631 161.142V156.228H235.789V161.09C235.789 164.366 237.401 166.108 240.495 166.108H241.587C244.551 166.108 246.501 164.262 246.501 161.298V153.628H248.659V157.918ZM251.776 159.764C253.024 159.764 253.622 159.218 253.622 158.1V157.034C253.622 153.706 255.494 151.678 258.588 151.678C261.682 151.678 263.398 153.524 263.398 156.93C263.398 160.154 261.552 162 258.51 162C256.69 162 255.468 161.428 254.87 160.388C254.298 161.506 253.388 162 251.776 162H251.178C251.074 162 250.918 161.922 250.918 160.908C250.918 159.868 251.074 159.764 251.178 159.764H251.776ZM261.24 156.93C261.24 154.902 260.356 153.862 258.51 153.862C256.664 153.862 255.78 154.902 255.78 157.034C255.78 158.724 256.768 159.764 258.51 159.764C260.304 159.764 261.24 158.854 261.24 156.93ZM283.602 157.164C283.602 159.036 284.278 159.764 285.5 159.764H286.124C286.254 159.764 286.384 159.868 286.384 160.908C286.384 161.922 286.254 162 286.124 162H285.5C283.68 162 282.432 161.272 282.016 159.53C281.236 160.362 279.728 160.726 278.298 160.726C275.386 160.726 273.748 159.14 273.748 156.02C273.748 153.108 275.776 150.716 278.818 150.716H281.444V148.922H283.602V157.164ZM275.906 155.968C275.906 157.632 276.712 158.49 278.428 158.49C280.274 158.49 281.444 157.762 281.444 156.618V152.9H278.818C277.024 152.9 275.906 153.992 275.906 155.968ZM293.083 157.866C293.083 160.466 291.367 162 288.819 162H286.115C286.011 162 285.855 161.922 285.855 160.908C285.855 159.868 286.011 159.764 286.115 159.764H288.819C290.041 159.764 290.925 159.088 290.925 157.84V153.628H293.083V157.866ZM289.573 167.46H286.817V165.276H289.573V167.46ZM309.046 151.444V149.39H315.91V151.444H309.046ZM324.386 159.764C324.49 159.764 324.646 159.868 324.646 160.908C324.646 161.922 324.49 162 324.386 162H323.606C322.072 162 320.98 161.506 320.486 160.466C319.862 161.506 318.718 162 317.21 162H308.032C304.912 162 303.43 160.206 303.43 157.502V153.628H305.588V157.216C305.588 158.776 306.342 159.764 308.162 159.764H317.21C318.562 159.764 319.42 159.036 319.42 157.866V153.628H321.578V157.788C321.578 159.088 322.306 159.764 323.684 159.764H324.386ZM326.407 159.764C327.967 159.764 328.825 158.958 328.825 157.71V153.628H331.009V157.71C331.009 159.01 331.737 159.764 333.323 159.764C334.883 159.764 335.741 158.958 335.741 157.71V153.628H337.899V157.71C337.899 159.01 338.653 159.764 340.109 159.764C341.565 159.764 342.345 158.958 342.345 157.71V153.628H344.503V157.71C344.503 159.088 345.231 159.764 346.557 159.764H347.311C347.441 159.764 347.597 159.868 347.597 160.908C347.597 161.922 347.441 162 347.311 162H346.557C344.919 162 343.827 161.506 343.333 160.466C342.709 161.506 341.617 162 340.109 162C338.315 162 337.223 161.428 336.729 160.388C336.105 161.428 334.961 162 333.323 162C331.399 162 330.307 161.428 329.813 160.388C329.189 161.428 328.045 162 326.407 162H324.379C324.275 162 324.119 161.922 324.119 160.908C324.119 159.868 324.275 159.764 324.379 159.764H326.407ZM353.104 150.508H350.348V148.35H353.104V150.508ZM354.3 157.866C354.3 160.466 352.584 162 350.036 162H347.332C347.228 162 347.072 161.922 347.072 160.908C347.072 159.868 347.228 159.764 347.332 159.764H350.036C351.258 159.764 352.142 159.088 352.142 157.84V153.628H354.3V157.866ZM370.801 159.764C370.931 159.764 371.061 159.868 371.061 160.908C371.061 161.922 370.931 162 370.801 162H368.305C367.993 165.978 365.445 168.344 361.597 168.344H358.399L358.191 166.108H361.623C364.405 166.108 366.173 164.522 366.199 162H363.599C359.985 162 358.555 160.544 358.555 157.45C358.555 154.174 360.583 151.938 363.495 151.938C366.511 151.938 368.357 154.096 368.357 157.58V159.764H370.801ZM360.713 157.32C360.713 159.088 361.467 159.764 363.729 159.764H366.199V157.736C366.199 155.344 365.211 154.122 363.365 154.122C361.753 154.122 360.713 155.422 360.713 157.32ZM378.567 148.454V150.508H371.703V148.454H378.567ZM375.603 157.84V153.628H377.761V157.866C377.761 160.466 376.045 162 373.497 162H370.793C370.689 162 370.533 161.922 370.533 160.908C370.533 159.868 370.689 159.764 370.793 159.764H373.497C374.719 159.764 375.603 159.088 375.603 157.84ZM395.517 161.922L395.751 159.764H406.281C406.385 159.764 406.541 159.868 406.541 160.908C406.541 161.922 406.385 162 406.281 162H403.577C403.837 162.26 403.967 162.728 403.967 163.222C403.967 166.238 401.211 168.344 396.921 168.344H394.919C390.525 168.344 388.107 165.666 388.107 161.142V156.228H390.265V161.09C390.265 164.366 391.877 166.108 394.971 166.108H396.921C400.145 166.108 401.809 165.016 401.809 163.274C401.809 162.338 401.367 161.922 400.353 161.922H395.517ZM407.095 159.764C408.317 159.764 409.175 159.036 409.175 157.84V145.178H411.359V157.71C411.359 159.192 412.243 159.764 413.361 159.764H414.011C414.115 159.764 414.271 159.868 414.271 160.882C414.271 161.922 414.115 162 414.011 162H413.283C411.775 162 410.683 161.454 410.267 160.44C409.669 161.454 408.577 162 407.095 162H406.289C406.185 162 406.029 161.922 406.029 160.908C406.029 159.868 406.185 159.764 406.289 159.764H407.095ZM424.304 159.764C424.408 159.764 424.564 159.868 424.564 160.882C424.564 161.922 424.408 162 424.304 162H423.498C421.964 162 420.872 161.506 420.378 160.466C419.754 161.506 418.61 162 417.128 162H414.008C413.904 162 413.748 161.922 413.748 160.908C413.748 159.868 413.904 159.764 414.008 159.764H417.128C418.454 159.764 419.338 159.036 419.338 157.84V153.628H421.496V157.788C421.496 159.088 422.224 159.764 423.576 159.764H424.304ZM419.364 165.276V167.356H412.5V165.276H419.364ZM432.688 148.246H429.932V146.088H432.688V148.246ZM426.136 159.764C428.762 159.764 430.244 159.4 432.064 158.36L436.016 156.046C435.47 154.148 434.612 153.55 432.74 153.55H426.656L426.942 151.288H433.104C436.198 151.288 437.55 152.666 438.538 156.774L433.078 160.154C430.868 161.532 429.126 162 426.058 162H424.316C424.212 162 424.056 161.922 424.056 160.908C424.056 159.868 424.212 159.764 424.316 159.764H426.136ZM457.959 157.164C457.959 159.036 458.635 159.764 459.857 159.764H460.481C460.611 159.764 460.741 159.868 460.741 160.908C460.741 161.922 460.611 162 460.481 162H459.857C458.037 162 456.789 161.272 456.373 159.53C455.593 160.362 454.085 160.726 452.655 160.726C449.743 160.726 448.105 159.14 448.105 156.02C448.105 153.108 450.133 150.716 453.175 150.716H455.801V148.922H457.959V157.164ZM450.263 155.968C450.263 157.632 451.069 158.49 452.785 158.49C454.631 158.49 455.801 157.762 455.801 156.618V152.9H453.175C451.381 152.9 450.263 153.992 450.263 155.968ZM467.675 159.764C469.183 159.764 470.067 159.114 470.067 158.126C470.067 157.424 469.755 156.8 469.001 156.02L462.891 149.962V148.09L472.381 144.32L473.031 146.4L465.439 149.39L470.639 154.616C471.783 155.76 472.225 156.982 472.225 158.152C472.225 160.388 470.639 162 467.675 162H460.473C460.369 162 460.213 161.922 460.213 160.908C460.213 159.868 460.369 159.764 460.473 159.764H467.675ZM486.346 150.43L487.88 148.896L492.872 154.642C494.042 155.968 494.432 157.06 494.432 158.152C494.432 160.388 492.846 162 489.882 162H482.472L482.264 159.764H489.882C491.416 159.764 492.274 159.114 492.274 158.126C492.274 157.502 491.962 156.904 491.208 156.02L486.346 150.43ZM510.932 159.764C511.062 159.764 511.192 159.868 511.192 160.908C511.192 161.922 511.062 162 510.932 162H508.436C508.124 165.978 505.576 168.344 501.728 168.344H498.53L498.322 166.108H501.754C504.536 166.108 506.304 164.522 506.33 162H503.73C500.116 162 498.686 160.544 498.686 157.45C498.686 154.174 500.714 151.938 503.626 151.938C506.642 151.938 508.488 154.096 508.488 157.58V159.764H510.932ZM500.844 157.32C500.844 159.088 501.598 159.764 503.86 159.764H506.33V157.736C506.33 155.344 505.342 154.122 503.496 154.122C501.884 154.122 500.844 155.422 500.844 157.32ZM517.892 157.866C517.892 160.466 516.176 162 513.628 162H510.924C510.82 162 510.664 161.922 510.664 160.908C510.664 159.868 510.82 159.764 510.924 159.764H513.628C514.85 159.764 515.734 159.088 515.734 157.84V153.628H517.892V157.866ZM514.382 167.46H511.626V165.276H514.382V167.46ZM533.646 161.246C533.646 165.64 530.864 168.344 526.834 168.344H526.106L525.898 166.108H526.782C529.72 166.108 531.488 164.314 531.488 161.246V153.628H533.646V161.246ZM550.16 159.764C550.29 159.764 550.42 159.868 550.42 160.908C550.42 161.922 550.29 162 550.16 162H547.664C547.352 165.978 544.804 168.344 540.956 168.344H537.758L537.55 166.108H540.982C543.764 166.108 545.532 164.522 545.558 162H542.958C539.344 162 537.914 160.544 537.914 157.45C537.914 154.174 539.942 151.938 542.854 151.938C545.87 151.938 547.716 154.096 547.716 157.58V159.764H550.16ZM540.072 157.32C540.072 159.088 540.826 159.764 543.088 159.764H545.558V157.736C545.558 155.344 544.57 154.122 542.724 154.122C541.112 154.122 540.072 155.422 540.072 157.32ZM552.492 153.55L552.778 151.288H558.94C562.034 151.288 563.386 152.666 564.374 156.774L562.32 158.022C562.866 159.348 563.568 159.764 564.92 159.764H566.636C566.74 159.764 566.896 159.894 566.896 160.908C566.896 161.974 566.74 162 566.636 162H564.842C562.788 162 561.722 161.298 560.708 159.036L558.914 160.154C556.704 161.532 554.962 162 551.894 162H550.152C550.048 162 549.892 161.922 549.892 160.908C549.892 159.868 550.048 159.764 550.152 159.764H551.972C554.598 159.764 556.08 159.4 557.9 158.36L561.852 156.046C561.306 154.148 560.448 153.55 558.576 153.55H552.492ZM567.229 159.764C568.477 159.764 569.075 159.218 569.075 158.1V157.034C569.075 153.706 570.947 151.678 574.041 151.678C577.135 151.678 578.851 153.524 578.851 156.93C578.851 160.154 577.005 162 573.963 162C572.143 162 570.921 161.428 570.323 160.388C569.751 161.506 568.841 162 567.229 162H566.631C566.527 162 566.371 161.922 566.371 160.908C566.371 159.868 566.527 159.764 566.631 159.764H567.229ZM576.693 156.93C576.693 154.902 575.809 153.862 573.963 153.862C572.117 153.862 571.233 154.902 571.233 157.034C571.233 158.724 572.221 159.764 573.963 159.764C575.757 159.764 576.693 158.854 576.693 156.93ZM589.201 157.71C589.201 155.786 590.111 154.018 592.841 151.314L591.697 150.144L593.231 148.506C598.379 153.342 599.445 155.084 599.445 157.45C599.445 160.232 597.287 162.26 594.115 162.26C591.151 162.26 589.201 160.414 589.201 157.71ZM597.287 157.45C597.287 156.02 596.611 154.824 594.323 152.692C592.113 154.824 591.359 156.15 591.359 157.58C591.359 158.984 592.425 160.024 594.193 160.024C595.987 160.024 597.287 158.932 597.287 157.45ZM607.252 144.892V146.946H604.886V144.892H607.252ZM609.488 148.454V150.508H602.624V148.454H609.488ZM605.172 161.246V153.628H607.33V161.246C607.33 165.64 604.548 168.344 600.518 168.344H598.698L598.49 166.108H600.466C603.404 166.108 605.172 164.314 605.172 161.246ZM621.4 161.168C621.4 165.614 618.748 168.344 614.64 168.344H611.442L611.234 166.108H614.666C617.448 166.108 619.216 164.522 619.242 162H616.642C613.028 162 611.598 160.544 611.598 157.45C611.598 154.174 613.626 151.938 616.538 151.938C619.554 151.938 621.4 154.096 621.4 157.58V161.168ZM613.756 157.32C613.756 159.088 614.51 159.764 616.772 159.764H619.242V157.736C619.242 155.344 618.254 154.122 616.408 154.122C614.796 154.122 613.756 155.422 613.756 157.32ZM623.368 166.108C626.306 166.108 628.074 164.314 628.074 161.246V153.628H630.232V157.762C630.232 159.036 630.986 159.764 632.416 159.764H632.754C632.858 159.764 633.014 159.894 633.014 160.908C633.014 161.922 632.858 162 632.754 162H632.416C631.48 162 630.596 161.636 630.232 161.116V161.428C630.154 165.64 627.45 168.344 623.42 168.344H622.692L622.484 166.108H623.368ZM641.094 153.628H643.278V157.866C643.278 160.466 641.562 162 639.014 162H632.748C632.644 162 632.488 161.922 632.488 160.908C632.488 159.868 632.644 159.764 632.748 159.764H639.014C640.236 159.764 641.094 159.088 641.094 157.84V153.628ZM639.872 165.276V167.356H633.008V165.276H639.872ZM635.296 170.892V168.864H637.558V170.892H635.296ZM675.691 144.892V146.946H673.325V144.892H675.691ZM671.063 150.508V148.454H677.927V150.508H671.063ZM684.999 159.764C685.103 159.764 685.259 159.868 685.259 160.908C685.259 161.922 685.103 162 684.999 162H684.219C682.581 162 681.489 161.506 680.995 160.466C680.371 161.506 679.279 162 677.771 162C675.977 162 674.885 161.428 674.417 160.388C673.767 161.428 672.623 162 670.985 162C669.789 162 669.035 161.688 668.671 161.246V161.558C668.593 165.562 665.733 168.344 661.599 168.344H660.455C656.061 168.344 653.643 165.666 653.643 161.142V156.228H655.801V161.09C655.801 164.366 657.413 166.108 660.507 166.108H661.599C664.562 166.108 666.513 164.262 666.513 161.298V153.628H668.671V157.762C668.671 158.958 669.399 159.764 670.985 159.764C672.571 159.764 673.429 158.958 673.429 157.71V153.628H675.587V157.71C675.587 159.01 676.315 159.764 677.771 159.764C679.227 159.764 680.033 158.958 680.033 157.71V153.628H682.191V157.71C682.191 159.088 682.919 159.764 684.219 159.764H684.999ZM698.574 144.892V146.946H696.208V144.892H698.574ZM693.946 150.508V148.454H700.81V150.508H693.946ZM707.934 159.764C708.064 159.764 708.22 159.868 708.22 160.908C708.22 161.922 708.064 162 707.934 162H707.18C705.542 162 704.45 161.506 703.956 160.466C703.332 161.506 702.24 162 700.732 162C698.938 162 697.846 161.428 697.352 160.388C696.728 161.428 695.584 162 693.946 162C692.022 162 690.93 161.428 690.436 160.388C689.812 161.428 688.668 162 687.03 162H685.002C684.898 162 684.742 161.922 684.742 160.908C684.742 159.868 684.898 159.764 685.002 159.764H687.03C688.59 159.764 689.448 158.958 689.448 157.71V153.628H691.632V157.71C691.632 159.01 692.36 159.764 693.946 159.764C695.506 159.764 696.364 158.958 696.364 157.71V153.628H698.522V157.71C698.522 159.01 699.276 159.764 700.732 159.764C702.188 159.764 702.968 158.958 702.968 157.71V153.628H705.126V157.71C705.126 159.088 705.854 159.764 707.18 159.764H707.934ZM716.327 148.246H713.571V146.088H716.327V148.246ZM710.295 153.55L710.581 151.288H716.743C719.837 151.288 721.189 152.666 722.177 156.774L720.123 158.022C720.669 159.348 721.371 159.764 722.723 159.764H724.439C724.543 159.764 724.699 159.894 724.699 160.908C724.699 161.974 724.543 162 724.439 162H722.645C720.591 162 719.525 161.298 718.511 159.036L716.717 160.154C714.507 161.532 712.765 162 709.697 162H707.955C707.851 162 707.695 161.922 707.695 160.908C707.695 159.868 707.851 159.764 707.955 159.764H709.775C712.401 159.764 713.883 159.4 715.703 158.36L719.655 156.046C719.109 154.148 718.251 153.55 716.379 153.55H710.295ZM731.402 157.866C731.402 160.466 729.686 162 727.138 162H724.434C724.33 162 724.174 161.922 724.174 160.908C724.174 159.868 724.33 159.764 724.434 159.764H727.138C728.36 159.764 729.244 159.088 729.244 157.84V153.628H731.402V157.866ZM727.892 167.46H725.136V165.276H727.892V167.46ZM746.35 162C743.23 162 741.748 160.206 741.748 157.502V153.628H743.906V157.216C743.906 158.776 744.66 159.764 746.48 159.764H755.814C757.348 159.764 758.206 159.114 758.206 158.126C758.206 157.424 757.894 156.8 757.14 156.02L751.056 149.962V148.09L760.52 144.32L761.17 146.4L753.578 149.39L758.726 154.564C763.536 159.374 764.186 159.764 765.746 159.764C765.85 159.764 766.006 159.868 766.006 160.908C766.006 161.922 765.85 162 765.746 162C763.64 162 762.808 161.61 760.104 158.906C759.948 160.674 758.414 162 755.814 162H746.35ZM770.554 153.628H772.712V157.866C772.712 160.466 770.996 162 768.448 162H765.744C765.64 162 765.484 161.922 765.484 160.908C765.484 159.868 765.64 159.764 765.744 159.764H768.448C769.67 159.764 770.554 159.088 770.554 157.84V153.628ZM771.256 165.276V167.356H764.392V165.276H771.256ZM791.431 152.848H788.675V150.69H791.431V152.848ZM798.087 157.918C798.087 159.036 798.815 159.764 800.115 159.764H800.609C800.713 159.764 800.869 159.868 800.869 160.908C800.869 161.922 800.713 162 800.609 162H800.193C799.283 162 798.451 161.688 798.087 161.246V161.558C798.009 165.562 795.149 168.344 791.015 168.344H789.871C785.477 168.344 783.059 165.666 783.059 161.142V156.228H785.217V161.09C785.217 164.366 786.829 166.108 789.923 166.108H791.015C793.979 166.108 795.929 164.262 795.929 161.298V153.628H798.087V157.918ZM812.695 159.764C812.799 159.764 812.955 159.868 812.955 160.882C812.955 161.922 812.799 162 812.695 162H811.889C810.355 162 809.263 161.506 808.769 160.466C808.145 161.506 807.001 162 805.519 162H800.605C800.501 162 800.345 161.922 800.345 160.908C800.345 159.868 800.501 159.764 800.605 159.764H805.519C806.845 159.764 807.729 159.036 807.729 157.84V153.628H809.887V157.788C809.887 159.088 810.615 159.764 811.967 159.764H812.695ZM807.157 165.276V167.356H800.293V165.276H807.157ZM819.997 150.508H817.241V148.35H819.997V150.508ZM815.811 159.764C817.137 159.764 818.021 159.036 818.021 157.84V153.628H820.179V157.788C820.179 159.088 820.907 159.764 822.259 159.764H822.987C823.091 159.764 823.247 159.868 823.247 160.882C823.247 161.922 823.091 162 822.987 162H822.181C820.647 162 819.555 161.506 819.061 160.466C818.437 161.506 817.293 162 815.811 162H812.691C812.587 162 812.431 161.922 812.431 160.908C812.431 159.868 812.587 159.764 812.691 159.764H815.811ZM839.484 159.764C839.588 159.764 839.744 159.894 839.744 160.908C839.744 161.974 839.588 162 839.484 162H837.69C835.636 162 834.57 161.298 833.556 159.036L831.762 160.154C829.552 161.532 827.81 162 824.742 162H823C822.896 162 822.74 161.922 822.74 160.908C822.74 159.868 822.896 159.764 823 159.764H824.82C827.446 159.764 828.928 159.4 830.748 158.36L834.7 156.046C834.154 154.148 833.296 153.55 831.424 153.55H825.34L825.626 151.288H831.788C834.882 151.288 836.234 152.666 837.222 156.774L835.168 158.022C835.714 159.348 836.416 159.764 837.768 159.764H839.484ZM832.62 165.276V167.356H825.756V165.276H832.62ZM828.044 170.892V168.864H830.332V170.892H828.044ZM840.077 159.764C841.325 159.764 841.923 159.218 841.923 158.1V157.034C841.923 153.706 843.795 151.678 846.889 151.678C849.983 151.678 851.699 153.524 851.699 156.93V157.658C851.699 159.166 852.323 159.764 853.493 159.764H854.143C854.247 159.764 854.403 159.868 854.403 160.908C854.403 161.922 854.247 162 854.143 162H853.493C852.011 162 851.023 161.506 850.555 160.336C849.827 161.454 848.397 162 846.811 162C844.991 162 843.769 161.428 843.171 160.388C842.599 161.506 841.689 162 840.077 162H839.479C839.375 162 839.219 161.922 839.219 160.908C839.219 159.868 839.375 159.764 839.479 159.764H840.077ZM849.541 156.93C849.541 154.902 848.657 153.862 846.811 153.862C844.965 153.862 844.081 154.902 844.081 157.034C844.081 158.724 845.069 159.764 846.811 159.764C848.605 159.764 849.541 158.854 849.541 156.93ZM858.236 159.764C857.144 159.01 856.416 157.58 856.416 156.228C856.416 153.394 858.574 151.288 861.46 151.288C864.164 151.288 866.244 153.342 866.244 156.02C866.244 157.528 865.464 158.906 864.086 159.764H867.934C869.468 159.764 870.248 159.114 870.248 158.126C870.248 157.502 870.014 156.878 869.104 155.942L863.826 150.404L865.386 148.818L870.768 154.564C871.938 155.812 872.406 156.982 872.406 158.152C872.406 160.466 870.742 162 867.934 162H864.996C862.786 162 861.954 161.922 861.304 161.584C860.654 161.922 859.614 162 857.508 162H854.154C854.05 162 853.894 161.922 853.894 160.908C853.894 159.868 854.05 159.764 854.154 159.764H858.236ZM861.2 159.712C863.124 158.906 864.164 157.658 864.164 156.228C864.164 154.59 862.994 153.472 861.33 153.472C859.666 153.472 858.496 154.59 858.496 156.228C858.496 157.71 859.432 158.906 861.2 159.712ZM892.674 161.168C892.674 165.614 890.022 168.344 885.914 168.344H882.716L882.508 166.108H885.94C888.722 166.108 890.49 164.522 890.516 162H887.916C884.302 162 882.872 160.544 882.872 157.45C882.872 154.174 884.9 151.938 887.812 151.938C890.828 151.938 892.674 154.096 892.674 157.58V161.168ZM885.03 157.32C885.03 159.088 885.784 159.764 888.046 159.764H890.516V157.736C890.516 155.344 889.528 154.122 887.682 154.122C886.07 154.122 885.03 155.422 885.03 157.32ZM906.383 150.43L907.917 148.896L912.909 154.642C914.079 155.968 914.469 157.06 914.469 158.152C914.469 160.388 912.883 162 909.919 162H902.509L902.301 159.764H909.919C911.453 159.764 912.311 159.114 912.311 158.126C912.311 157.502 911.999 156.904 911.245 156.02L906.383 150.43ZM930.969 159.764C931.099 159.764 931.229 159.868 931.229 160.908C931.229 161.922 931.099 162 930.969 162H928.473C928.161 165.978 925.613 168.344 921.765 168.344H918.567L918.359 166.108H921.791C924.573 166.108 926.341 164.522 926.367 162H923.767C920.153 162 918.723 160.544 918.723 157.45C918.723 154.174 920.751 151.938 923.663 151.938C926.679 151.938 928.525 154.096 928.525 157.58V159.764H930.969ZM920.881 157.32C920.881 159.088 921.635 159.764 923.897 159.764H926.367V157.736C926.367 155.344 925.379 154.122 923.533 154.122C921.921 154.122 920.881 155.422 920.881 157.32ZM937.929 157.866C937.929 160.466 936.213 162 933.665 162H930.961C930.857 162 930.701 161.922 930.701 160.908C930.701 159.868 930.857 159.764 930.961 159.764H933.665C934.887 159.764 935.771 159.088 935.771 157.84V153.628H937.929V157.866ZM934.419 167.46H931.663V165.276H934.419V167.46ZM542.718 202C541.782 202 541.314 201.584 541.314 200.44C541.314 199.348 541.782 198.958 542.718 198.958C543.68 198.958 544.148 199.348 544.148 200.44C544.148 201.584 543.68 202 542.718 202ZM553.939 196.15C553.939 195.11 554.199 194.304 554.823 193.732H553.653C551.625 193.732 550.455 194.85 550.455 196.748V208.344H548.297V196.748C548.297 193.602 550.429 191.548 553.783 191.548H559.113C562.077 191.548 563.559 193.134 563.559 195.76V197.554C563.559 200.414 561.869 202 558.697 202C555.525 202 553.939 200.362 553.939 197.762V196.15ZM558.775 199.764C560.413 199.764 561.401 199.114 561.401 197.528V195.968C561.401 194.59 560.543 193.732 559.113 193.732H558.281C556.825 193.732 556.097 194.668 556.097 196.02V197.346C556.097 199.062 557.007 199.764 558.775 199.764ZM573.31 199.764C574.532 199.764 575.338 199.166 575.338 198.36C575.338 197.606 574.844 196.306 572.452 189.858L574.454 188.948L577.496 197.58C578.042 199.14 578.614 199.764 579.862 199.764H580.408C580.538 199.764 580.668 199.894 580.668 200.908C580.668 201.974 580.538 202 580.408 202H579.784C578.224 202 577.184 201.506 576.586 200.362C575.936 201.506 574.896 202 573.31 202H567.226L567.018 199.764H573.31ZM590.714 199.764C590.818 199.764 590.974 199.868 590.974 200.882C590.974 201.922 590.818 202 590.714 202H589.908C588.374 202 587.282 201.506 586.788 200.466C586.164 201.506 585.02 202 583.538 202H580.418C580.314 202 580.158 201.922 580.158 200.908C580.158 199.868 580.314 199.764 580.418 199.764H583.538C584.864 199.764 585.748 199.036 585.748 197.84V193.628H587.906V197.788C587.906 199.088 588.634 199.764 589.986 199.764H590.714ZM585.774 205.276V207.356H578.91V205.276H585.774ZM591.325 199.764C592.573 199.764 593.171 199.218 593.171 198.1V197.034C593.171 193.706 595.043 191.678 598.137 191.678C601.231 191.678 602.947 193.524 602.947 196.93C602.947 200.154 601.101 202 598.059 202C596.239 202 595.017 201.428 594.419 200.388C593.847 201.506 592.937 202 591.325 202H590.727C590.623 202 590.467 201.922 590.467 200.908C590.467 199.868 590.623 199.764 590.727 199.764H591.325ZM600.789 196.93C600.789 194.902 599.905 193.862 598.059 193.862C596.213 193.862 595.329 194.902 595.329 197.034C595.329 198.724 596.317 199.764 598.059 199.764C599.853 199.764 600.789 198.854 600.789 196.93ZM616.651 190.43L618.185 188.896L623.177 194.642C624.347 195.968 624.737 197.06 624.737 198.152C624.737 200.388 623.151 202 620.187 202H612.777L612.569 199.764H620.187C621.721 199.764 622.579 199.114 622.579 198.126C622.579 197.502 622.267 196.904 621.513 196.02L616.651 190.43ZM633.853 199.764C633.983 199.764 634.113 199.868 634.113 200.908C634.113 201.922 633.983 202 633.853 202H633.177C630.499 202 629.147 200.31 629.147 197.45V185.178H631.305V197.346C631.305 198.958 631.955 199.764 633.281 199.764H633.853ZM649.777 199.764C649.881 199.764 650.037 199.868 650.037 200.908C650.037 201.922 649.881 202 649.777 202C647.515 202 646.605 202.442 645.617 204.314L643.485 208.24H642.289C638.571 208.24 636.309 206.134 636.309 202.312V202H633.865C633.761 202 633.605 201.922 633.605 200.908C633.605 199.868 633.761 199.764 633.865 199.764H636.309V196.982C636.309 193.524 638.155 191.366 641.145 191.366C644.005 191.366 645.799 193.134 645.799 195.968C645.799 199.348 642.757 201.844 638.467 201.922V202.234C638.467 204.86 639.741 206.082 642.289 206.082L643.875 203.17C645.383 200.44 646.631 199.764 649.777 199.764ZM643.641 196.098C643.641 194.46 642.705 193.55 641.119 193.55C639.403 193.55 638.467 194.772 638.467 196.982V199.764C641.665 199.764 643.641 198.36 643.641 196.098ZM657.091 190.508H654.335V188.35H657.091V190.508ZM652.905 199.764C654.231 199.764 655.115 199.036 655.115 197.84V193.628H657.273V197.788C657.273 199.088 658.001 199.764 659.353 199.764H660.081C660.185 199.764 660.341 199.868 660.341 200.882C660.341 201.922 660.185 202 660.081 202H659.275C657.741 202 656.649 201.506 656.155 200.466C655.531 201.506 654.387 202 652.905 202H649.785C649.681 202 649.525 201.922 649.525 200.908C649.525 199.868 649.681 199.764 649.785 199.764H652.905ZM673.666 184.892V186.946H671.3V184.892H673.666ZM669.038 190.508V188.454H675.902V190.508H669.038ZM683.026 199.764C683.156 199.764 683.312 199.868 683.312 200.908C683.312 201.922 683.156 202 683.026 202H682.272C680.634 202 679.542 201.506 679.048 200.466C678.424 201.506 677.332 202 675.824 202C674.03 202 672.938 201.428 672.444 200.388C671.82 201.428 670.676 202 669.038 202C667.114 202 666.022 201.428 665.528 200.388C664.904 201.428 663.76 202 662.122 202H660.094C659.99 202 659.834 201.922 659.834 200.908C659.834 199.868 659.99 199.764 660.094 199.764H662.122C663.682 199.764 664.54 198.958 664.54 197.71V193.628H666.724V197.71C666.724 199.01 667.452 199.764 669.038 199.764C670.598 199.764 671.456 198.958 671.456 197.71V193.628H673.614V197.71C673.614 199.01 674.368 199.764 675.824 199.764C677.28 199.764 678.06 198.958 678.06 197.71V193.628H680.218V197.71C680.218 199.088 680.946 199.764 682.272 199.764H683.026ZM695.137 199.764C695.241 199.764 695.397 199.868 695.397 200.882C695.397 201.922 695.241 202 695.137 202H694.331C692.797 202 691.705 201.506 691.211 200.466C690.587 201.506 689.443 202 687.961 202H683.047C682.943 202 682.787 201.922 682.787 200.908C682.787 199.868 682.943 199.764 683.047 199.764H687.961C689.287 199.764 690.171 199.036 690.171 197.84V193.628H692.329V197.788C692.329 199.088 693.057 199.764 694.409 199.764H695.137ZM689.599 205.276V207.356H682.735V205.276H689.599ZM699.943 193.628H702.101V197.866C702.101 200.466 700.385 202 697.837 202H695.133C695.029 202 694.873 201.922 694.873 200.908C694.873 199.868 695.029 199.764 695.133 199.764H697.837C699.059 199.764 699.943 199.088 699.943 197.84V193.628ZM700.645 205.276V207.356H693.781V205.276H700.645ZM696.069 210.892V208.864H698.357V210.892H696.069ZM722.353 201.168C722.353 205.614 719.701 208.344 715.593 208.344H712.395L712.187 206.108H715.619C718.401 206.108 720.169 204.522 720.195 202H717.595C713.981 202 712.551 200.544 712.551 197.45C712.551 194.174 714.579 191.938 717.491 191.938C720.507 191.938 722.353 194.096 722.353 197.58V201.168ZM714.709 197.32C714.709 199.088 715.463 199.764 717.725 199.764H720.195V197.736C720.195 195.344 719.207 194.122 717.361 194.122C715.749 194.122 714.709 195.422 714.709 197.32ZM731.185 201.246C731.185 205.64 728.403 208.344 724.373 208.344H723.645L723.437 206.108H724.321C727.259 206.108 729.027 204.314 729.027 201.246V193.628H731.185V201.246ZM747.161 191.444V189.39H754.025V191.444H747.161ZM762.501 199.764C762.605 199.764 762.761 199.868 762.761 200.908C762.761 201.922 762.605 202 762.501 202H761.721C760.187 202 759.095 201.506 758.601 200.466C757.977 201.506 756.833 202 755.325 202H746.147C743.027 202 741.545 200.206 741.545 197.502V193.628H743.703V197.216C743.703 198.776 744.457 199.764 746.277 199.764H755.325C756.677 199.764 757.535 199.036 757.535 197.866V193.628H759.693V197.788C759.693 199.088 760.421 199.764 761.799 199.764H762.501ZM767.304 193.628H769.462V197.866C769.462 200.466 767.746 202 765.198 202H762.494C762.39 202 762.234 201.922 762.234 200.908C762.234 199.868 762.39 199.764 762.494 199.764H765.198C766.42 199.764 767.304 199.088 767.304 197.84V193.628ZM768.006 205.276V207.356H761.142V205.276H768.006ZM778.579 199.764C778.709 199.764 778.839 199.868 778.839 200.908C778.839 201.922 778.709 202 778.579 202H777.903C775.225 202 773.873 200.31 773.873 197.45V185.178H776.031V197.346C776.031 198.958 776.681 199.764 778.007 199.764H778.579ZM780.62 199.764C782.18 199.764 783.038 198.958 783.038 197.71V193.628H785.222V197.71C785.222 199.01 785.95 199.764 787.536 199.764C789.096 199.764 789.954 198.958 789.954 197.71V193.628H792.112V197.71C792.112 199.01 792.866 199.764 794.322 199.764C795.778 199.764 796.558 199.01 796.558 197.71V193.628H798.716V197.658C798.716 200.388 797 202 794.322 202C792.528 202 791.436 201.428 790.942 200.388C790.318 201.428 789.174 202 787.536 202C785.612 202 784.52 201.428 784.026 200.388C783.402 201.428 782.258 202 780.62 202H778.592C778.488 202 778.332 201.922 778.332 200.908C778.332 199.868 778.488 199.764 778.592 199.764H780.62ZM817.481 192.848H814.725V190.69H817.481V192.848ZM824.137 197.918C824.137 199.036 824.865 199.764 826.165 199.764H826.659C826.763 199.764 826.919 199.868 826.919 200.908C826.919 201.922 826.763 202 826.659 202H826.243C825.333 202 824.501 201.688 824.137 201.246V201.558C824.059 205.562 821.199 208.344 817.065 208.344H815.921C811.527 208.344 809.109 205.666 809.109 201.142V196.228H811.267V201.09C811.267 204.366 812.879 206.108 815.973 206.108H817.065C820.029 206.108 821.979 204.262 821.979 201.298V193.628H824.137V197.918ZM835.002 193.628H837.186V197.866C837.186 200.466 835.47 202 832.922 202H826.656C826.552 202 826.396 201.922 826.396 200.908C826.396 199.868 826.552 199.764 826.656 199.764H832.922C834.144 199.764 835.002 199.088 835.002 197.84V193.628ZM833.78 205.276V207.356H826.916V205.276H833.78ZM841.615 202V185.178H843.773V202H841.615ZM859.372 199.764C859.502 199.764 859.632 199.868 859.632 200.908C859.632 201.922 859.502 202 859.372 202H858.696C856.018 202 854.666 200.31 854.666 197.45V185.178H856.824V197.346C856.824 198.958 857.474 199.764 858.8 199.764H859.372ZM859.983 199.764C861.231 199.764 861.829 199.218 861.829 198.1V197.034C861.829 193.706 863.701 191.678 866.795 191.678C869.889 191.678 871.605 193.524 871.605 196.93V197.658C871.605 199.166 872.229 199.764 873.399 199.764H874.049C874.153 199.764 874.309 199.868 874.309 200.908C874.309 201.922 874.153 202 874.049 202H873.399C871.917 202 870.929 201.506 870.461 200.336C869.733 201.454 868.303 202 866.717 202C864.897 202 863.675 201.428 863.077 200.388C862.505 201.506 861.595 202 859.983 202H859.385C859.281 202 859.125 201.922 859.125 200.908C859.125 199.868 859.281 199.764 859.385 199.764H859.983ZM869.447 196.93C869.447 194.902 868.563 193.862 866.717 193.862C864.871 193.862 863.987 194.902 863.987 197.034C863.987 198.724 864.975 199.764 866.717 199.764C868.511 199.764 869.447 198.854 869.447 196.93ZM875.231 190.508V188.454H882.095V190.508H875.231ZM884.357 199.764C884.461 199.764 884.617 199.868 884.617 200.882C884.617 201.922 884.461 202 884.357 202H883.551C882.017 202 880.925 201.506 880.431 200.466C879.807 201.506 878.663 202 877.181 202H874.061C873.957 202 873.801 201.922 873.801 200.908C873.801 199.868 873.957 199.764 874.061 199.764H877.181C878.507 199.764 879.391 199.036 879.391 197.84V193.628H881.549V197.788C881.549 199.088 882.277 199.764 883.629 199.764H884.357ZM886.189 199.764C888.815 199.764 890.297 199.4 892.117 198.36L896.069 196.046C895.523 194.148 894.665 193.55 892.793 193.55H886.709L886.995 191.288H893.157C896.251 191.288 897.603 192.666 898.591 196.774L893.131 200.154C890.921 201.532 889.179 202 886.111 202H884.369C884.265 202 884.109 201.922 884.109 200.908C884.109 199.868 884.265 199.764 884.369 199.764H886.189ZM916.53 192.848H913.774V190.69H916.53V192.848ZM923.186 197.918C923.186 199.036 923.914 199.764 925.214 199.764H925.708C925.812 199.764 925.968 199.868 925.968 200.908C925.968 201.922 925.812 202 925.708 202H925.292C924.382 202 923.55 201.688 923.186 201.246V201.558C923.108 205.562 920.248 208.344 916.114 208.344H914.97C910.576 208.344 908.158 205.666 908.158 201.142V196.228H910.316V201.09C910.316 204.366 911.928 206.108 915.022 206.108H916.114C919.078 206.108 921.028 204.262 921.028 201.298V193.628H923.186V197.918ZM926.303 199.764C927.551 199.764 928.149 199.218 928.149 198.1V197.034C928.149 193.706 930.021 191.678 933.115 191.678C936.209 191.678 937.925 193.524 937.925 196.93C937.925 200.154 936.079 202 933.037 202C931.217 202 929.995 201.428 929.397 200.388C928.825 201.506 927.915 202 926.303 202H925.705C925.601 202 925.445 201.922 925.445 200.908C925.445 199.868 925.601 199.764 925.705 199.764H926.303ZM935.767 196.93C935.767 194.902 934.883 193.862 933.037 193.862C931.191 193.862 930.307 194.902 930.307 197.034C930.307 198.724 931.295 199.764 933.037 199.764C934.831 199.764 935.767 198.854 935.767 196.93Z" fill="black"/>
</svg>
