<svg width="1378" height="312" viewBox="0 0 1378 312" fill="none" xmlns="http://www.w3.org/2000/svg">
<rect x="0.5" y="0.499756" width="1377" height="311" rx="75.5" stroke="black"/>
<path d="M1307.36 123.112C1308.09 124.908 1306.09 126.584 1304.45 125.557L1293.4 118.652C1292.66 118.193 1291.71 118.259 1291.05 118.816L1281.07 127.192C1279.58 128.437 1277.37 127.056 1277.84 125.176L1280.99 112.533C1281.2 111.692 1280.85 110.812 1280.11 110.353L1269.06 103.448C1267.42 102.422 1268.05 99.8923 1269.98 99.7571L1282.98 98.8482C1283.85 98.7878 1284.57 98.1776 1284.78 97.3369L1287.94 84.6942C1288.4 82.8143 1291 82.6324 1291.73 84.4288L1296.61 96.5098C1296.94 97.3132 1297.74 97.8162 1298.61 97.7557L1311.6 96.8468C1313.54 96.7117 1314.51 99.1287 1313.03 100.374L1303.05 108.749C1302.38 109.306 1302.15 110.227 1302.48 111.031L1307.36 123.112Z" fill="#FFE710"/>
<path d="M1307.36 74.0727C1308.09 75.8691 1306.09 77.5447 1304.45 76.518L1293.4 69.6133C1292.66 69.1541 1291.71 69.2203 1291.05 69.7773L1281.07 78.1527C1279.58 79.398 1277.37 78.0166 1277.84 76.1368L1280.99 63.494C1281.2 62.6533 1280.85 61.7732 1280.11 61.314L1269.06 54.4093C1267.42 53.3826 1268.05 50.8532 1269.98 50.7181L1282.98 49.8091C1283.85 49.7487 1284.57 49.1386 1284.78 48.2979L1287.94 35.6551C1288.4 33.7752 1291 33.5933 1291.73 35.3897L1296.61 47.4707C1296.94 48.2741 1297.74 48.7771 1298.61 48.7167L1311.6 47.8077C1313.54 47.6726 1314.51 50.0896 1313.03 51.335L1303.05 59.7104C1302.38 60.2673 1302.15 61.1883 1302.48 61.9917L1307.36 74.0727Z" fill="#FFE710"/>
<path d="M1307.36 172.151C1308.09 173.947 1306.09 175.623 1304.45 174.596L1293.4 167.691C1292.66 167.232 1291.71 167.298 1291.05 167.855L1281.07 176.231C1279.58 177.476 1277.37 176.095 1277.84 174.215L1280.99 161.572C1281.2 160.731 1280.85 159.851 1280.11 159.392L1269.06 152.487C1267.42 151.461 1268.05 148.931 1269.98 148.796L1282.98 147.887C1283.85 147.827 1284.57 147.217 1284.78 146.376L1287.94 133.733C1288.4 131.853 1291 131.671 1291.73 133.468L1296.61 145.549C1296.94 146.352 1297.74 146.855 1298.61 146.795L1311.6 145.886C1313.54 145.751 1314.51 148.168 1313.03 149.413L1303.05 157.788C1302.38 158.345 1302.15 159.266 1302.48 160.07L1307.36 172.151Z" fill="#FFE710"/>
<path d="M1307.36 221.19C1308.09 222.986 1306.09 224.662 1304.45 223.635L1293.4 216.73C1292.66 216.271 1291.71 216.338 1291.05 216.894L1281.07 225.27C1279.58 226.515 1277.37 225.134 1277.84 223.254L1280.99 210.611C1281.2 209.77 1280.85 208.89 1280.11 208.431L1269.06 201.526C1267.42 200.5 1268.05 197.97 1269.98 197.835L1282.98 196.926C1283.85 196.866 1284.57 196.256 1284.78 195.415L1287.94 182.772C1288.4 180.892 1291 180.711 1291.73 182.507L1296.61 194.588C1296.94 195.391 1297.74 195.894 1298.61 195.834L1311.6 194.925C1313.54 194.79 1314.51 197.207 1313.03 198.452L1303.05 206.828C1302.38 207.385 1302.15 208.306 1302.48 209.109L1307.36 221.19Z" fill="#FFE710"/>
<path d="M1307.36 270.229C1308.09 272.025 1306.09 273.701 1304.45 272.674L1293.4 265.77C1292.66 265.31 1291.71 265.377 1291.05 265.934L1281.07 274.309C1279.58 275.554 1277.37 274.173 1277.84 272.293L1280.99 259.65C1281.2 258.81 1280.85 257.929 1280.11 257.47L1269.06 250.566C1267.42 249.539 1268.05 247.009 1269.98 246.874L1282.98 245.965C1283.85 245.905 1284.57 245.295 1284.78 244.454L1287.94 231.811C1288.4 229.931 1291 229.75 1291.73 231.546L1296.61 243.627C1296.94 244.43 1297.74 244.933 1298.61 244.873L1311.6 243.964C1313.54 243.829 1314.51 246.246 1313.03 247.491L1303.05 255.867C1302.38 256.424 1302.15 257.345 1302.48 258.148L1307.36 270.229Z" fill="#FFE710"/>
<circle cx="1140" cy="118" r="62" fill="#D9D9D9"/>
<path d="M1039.76 202.928L1039.98 200.936H1049.7C1049.79 200.936 1049.94 201.032 1049.94 201.992C1049.94 202.928 1049.79 203 1049.7 203H1047.2C1047.44 203.24 1047.56 203.672 1047.56 204.128C1047.56 206.912 1045.02 208.856 1041.06 208.856H1039.21C1035.15 208.856 1032.92 206.384 1032.92 202.208V197.672H1034.91V202.16C1034.91 205.184 1036.4 206.792 1039.26 206.792H1041.06C1044.03 206.792 1045.57 205.784 1045.57 204.176C1045.57 203.312 1045.16 202.928 1044.22 202.928H1039.76ZM1050.26 200.936C1051.41 200.936 1051.96 200.432 1051.96 199.4V198.416C1051.96 195.344 1053.69 193.472 1056.54 193.472C1059.4 193.472 1060.98 195.176 1060.98 198.32V198.992C1060.98 200.384 1061.56 200.936 1062.64 200.936H1063.24C1063.34 200.936 1063.48 201.032 1063.48 201.992C1063.48 202.928 1063.34 203 1063.24 203H1062.64C1061.27 203 1060.36 202.544 1059.93 201.464C1059.26 202.496 1057.94 203 1056.47 203C1054.79 203 1053.66 202.472 1053.11 201.512C1052.58 202.544 1051.74 203 1050.26 203H1049.7C1049.61 203 1049.46 202.928 1049.46 201.992C1049.46 201.032 1049.61 200.936 1049.7 200.936H1050.26ZM1058.99 198.32C1058.99 196.448 1058.18 195.488 1056.47 195.488C1054.77 195.488 1053.95 196.448 1053.95 198.416C1053.95 199.976 1054.86 200.936 1056.47 200.936C1058.13 200.936 1058.99 200.096 1058.99 198.32ZM1075.78 187.208V189.104H1073.59V187.208H1075.78ZM1071.51 192.392V190.496H1077.84V192.392H1071.51ZM1079.83 195.272H1081.83V198.992C1081.83 201.512 1080.24 203 1077.77 203C1076.11 203 1075.11 202.472 1074.65 201.512C1074.07 202.472 1073.02 203 1071.51 203C1069.73 203 1068.72 202.472 1068.27 201.512C1067.69 202.472 1066.63 203 1065.12 203H1063.25C1063.15 203 1063.01 202.928 1063.01 201.992C1063.01 201.032 1063.15 200.936 1063.25 200.936H1065.12C1066.56 200.936 1067.35 200.192 1067.35 199.04V195.272H1069.37V199.04C1069.37 200.24 1070.04 200.936 1071.51 200.936C1072.95 200.936 1073.74 200.192 1073.74 199.04V195.272H1075.73V199.04C1075.73 200.24 1076.43 200.936 1077.77 200.936C1079.11 200.936 1079.83 200.24 1079.83 199.04V195.272ZM1090.29 200.936C1090.41 200.936 1090.53 201.032 1090.53 201.992C1090.53 202.928 1090.41 203 1090.29 203H1089.66C1087.19 203 1085.94 201.44 1085.94 198.8V187.472H1087.93V198.704C1087.93 200.192 1088.53 200.936 1089.76 200.936H1090.29ZM1094.06 200.936C1093.06 200.24 1092.38 198.92 1092.38 197.672C1092.38 195.056 1094.38 193.112 1097.04 193.112C1099.54 193.112 1101.46 195.008 1101.46 197.48C1101.46 198.872 1100.74 200.144 1099.46 200.936H1103.02C1104.43 200.936 1105.15 200.336 1105.15 199.424C1105.15 198.848 1104.94 198.272 1104.1 197.408L1099.22 192.296L1100.66 190.832L1105.63 196.136C1106.71 197.288 1107.14 198.368 1107.14 199.448C1107.14 201.584 1105.61 203 1103.02 203H1100.3C1098.26 203 1097.5 202.928 1096.9 202.616C1096.3 202.928 1095.34 203 1093.39 203H1090.3C1090.2 203 1090.06 202.928 1090.06 201.992C1090.06 201.032 1090.2 200.936 1090.3 200.936H1094.06ZM1096.8 200.888C1098.58 200.144 1099.54 198.992 1099.54 197.672C1099.54 196.16 1098.46 195.128 1096.92 195.128C1095.38 195.128 1094.3 196.16 1094.3 197.672C1094.3 199.04 1095.17 200.144 1096.8 200.888ZM1114.44 199.088C1114.44 200.264 1115.13 200.936 1116.45 200.936H1116.76C1116.86 200.936 1117 201.056 1117 201.992C1117 202.928 1116.86 203 1116.76 203H1116.45C1115.59 203 1114.77 202.664 1114.44 202.184V202.472C1114.36 206.36 1111.87 208.856 1108.15 208.856H1106.47L1106.28 206.792H1108.1C1110.81 206.792 1112.44 205.136 1112.44 202.304V195.272H1114.44V199.088ZM1127.92 200.936C1128.01 200.936 1128.16 201.032 1128.16 201.968C1128.16 202.928 1128.01 203 1127.92 203H1127.17C1125.76 203 1124.75 202.544 1124.29 201.584C1123.72 202.544 1122.66 203 1121.29 203H1116.76C1116.66 203 1116.52 202.928 1116.52 201.992C1116.52 201.032 1116.66 200.936 1116.76 200.936H1121.29C1122.52 200.936 1123.33 200.264 1123.33 199.16V195.272H1125.33V199.112C1125.33 200.312 1126 200.936 1127.25 200.936H1127.92ZM1122.81 206.024V207.944H1116.47V206.024H1122.81ZM1128.47 200.936C1129.62 200.936 1130.17 200.432 1130.17 199.4V198.416C1130.17 195.344 1131.9 193.472 1134.75 193.472C1137.61 193.472 1139.19 195.176 1139.19 198.32C1139.19 201.296 1137.49 203 1134.68 203C1133 203 1131.87 202.472 1131.32 201.512C1130.79 202.544 1129.95 203 1128.47 203H1127.91C1127.82 203 1127.67 202.928 1127.67 201.992C1127.67 201.032 1127.82 200.936 1127.91 200.936H1128.47ZM1137.2 198.32C1137.2 196.448 1136.39 195.488 1134.68 195.488C1132.98 195.488 1132.16 196.448 1132.16 198.416C1132.16 199.976 1133.07 200.936 1134.68 200.936C1136.34 200.936 1137.2 200.096 1137.2 198.32ZM1156.48 194.552H1153.93V192.56H1156.48V194.552ZM1162.62 199.232C1162.62 200.264 1163.29 200.936 1164.49 200.936H1164.95C1165.04 200.936 1165.19 201.032 1165.19 201.992C1165.19 202.928 1165.04 203 1164.95 203H1164.56C1163.72 203 1162.96 202.712 1162.62 202.304V202.592C1162.55 206.288 1159.91 208.856 1156.09 208.856H1155.04C1150.98 208.856 1148.75 206.384 1148.75 202.208V197.672H1150.74V202.16C1150.74 205.184 1152.23 206.792 1155.08 206.792H1156.09C1158.83 206.792 1160.63 205.088 1160.63 202.352V195.272H1162.62V199.232ZM1176.11 200.936C1176.2 200.936 1176.35 201.032 1176.35 201.968C1176.35 202.928 1176.2 203 1176.11 203H1175.36C1173.95 203 1172.94 202.544 1172.48 201.584C1171.91 202.544 1170.85 203 1169.48 203H1164.95C1164.85 203 1164.71 202.928 1164.71 201.992C1164.71 201.032 1164.85 200.936 1164.95 200.936H1169.48C1170.71 200.936 1171.52 200.264 1171.52 199.16V195.272H1173.51V199.112C1173.51 200.312 1174.19 200.936 1175.43 200.936H1176.11ZM1170.99 206.024V207.944H1164.66V206.024H1170.99ZM1177.97 200.936C1179.41 200.936 1180.21 200.192 1180.21 199.04V195.272H1182.22V199.04C1182.22 200.24 1182.89 200.936 1184.36 200.936C1185.8 200.936 1186.59 200.192 1186.59 199.04V195.272H1188.58V199.04C1188.58 200.24 1189.28 200.936 1190.62 200.936C1191.97 200.936 1192.69 200.192 1192.69 199.04V195.272H1194.68V199.04C1194.68 200.312 1195.35 200.936 1196.57 200.936H1197.27C1197.39 200.936 1197.53 201.032 1197.53 201.992C1197.53 202.928 1197.39 203 1197.27 203H1196.57C1195.06 203 1194.05 202.544 1193.6 201.584C1193.02 202.544 1192.01 203 1190.62 203C1188.97 203 1187.96 202.472 1187.5 201.512C1186.93 202.472 1185.87 203 1184.36 203C1182.58 203 1181.57 202.472 1181.12 201.512C1180.54 202.472 1179.49 203 1177.97 203H1176.1C1176.01 203 1175.86 202.928 1175.86 201.992C1175.86 201.032 1176.01 200.936 1176.1 200.936H1177.97ZM1198.97 200.936C1201.39 200.936 1202.76 200.6 1204.44 199.64L1208.09 197.504C1207.59 195.752 1206.79 195.2 1205.07 195.2H1199.45L1199.71 193.112H1205.4C1208.26 193.112 1209.51 194.384 1210.42 198.176L1205.38 201.296C1203.34 202.568 1201.73 203 1198.9 203H1197.29C1197.19 203 1197.05 202.928 1197.05 201.992C1197.05 201.032 1197.19 200.936 1197.29 200.936H1198.97ZM1224.38 200.936C1225.51 200.936 1226.26 200.384 1226.26 199.64C1226.26 198.944 1225.8 197.744 1223.59 191.792L1225.44 190.952L1228.25 198.92C1228.75 200.36 1229.28 200.936 1230.43 200.936H1230.94C1231.06 200.936 1231.18 201.056 1231.18 201.992C1231.18 202.976 1231.06 203 1230.94 203H1230.36C1228.92 203 1227.96 202.544 1227.41 201.488C1226.81 202.544 1225.85 203 1224.38 203H1218.77L1218.58 200.936H1224.38ZM1240.45 200.936C1240.55 200.936 1240.69 201.032 1240.69 201.968C1240.69 202.928 1240.55 203 1240.45 203H1239.71C1238.29 203 1237.28 202.544 1236.83 201.584C1236.25 202.544 1235.19 203 1233.83 203H1230.95C1230.85 203 1230.71 202.928 1230.71 201.992C1230.71 201.032 1230.85 200.936 1230.95 200.936H1233.83C1235.05 200.936 1235.87 200.264 1235.87 199.16V195.272H1237.86V199.112C1237.86 200.312 1238.53 200.936 1239.78 200.936H1240.45ZM1235.89 206.024V207.944H1229.55V206.024H1235.89ZM1242.33 200.936C1243.77 200.936 1244.56 200.192 1244.56 199.04V195.272H1246.58V199.04C1246.58 200.24 1247.25 200.936 1248.72 200.936C1250.16 200.936 1250.95 200.192 1250.95 199.04V195.272H1252.94V199.04C1252.94 200.24 1253.64 200.936 1254.98 200.936C1256.32 200.936 1257.04 200.24 1257.04 199.04V195.272H1259.04V198.992C1259.04 201.512 1257.45 203 1254.98 203C1253.32 203 1252.32 202.472 1251.86 201.512C1251.28 202.472 1250.23 203 1248.72 203C1246.94 203 1245.93 202.472 1245.48 201.512C1244.9 202.472 1243.84 203 1242.33 203H1240.46C1240.36 203 1240.22 202.928 1240.22 201.992C1240.22 201.032 1240.36 200.936 1240.46 200.936H1242.33Z" fill="black"/>
<path d="M1066.63 230.072H1065.14V228.91H1066.63V230.072ZM1065.79 238.416C1063.42 238.416 1062.12 236.974 1062.12 234.538V231.892H1063.28V234.51C1063.28 236.274 1064.15 237.212 1065.82 237.212H1066.4C1068 237.212 1069.05 236.218 1069.05 234.622V230.492H1070.21V234.51C1070.21 236.96 1068.63 238.416 1066.4 238.416H1065.79ZM1075.13 233.796C1075.2 233.796 1075.27 233.852 1075.27 234.412C1075.27 234.958 1075.2 235 1075.13 235H1074.77C1073.32 235 1072.6 234.09 1072.6 232.55V225.942H1073.76V232.494C1073.76 233.362 1074.11 233.796 1074.82 233.796H1075.13ZM1075.46 233.796C1076.13 233.796 1076.45 233.502 1076.45 232.9V232.326C1076.45 230.534 1077.46 229.442 1079.13 229.442C1080.79 229.442 1081.72 230.436 1081.72 232.27C1081.72 234.006 1080.72 235 1079.08 235C1078.1 235 1077.45 234.692 1077.12 234.132C1076.82 234.734 1076.33 235 1075.46 235H1075.14C1075.08 235 1075 234.958 1075 234.412C1075 233.852 1075.08 233.796 1075.14 233.796H1075.46ZM1080.55 232.27C1080.55 231.178 1080.08 230.618 1079.08 230.618C1078.09 230.618 1077.61 231.178 1077.61 232.326C1077.61 233.236 1078.15 233.796 1079.08 233.796C1080.05 233.796 1080.55 233.306 1080.55 232.27ZM1085.96 234.594C1085.96 236.96 1084.47 238.416 1082.3 238.416H1081.32L1081.2 237.212H1082.27C1083.85 237.212 1084.8 236.246 1084.8 234.594V230.492H1085.96V234.594ZM1087.79 225.228C1087.39 225.228 1087.18 225.368 1087.07 225.662L1086.71 226.53L1085.92 226.18L1086.34 225.102C1086.62 224.402 1087.02 224.192 1087.79 224.192H1091.22V225.228H1087.79ZM1088.36 227.216H1089.52V235H1088.36V227.216ZM1098.27 229.316V228.21H1101.97V229.316H1098.27ZM1106.53 233.796C1106.59 233.796 1106.67 233.852 1106.67 234.412C1106.67 234.958 1106.59 235 1106.53 235H1106.11C1105.28 235 1104.7 234.734 1104.43 234.174C1104.09 234.734 1103.48 235 1102.67 235H1097.72C1096.04 235 1095.25 234.034 1095.25 232.578V230.492H1096.41V232.424C1096.41 233.264 1096.81 233.796 1097.79 233.796H1102.67C1103.39 233.796 1103.86 233.404 1103.86 232.774V230.492H1105.02V232.732C1105.02 233.432 1105.41 233.796 1106.15 233.796H1106.53ZM1107.44 233.796C1108.6 233.796 1109.19 233.698 1109.59 233.488L1107.7 230.758L1108.35 229.582H1111.93C1112.95 229.582 1113.77 230.044 1113.77 231.052C1113.77 231.766 1113.43 232.326 1111.96 233.572C1112.24 233.74 1112.62 233.796 1113.57 233.796H1114.94C1115.01 233.796 1115.08 233.852 1115.08 234.412C1115.08 234.958 1115.01 235 1114.94 235H1113.57C1111.78 235 1111.22 234.832 1110.66 234.286C1109.8 234.832 1108.91 235 1107.4 235H1106.53C1106.47 235 1106.39 234.958 1106.39 234.412C1106.39 233.852 1106.47 233.796 1106.53 233.796H1107.44ZM1112.65 231.29C1112.65 230.912 1112.32 230.702 1111.76 230.702H1108.99L1110.78 233.32C1112.31 232.06 1112.65 231.654 1112.65 231.29ZM1118.87 228.812H1117.39V227.65H1118.87V228.812ZM1116.62 233.796C1117.33 233.796 1117.81 233.404 1117.81 232.76V230.492H1118.97V232.732C1118.97 233.432 1119.36 233.796 1120.09 233.796H1120.48C1120.54 233.796 1120.62 233.852 1120.62 234.398C1120.62 234.958 1120.54 235 1120.48 235H1120.05C1119.22 235 1118.63 234.734 1118.37 234.174C1118.03 234.734 1117.41 235 1116.62 235H1114.94C1114.88 235 1114.8 234.958 1114.8 234.412C1114.8 233.852 1114.88 233.796 1114.94 233.796H1116.62ZM1121.05 233.796C1121.89 233.796 1122.35 233.362 1122.35 232.69V230.492H1123.51V232.648C1123.51 233.222 1123.72 233.502 1124.11 233.642C1125.88 230.492 1127.26 229.246 1128.82 229.246C1130.34 229.246 1131.46 230.436 1131.46 232.13C1131.46 233.838 1130.33 235 1128.52 235H1124.78C1123.78 235 1123.17 234.72 1122.88 234.174C1122.54 234.734 1121.93 235 1121.05 235H1120.49C1120.43 235 1120.35 234.958 1120.35 234.412C1120.35 233.852 1120.43 233.796 1120.49 233.796H1121.05ZM1128.52 233.796C1129.66 233.796 1130.3 233.152 1130.3 232.13C1130.3 231.108 1129.63 230.408 1128.73 230.408C1127.67 230.408 1126.62 231.486 1125.26 233.796H1128.52ZM1141.55 230.072H1140.07V228.91H1141.55V230.072ZM1140.71 238.416C1138.34 238.416 1137.04 236.974 1137.04 234.538V231.892H1138.2V234.51C1138.2 236.274 1139.07 237.212 1140.74 237.212H1141.33C1142.92 237.212 1143.97 236.218 1143.97 234.622V230.492H1145.13V234.51C1145.13 236.96 1143.55 238.416 1141.33 238.416H1140.71ZM1150.05 233.796C1150.12 233.796 1150.19 233.852 1150.19 234.412C1150.19 234.958 1150.12 235 1150.05 235H1149.69C1148.25 235 1147.52 234.09 1147.52 232.55V225.942H1148.68V232.494C1148.68 233.362 1149.03 233.796 1149.74 233.796H1150.05ZM1155.6 233.796C1155.66 233.796 1155.74 233.852 1155.74 234.398C1155.74 234.958 1155.66 235 1155.6 235H1155.17C1154.34 235 1153.75 234.734 1153.49 234.174C1153.15 234.734 1152.54 235 1151.74 235H1150.06C1150 235 1149.92 234.958 1149.92 234.412C1149.92 233.852 1150 233.796 1150.06 233.796H1151.74C1152.45 233.796 1152.93 233.404 1152.93 232.76V230.492H1154.09V232.732C1154.09 233.432 1154.48 233.796 1155.21 233.796H1155.6ZM1152.94 236.764V237.884H1149.25V236.764H1152.94ZM1156.04 233.796C1156.7 233.796 1157.16 233.404 1157.16 232.76V225.942H1158.34V232.774C1158.34 234.174 1157.42 235 1156.04 235H1155.61C1155.55 235 1155.47 234.958 1155.47 234.412C1155.47 233.852 1155.55 233.796 1155.61 233.796H1156.04ZM1167.73 238.416C1165.36 238.416 1164.06 236.974 1164.06 234.538V231.892H1165.22V234.51C1165.22 236.274 1166.09 237.212 1167.75 237.212H1168.34C1169.94 237.212 1170.99 236.218 1170.99 234.622V225.942H1172.15V232.802C1172.15 233.404 1172.54 233.796 1173.24 233.796H1173.51C1173.56 233.796 1173.65 233.852 1173.65 234.412C1173.65 234.958 1173.56 235 1173.51 235H1173.28C1172.79 235 1172.35 234.832 1172.15 234.594V234.762C1172.11 236.918 1170.57 238.416 1168.34 238.416H1167.73ZM1173.83 233.796C1174.5 233.796 1174.82 233.502 1174.82 232.9V232.326C1174.82 230.534 1175.83 229.442 1177.5 229.442C1179.16 229.442 1180.09 230.436 1180.09 232.27C1180.09 234.006 1179.09 235 1177.45 235C1176.47 235 1175.82 234.692 1175.49 234.132C1175.19 234.734 1174.7 235 1173.83 235H1173.51C1173.45 235 1173.37 234.958 1173.37 234.412C1173.37 233.852 1173.45 233.796 1173.51 233.796H1173.83ZM1178.92 232.27C1178.92 231.178 1178.45 230.618 1177.45 230.618C1176.46 230.618 1175.98 231.178 1175.98 232.326C1175.98 233.236 1176.52 233.796 1177.45 233.796C1178.42 233.796 1178.92 233.306 1178.92 232.27ZM1185 233.796C1185.07 233.796 1185.14 233.852 1185.14 234.412C1185.14 234.958 1185.07 235 1185 235H1184.63C1183.19 235 1182.46 234.09 1182.46 232.55V225.942H1183.63V232.494C1183.63 233.362 1183.98 233.796 1184.69 233.796H1185ZM1186.75 233.796C1186.33 233.39 1186.18 232.858 1186.18 232.298C1186.18 230.716 1187.27 229.54 1188.91 229.54C1189.58 229.54 1190.21 229.694 1190.95 230.156L1190.55 231.108C1189.9 230.814 1189.39 230.716 1188.91 230.716C1188.01 230.716 1187.34 231.374 1187.34 232.228C1187.34 233.138 1187.92 233.796 1188.83 233.796H1191.33L1191.22 235H1185C1184.95 235 1184.86 234.958 1184.86 234.412C1184.86 233.852 1184.95 233.796 1185 233.796H1186.75ZM1195.58 232.718C1195.58 233.404 1195.99 233.796 1196.76 233.796H1196.94C1197 233.796 1197.08 233.866 1197.08 234.412C1197.08 234.958 1197 235 1196.94 235H1196.76C1196.26 235 1195.78 234.804 1195.58 234.524V234.692C1195.54 236.96 1194.09 238.416 1191.92 238.416H1190.94L1190.82 237.212H1191.89C1193.47 237.212 1194.42 236.246 1194.42 234.594V230.492H1195.58V232.718ZM1201.43 230.492H1202.61V232.774C1202.61 234.174 1201.69 235 1200.31 235H1196.94C1196.88 235 1196.8 234.958 1196.8 234.412C1196.8 233.852 1196.88 233.796 1196.94 233.796H1200.31C1200.97 233.796 1201.43 233.432 1201.43 232.76V230.492ZM1200.78 236.764V237.884H1197.08V236.764H1200.78ZM1207.85 233.796C1208.51 233.796 1208.94 233.474 1208.94 233.04C1208.94 232.634 1208.68 231.934 1207.39 228.462L1208.47 227.972L1210.1 232.62C1210.4 233.46 1210.71 233.796 1211.38 233.796H1211.67C1211.74 233.796 1211.81 233.866 1211.81 234.412C1211.81 234.986 1211.74 235 1211.67 235H1211.34C1210.5 235 1209.94 234.734 1209.61 234.118C1209.26 234.734 1208.7 235 1207.85 235H1204.57L1204.46 233.796H1207.85ZM1212 233.796C1212.67 233.796 1212.99 233.502 1212.99 232.9V232.326C1212.99 230.534 1214 229.442 1215.67 229.442C1217.33 229.442 1218.26 230.436 1218.26 232.27C1218.26 234.006 1217.26 235 1215.63 235C1214.65 235 1213.99 234.692 1213.67 234.132C1213.36 234.734 1212.87 235 1212 235H1211.68C1211.62 235 1211.54 234.958 1211.54 234.412C1211.54 233.852 1211.62 233.796 1211.68 233.796H1212ZM1217.1 232.27C1217.1 231.178 1216.62 230.618 1215.63 230.618C1214.63 230.618 1214.16 231.178 1214.16 232.326C1214.16 233.236 1214.69 233.796 1215.63 233.796C1216.59 233.796 1217.1 233.306 1217.1 232.27Z" fill="black"/>
<path d="M123.613 115.246C123.613 119.64 120.831 122.344 116.801 122.344H116.073L115.865 120.108H116.749C119.687 120.108 121.455 118.314 121.455 115.246V107.628H123.613V115.246ZM132.743 113.764C132.873 113.764 133.003 113.868 133.003 114.908C133.003 115.922 132.873 116 132.743 116H132.067C129.389 116 128.037 114.31 128.037 111.45V99.178H130.195V111.346C130.195 112.958 130.845 113.764 132.171 113.764H132.743ZM139.958 113.764C141.466 113.764 142.35 113.114 142.35 112.126C142.35 111.424 142.038 110.8 141.284 110.02L135.174 103.962V102.09L144.664 98.32L145.314 100.4L137.722 103.39L142.922 108.616C144.066 109.76 144.508 110.982 144.508 112.152C144.508 114.388 142.922 116 139.958 116H132.756C132.652 116 132.496 115.922 132.496 114.908C132.496 113.868 132.652 113.764 132.756 113.764H139.958ZM155.275 111.71C155.275 109.786 156.185 108.018 158.915 105.314L157.771 104.144L159.305 102.506C164.453 107.342 165.519 109.084 165.519 111.45C165.519 114.232 163.361 116.26 160.189 116.26C157.225 116.26 155.275 114.414 155.275 111.71ZM163.361 111.45C163.361 110.02 162.685 108.824 160.397 106.692C158.187 108.824 157.433 110.15 157.433 111.58C157.433 112.984 158.499 114.024 160.267 114.024C162.061 114.024 163.361 112.932 163.361 111.45ZM173.404 115.246C173.404 119.64 170.622 122.344 166.592 122.344H164.772L164.564 120.108H166.54C169.478 120.108 171.246 118.314 171.246 115.246V107.628H173.404V115.246ZM177.828 116V99.178H179.986V116H177.828ZM187.778 104.43L189.312 102.896L194.304 108.642C195.474 109.968 195.864 111.06 195.864 112.152C195.864 114.388 194.278 116 191.314 116H183.904L183.696 113.764H191.314C192.848 113.764 193.706 113.114 193.706 112.126C193.706 111.502 193.394 110.904 192.64 110.02L187.778 104.43ZM220.119 113.764C221.341 113.764 222.199 113.036 222.199 111.866V107.628H224.357V111.918C224.357 114.466 222.641 116 220.119 116H210.811C207.691 116 206.209 114.206 206.209 111.502V107.628H208.367V111.216C208.367 112.776 209.121 113.764 210.941 113.764H220.119ZM216.635 121.46H213.879V119.276H216.635V121.46ZM240.877 113.764C241.007 113.764 241.137 113.868 241.137 114.908C241.137 115.922 241.007 116 240.877 116H238.381C238.069 119.978 235.521 122.344 231.673 122.344H228.475L228.267 120.108H231.699C234.481 120.108 236.249 118.522 236.275 116H233.675C230.061 116 228.631 114.544 228.631 111.45C228.631 108.174 230.659 105.938 233.571 105.938C236.587 105.938 238.433 108.096 238.433 111.58V113.764H240.877ZM230.789 111.32C230.789 113.088 231.543 113.764 233.805 113.764H236.275V111.736C236.275 109.344 235.287 108.122 233.441 108.122C231.829 108.122 230.789 109.422 230.789 111.32ZM249.241 102.246H246.485V100.088H249.241V102.246ZM242.689 113.764C245.315 113.764 246.797 113.4 248.617 112.36L252.569 110.046C252.023 108.148 251.165 107.55 249.293 107.55H243.209L243.495 105.288H249.657C252.751 105.288 254.103 106.666 255.091 110.774L249.631 114.154C247.421 115.532 245.679 116 242.611 116H240.869C240.765 116 240.609 115.922 240.609 114.908C240.609 113.868 240.765 113.764 240.869 113.764H242.689ZM272.068 115.922L272.302 113.764H282.832C282.936 113.764 283.092 113.868 283.092 114.908C283.092 115.922 282.936 116 282.832 116H280.128C280.388 116.26 280.518 116.728 280.518 117.222C280.518 120.238 277.762 122.344 273.472 122.344H271.47C267.076 122.344 264.658 119.666 264.658 115.142V110.228H266.816V115.09C266.816 118.366 268.428 120.108 271.522 120.108H273.472C276.696 120.108 278.36 119.016 278.36 117.274C278.36 116.338 277.918 115.922 276.904 115.922H272.068ZM290.042 113.764C291.55 113.764 292.434 113.114 292.434 112.126C292.434 111.424 292.122 110.8 291.368 110.02L285.258 103.962V102.09L294.748 98.32L295.398 100.4L287.806 103.39L292.954 108.564C297.738 113.374 298.388 113.764 299.974 113.764C300.078 113.764 300.234 113.868 300.234 114.908C300.234 115.922 300.078 116 299.974 116C297.868 116 297.01 115.61 294.306 112.906C294.176 114.674 292.642 116 290.042 116H282.84C282.736 116 282.58 115.922 282.58 114.908C282.58 113.868 282.736 113.764 282.84 113.764H290.042ZM310.275 113.764C310.379 113.764 310.535 113.868 310.535 114.882C310.535 115.922 310.379 116 310.275 116H309.469C307.935 116 306.843 115.506 306.349 114.466C305.725 115.506 304.581 116 303.099 116H299.979C299.875 116 299.719 115.922 299.719 114.908C299.719 113.868 299.875 113.764 299.979 113.764H303.099C304.425 113.764 305.309 113.036 305.309 111.84V107.628H307.467V111.788C307.467 113.088 308.195 113.764 309.547 113.764H310.275ZM305.335 119.276V121.356H298.471V119.276H305.335ZM318.737 101.908H315.981V99.75H318.737V101.908ZM314.889 113.764C315.331 113.764 315.877 113.738 316.215 113.66C313.407 112.62 312.497 111.58 312.497 109.578C312.497 106.796 314.603 104.638 317.489 104.638C320.661 104.638 322.507 106.692 322.507 110.228V111.112C322.507 114.362 320.297 116 316.137 116H310.287C310.183 116 310.027 115.922 310.027 114.908C310.027 113.868 310.183 113.764 310.287 113.764H314.889ZM319.413 113.27C320.011 112.776 320.349 112.022 320.349 110.982V110.358C320.349 107.992 319.335 106.822 317.437 106.822C315.903 106.822 314.655 108.044 314.655 109.526C314.655 111.19 315.669 112.048 319.413 113.27ZM326.922 116V99.178H329.08V116H326.922ZM337.25 111.762C337.25 113.036 338.004 113.764 339.434 113.764H339.772C339.876 113.764 340.032 113.894 340.032 114.908C340.032 115.922 339.876 116 339.772 116H339.434C338.498 116 337.614 115.636 337.25 115.116V115.428C337.172 119.64 334.468 122.344 330.438 122.344H328.618L328.41 120.108H330.386C333.324 120.108 335.092 118.314 335.092 115.246V107.628H337.25V111.762ZM342.21 98.502L350.66 94.966L351.102 96.37L342.21 100.062V98.502ZM346.968 113.764C348.476 113.764 349.36 113.114 349.36 112.126C349.36 111.424 349.048 110.8 348.294 110.02L342.184 103.962V102.09L351.674 98.32L352.324 100.4L344.732 103.39L349.932 108.616C351.076 109.76 351.518 110.982 351.518 112.152C351.518 114.388 349.932 116 346.968 116H339.766C339.662 116 339.506 115.922 339.506 114.908C339.506 113.868 339.662 113.764 339.766 113.764H346.968ZM376.065 116.39C376.065 115.298 375.441 114.752 374.141 114.752H369.201V110.02C369.201 107.16 371.047 105.184 374.011 105.184H377.313L377.495 107.342H373.959C372.425 107.342 371.385 108.46 371.385 109.942V112.516H374.505C377.053 112.516 378.223 113.92 378.223 116.26C378.223 119.588 375.103 122.344 371.099 122.344H369.097C364.703 122.344 362.285 119.666 362.285 115.142V110.228H364.443V115.09C364.443 118.366 366.055 120.108 369.149 120.108H371.099C374.089 120.108 376.065 118.522 376.065 116.39ZM387.36 113.764C387.49 113.764 387.62 113.868 387.62 114.908C387.62 115.922 387.49 116 387.36 116H386.684C384.006 116 382.654 114.31 382.654 111.45V99.178H384.812V111.346C384.812 112.958 385.462 113.764 386.788 113.764H387.36ZM391.455 113.764C390.363 113.01 389.635 111.58 389.635 110.228C389.635 107.394 391.793 105.288 394.679 105.288C397.383 105.288 399.463 107.342 399.463 110.02C399.463 111.528 398.683 112.906 397.305 113.764H401.153C402.687 113.764 403.467 113.114 403.467 112.126C403.467 111.502 403.233 110.878 402.323 109.942L397.045 104.404L398.605 102.818L403.987 108.564C405.157 109.812 405.625 110.982 405.625 112.152C405.625 114.466 403.961 116 401.153 116H398.215C396.005 116 395.173 115.922 394.523 115.584C393.873 115.922 392.833 116 390.727 116H387.373C387.269 116 387.113 115.922 387.113 114.908C387.113 113.868 387.269 113.764 387.373 113.764H391.455ZM394.419 113.712C396.343 112.906 397.383 111.658 397.383 110.228C397.383 108.59 396.213 107.472 394.549 107.472C392.885 107.472 391.715 108.59 391.715 110.228C391.715 111.71 392.651 112.906 394.419 113.712ZM421.394 115.246C421.394 119.64 418.612 122.344 414.582 122.344H413.854L413.646 120.108H414.53C417.468 120.108 419.236 118.314 419.236 115.246V107.628H421.394V115.246ZM425.819 116V99.178H427.977V116H425.819ZM436.25 104.508H433.494V102.35H436.25V104.508ZM436.146 111.762C436.146 113.036 436.9 113.764 438.33 113.764H438.668C438.772 113.764 438.928 113.894 438.928 114.908C438.928 115.922 438.772 116 438.668 116H438.33C437.394 116 436.51 115.636 436.146 115.116V115.428C436.068 119.64 433.364 122.344 429.334 122.344H427.514L427.306 120.108H429.282C432.22 120.108 433.988 118.314 433.988 115.246V107.628H436.146V111.762ZM447.112 101.908H444.356V99.75H447.112V101.908ZM443.264 113.764C443.706 113.764 444.252 113.738 444.59 113.66C441.782 112.62 440.872 111.58 440.872 109.578C440.872 106.796 442.978 104.638 445.864 104.638C449.036 104.638 450.882 106.692 450.882 110.228V111.112C450.882 114.362 448.672 116 444.512 116H438.662C438.558 116 438.402 115.922 438.402 114.908C438.402 113.868 438.558 113.764 438.662 113.764H443.264ZM447.788 113.27C448.386 112.776 448.724 112.022 448.724 110.982V110.358C448.724 107.992 447.71 106.822 445.812 106.822C444.278 106.822 443.03 108.044 443.03 109.526C443.03 111.19 444.044 112.048 447.788 113.27ZM455.297 116V99.178H457.455V116H455.297ZM473.73 110.15C473.73 109.11 473.99 108.304 474.614 107.732H473.444C471.416 107.732 470.246 108.85 470.246 110.748V122.344H468.088V110.748C468.088 107.602 470.22 105.548 473.574 105.548H478.904C481.868 105.548 483.35 107.134 483.35 109.76V111.554C483.35 114.414 481.66 116 478.488 116C475.316 116 473.73 114.362 473.73 111.762V110.15ZM478.566 113.764C480.204 113.764 481.192 113.114 481.192 111.528V109.968C481.192 108.59 480.334 107.732 478.904 107.732H478.072C476.616 107.732 475.888 108.668 475.888 110.02V111.346C475.888 113.062 476.798 113.764 478.566 113.764ZM491.269 111.762C491.269 113.036 492.023 113.764 493.453 113.764H493.791C493.895 113.764 494.051 113.894 494.051 114.908C494.051 115.922 493.895 116 493.791 116H493.453C492.517 116 491.633 115.636 491.269 115.116V115.428C491.191 119.64 488.487 122.344 484.457 122.344H482.637L482.429 120.108H484.405C487.343 120.108 489.111 118.314 489.111 115.246V107.628H491.269V111.762ZM499.557 104.508H496.801V102.35H499.557V104.508ZM500.753 111.866C500.753 114.466 499.037 116 496.489 116H493.785C493.681 116 493.525 115.922 493.525 114.908C493.525 113.868 493.681 113.764 493.785 113.764H496.489C497.711 113.764 498.595 113.088 498.595 111.84V107.628H500.753V111.866ZM511.1 111.71C511.1 109.786 512.01 108.018 514.74 105.314L513.596 104.144L515.13 102.506C520.278 107.342 521.344 109.084 521.344 111.45C521.344 114.232 519.186 116.26 516.014 116.26C513.05 116.26 511.1 114.414 511.1 111.71ZM519.186 111.45C519.186 110.02 518.51 108.824 516.222 106.692C514.012 108.824 513.258 110.15 513.258 111.58C513.258 112.984 514.324 114.024 516.092 114.024C517.886 114.024 519.186 112.932 519.186 111.45ZM529.332 104.508H526.576V102.35H529.332V104.508ZM529.228 115.246C529.228 119.64 526.446 122.344 522.416 122.344H520.596L520.388 120.108H522.364C525.302 120.108 527.07 118.314 527.07 115.246V107.628H529.228V115.246ZM545.743 113.764C545.873 113.764 546.002 113.868 546.002 114.908C546.002 115.922 545.873 116 545.743 116H543.247C542.935 119.978 540.387 122.344 536.539 122.344H533.341L533.133 120.108H536.565C539.347 120.108 541.115 118.522 541.141 116H538.541C534.927 116 533.497 114.544 533.497 111.45C533.497 108.174 535.525 105.938 538.437 105.938C541.453 105.938 543.299 108.096 543.299 111.58V113.764H545.743ZM535.655 111.32C535.655 113.088 536.409 113.764 538.671 113.764H541.141V111.736C541.141 109.344 540.153 108.122 538.307 108.122C536.695 108.122 535.655 109.422 535.655 111.32ZM547.554 113.764C550.18 113.764 551.662 113.4 553.482 112.36L557.434 110.046C556.888 108.148 556.03 107.55 554.158 107.55H548.074L548.36 105.288H554.522C557.616 105.288 558.968 106.666 559.956 110.774L554.496 114.154C552.286 115.532 550.544 116 547.476 116H545.734C545.63 116 545.474 115.922 545.474 114.908C545.474 113.868 545.63 113.764 545.734 113.764H547.554ZM583.303 116.39C583.303 115.298 582.679 114.752 581.379 114.752H576.439V110.02C576.439 107.16 578.285 105.184 581.249 105.184H584.551L584.733 107.342H581.197C579.663 107.342 578.623 108.46 578.623 109.942V112.516H581.743C584.291 112.516 585.461 113.92 585.461 116.26C585.461 119.588 582.341 122.344 578.337 122.344H576.335C571.941 122.344 569.523 119.666 569.523 115.142V110.228H571.681V115.09C571.681 118.366 573.293 120.108 576.387 120.108H578.337C581.327 120.108 583.303 118.522 583.303 116.39ZM601.983 113.764C602.113 113.764 602.243 113.868 602.243 114.908C602.243 115.922 602.113 116 601.983 116H599.487C599.175 119.978 596.627 122.344 592.779 122.344H589.581L589.373 120.108H592.805C595.587 120.108 597.355 118.522 597.381 116H594.781C591.167 116 589.737 114.544 589.737 111.45C589.737 108.174 591.765 105.938 594.677 105.938C597.693 105.938 599.539 108.096 599.539 111.58V113.764H601.983ZM591.895 111.32C591.895 113.088 592.649 113.764 594.911 113.764H597.381V111.736C597.381 109.344 596.393 108.122 594.547 108.122C592.935 108.122 591.895 109.422 591.895 111.32ZM609.749 102.454V104.508H602.885V102.454H609.749ZM606.785 111.84V107.628H608.943V111.866C608.943 114.466 607.227 116 604.679 116H601.975C601.871 116 601.715 115.922 601.715 114.908C601.715 113.868 601.871 113.764 601.975 113.764H604.679C605.901 113.764 606.785 113.088 606.785 111.84ZM627.661 106.848H624.905V104.69H627.661V106.848ZM626.101 122.344C621.707 122.344 619.289 119.666 619.289 115.142V110.228H621.447V115.09C621.447 118.366 623.059 120.108 626.153 120.108H627.245C630.209 120.108 632.159 118.262 632.159 115.298V107.628H634.317V115.09C634.317 119.64 631.379 122.344 627.245 122.344H626.101ZM643.45 113.764C643.58 113.764 643.71 113.868 643.71 114.908C643.71 115.922 643.58 116 643.45 116H642.774C640.096 116 638.744 114.31 638.744 111.45V99.178H640.902V111.346C640.902 112.958 641.552 113.764 642.878 113.764H643.45ZM644.061 113.764C645.309 113.764 645.907 113.218 645.907 112.1V111.034C645.907 107.706 647.779 105.678 650.873 105.678C653.967 105.678 655.683 107.524 655.683 110.93C655.683 114.154 653.837 116 650.795 116C648.975 116 647.753 115.428 647.155 114.388C646.583 115.506 645.673 116 644.061 116H643.463C643.359 116 643.203 115.922 643.203 114.908C643.203 113.868 643.359 113.764 643.463 113.764H644.061ZM653.525 110.93C653.525 108.902 652.641 107.862 650.795 107.862C648.949 107.862 648.065 108.902 648.065 111.034C648.065 112.724 649.053 113.764 650.795 113.764C652.589 113.764 653.525 112.854 653.525 110.93ZM663.674 104.508H660.918V102.35H663.674V104.508ZM663.57 115.246C663.57 119.64 660.788 122.344 656.758 122.344H654.938L654.73 120.108H656.706C659.644 120.108 661.412 118.314 661.412 115.246V107.628H663.57V115.246ZM695.874 111.71C695.874 113.01 696.602 113.764 698.058 113.764C699.514 113.764 700.32 113.01 700.32 111.71V107.628H702.478V111.658C702.478 114.388 700.762 116 698.058 116C696.264 116 695.172 115.428 694.704 114.388C694.054 115.428 692.91 116 691.272 116C690.076 116 689.322 115.688 688.958 115.246V115.558C688.88 119.562 686.02 122.344 681.886 122.344H680.742C676.348 122.344 673.93 119.666 673.93 115.142V110.228H676.088V115.09C676.088 118.366 677.7 120.108 680.794 120.108H681.886C684.85 120.108 686.8 118.262 686.8 115.298V107.628H688.958V111.762C688.958 112.958 689.686 113.764 691.272 113.764C692.858 113.764 693.716 112.958 693.716 111.71V107.628H695.874V111.71ZM716.539 115.168C716.539 119.614 713.887 122.344 709.779 122.344H706.581L706.373 120.108H709.805C712.587 120.108 714.355 118.522 714.381 116H711.781C708.167 116 706.737 114.544 706.737 111.45C706.737 108.174 708.765 105.938 711.677 105.938C714.693 105.938 716.539 108.096 716.539 111.58V115.168ZM708.895 111.32C708.895 113.088 709.649 113.764 711.911 113.764H714.381V111.736C714.381 109.344 713.393 108.122 711.547 108.122C709.935 108.122 708.895 109.422 708.895 111.32ZM730.605 115.168C730.605 119.614 727.953 122.344 723.845 122.344H720.647L720.439 120.108H723.871C726.653 120.108 728.421 118.522 728.447 116H725.847C722.233 116 720.803 114.544 720.803 111.45C720.803 108.174 722.831 105.938 725.743 105.938C728.759 105.938 730.605 108.096 730.605 111.58V115.168ZM722.961 111.32C722.961 113.088 723.715 113.764 725.977 113.764H728.447V111.736C728.447 109.344 727.459 108.122 725.613 108.122C724.001 108.122 722.961 109.422 722.961 111.32ZM739.732 113.764C739.862 113.764 739.992 113.868 739.992 114.908C739.992 115.922 739.862 116 739.732 116H739.056C736.378 116 735.026 114.31 735.026 111.45V99.178H737.184V111.346C737.184 112.958 737.834 113.764 739.16 113.764H739.732ZM746.946 113.764C748.454 113.764 749.338 113.114 749.338 112.126C749.338 111.424 749.026 110.8 748.272 110.02L742.162 103.962V102.09L751.652 98.32L752.302 100.4L744.71 103.39L749.858 108.564C754.642 113.374 755.292 113.764 756.878 113.764C756.982 113.764 757.138 113.868 757.138 114.908C757.138 115.922 756.982 116 756.878 116C754.772 116 753.914 115.61 751.21 112.906C751.08 114.674 749.546 116 746.946 116H739.744C739.64 116 739.484 115.922 739.484 114.908C739.484 113.868 739.64 113.764 739.744 113.764H746.946ZM767.179 113.764C767.283 113.764 767.439 113.868 767.439 114.882C767.439 115.922 767.283 116 767.179 116H766.373C764.839 116 763.747 115.506 763.253 114.466C762.629 115.506 761.485 116 760.003 116H756.883C756.779 116 756.623 115.922 756.623 114.908C756.623 113.868 756.779 113.764 756.883 113.764H760.003C761.329 113.764 762.213 113.036 762.213 111.84V107.628H764.371V111.788C764.371 113.088 765.099 113.764 766.451 113.764H767.179ZM762.239 119.276V121.356H755.375V119.276H762.239ZM774.393 113.764C775.901 113.764 776.785 113.114 776.785 112.126C776.785 111.424 776.473 110.8 775.719 110.02L769.609 103.962V102.09L779.099 98.32L779.749 100.4L772.157 103.39L777.357 108.616C778.501 109.76 778.943 110.982 778.943 112.152C778.943 114.388 777.357 116 774.393 116H767.191C767.087 116 766.931 115.922 766.931 114.908C766.931 113.868 767.087 113.764 767.191 113.764H774.393ZM795.327 105.444V103.39H802.191V105.444H795.327ZM810.667 113.764C810.771 113.764 810.927 113.868 810.927 114.908C810.927 115.922 810.771 116 810.667 116H809.887C808.353 116 807.261 115.506 806.767 114.466C806.143 115.506 804.999 116 803.491 116H794.313C791.193 116 789.711 114.206 789.711 111.502V107.628H791.869V111.216C791.869 112.776 792.623 113.764 794.443 113.764H803.491C804.843 113.764 805.701 113.036 805.701 111.866V107.628H807.859V111.788C807.859 113.088 808.587 113.764 809.965 113.764H810.667ZM815.47 107.628H817.628V111.866C817.628 114.466 815.912 116 813.364 116H810.66C810.556 116 810.4 115.922 810.4 114.908C810.4 113.868 810.556 113.764 810.66 113.764H813.364C814.586 113.764 815.47 113.088 815.47 111.84V107.628ZM816.172 119.276V121.356H809.308V119.276H816.172ZM826.745 113.764C826.875 113.764 827.005 113.868 827.005 114.908C827.005 115.922 826.875 116 826.745 116H826.069C823.391 116 822.039 114.31 822.039 111.45V99.178H824.197V111.346C824.197 112.958 824.847 113.764 826.173 113.764H826.745ZM828.786 113.764C830.346 113.764 831.204 112.958 831.204 111.71V107.628H833.388V111.71C833.388 113.01 834.116 113.764 835.702 113.764C837.262 113.764 838.12 112.958 838.12 111.71V107.628H840.278V111.71C840.278 113.01 841.032 113.764 842.488 113.764C843.944 113.764 844.724 113.01 844.724 111.71V107.628H846.882V111.658C846.882 114.388 845.166 116 842.488 116C840.694 116 839.602 115.428 839.108 114.388C838.484 115.428 837.34 116 835.702 116C833.778 116 832.686 115.428 832.192 114.388C831.568 115.428 830.424 116 828.786 116H826.758C826.654 116 826.498 115.922 826.498 114.908C826.498 113.868 826.654 113.764 826.758 113.764H828.786ZM862.917 110.15C862.917 109.11 863.177 108.304 863.801 107.732H862.631C860.603 107.732 859.433 108.85 859.433 110.748V122.344H857.275V110.748C857.275 107.602 859.407 105.548 862.761 105.548H868.091C871.055 105.548 872.537 107.134 872.537 109.76V111.554C872.537 114.414 870.847 116 867.675 116C864.503 116 862.917 114.362 862.917 111.762V110.15ZM867.753 113.764C869.391 113.764 870.379 113.114 870.379 111.528V109.968C870.379 108.59 869.521 107.732 868.091 107.732H867.259C865.803 107.732 865.075 108.668 865.075 110.02V111.346C865.075 113.062 865.985 113.764 867.753 113.764ZM880.457 111.762C880.457 113.036 881.211 113.764 882.641 113.764H882.979C883.083 113.764 883.239 113.894 883.239 114.908C883.239 115.922 883.083 116 882.979 116H882.641C881.705 116 880.821 115.636 880.457 115.116V115.428C880.379 119.64 877.675 122.344 873.645 122.344H871.825L871.617 120.108H873.593C876.531 120.108 878.299 118.314 878.299 115.246V107.628H880.457V111.762ZM885.417 113.764V99.178H887.575V110.228C889.863 106.692 891.943 105.314 894.023 105.314C896.831 105.314 898.911 107.524 898.911 110.67C898.911 111.632 898.729 112.464 898.313 113.192C898.807 113.634 899.535 113.764 900.679 113.764H901.277C901.381 113.764 901.537 113.868 901.537 114.908C901.537 115.922 901.381 116 901.277 116H900.679C898.937 116 897.975 115.74 897.117 114.83C896.181 115.584 894.933 116 893.477 116H882.973C882.869 116 882.713 115.922 882.713 114.908C882.713 113.868 882.869 113.764 882.973 113.764H885.417ZM895.375 102.532H892.645V100.374H895.375V102.532ZM893.477 113.764C895.557 113.764 896.753 112.568 896.753 110.67C896.753 108.772 895.505 107.472 893.867 107.472C891.865 107.472 889.941 109.474 887.419 113.764H893.477ZM907.051 104.508H904.295V102.35H907.051V104.508ZM908.247 111.866C908.247 114.466 906.531 116 903.983 116H901.279C901.175 116 901.019 115.922 901.019 114.908C901.019 113.868 901.175 113.764 901.279 113.764H903.983C905.205 113.764 906.089 113.088 906.089 111.84V107.628H908.247V111.866ZM928.448 111.164C928.448 113.036 929.124 113.764 930.346 113.764H930.97C931.1 113.764 931.23 113.868 931.23 114.908C931.23 115.922 931.1 116 930.97 116H930.346C928.526 116 927.278 115.272 926.862 113.53C926.082 114.362 924.574 114.726 923.144 114.726C920.232 114.726 918.594 113.14 918.594 110.02C918.594 107.108 920.622 104.716 923.664 104.716H926.29V102.922H928.448V111.164ZM920.752 109.968C920.752 111.632 921.558 112.49 923.274 112.49C925.12 112.49 926.29 111.762 926.29 110.618V106.9H923.664C921.87 106.9 920.752 107.992 920.752 109.968ZM937.929 111.866C937.929 114.466 936.213 116 933.665 116H930.961C930.857 116 930.701 115.922 930.701 114.908C930.701 113.868 930.857 113.764 930.961 113.764H933.665C934.887 113.764 935.771 113.088 935.771 111.84V107.628H937.929V111.866ZM934.419 121.46H931.663V119.276H934.419V121.46ZM135.743 146.848H132.987V144.69H135.743V146.848ZM142.399 151.918C142.399 153.036 143.127 153.764 144.427 153.764H144.921C145.025 153.764 145.181 153.868 145.181 154.908C145.181 155.922 145.025 156 144.921 156H144.505C143.595 156 142.763 155.688 142.399 155.246V155.558C142.321 159.562 139.461 162.344 135.327 162.344H134.183C129.789 162.344 127.371 159.666 127.371 155.142V150.228H129.529V155.09C129.529 158.366 131.141 160.108 134.235 160.108H135.327C138.291 160.108 140.241 158.262 140.241 155.298V147.628H142.399V151.918ZM152.224 144.508H149.468V142.35H152.224V144.508ZM148.038 153.764C149.364 153.764 150.248 153.036 150.248 151.84V147.628H152.406V151.788C152.406 153.088 153.134 153.764 154.486 153.764H155.214C155.318 153.764 155.474 153.868 155.474 154.882C155.474 155.922 155.318 156 155.214 156H154.408C152.874 156 151.782 155.506 151.288 154.466C150.664 155.506 149.52 156 148.038 156H144.918C144.814 156 144.658 155.922 144.658 154.908C144.658 153.868 144.814 153.764 144.918 153.764H148.038ZM162.429 153.764C163.937 153.764 164.821 153.114 164.821 152.126C164.821 151.424 164.509 150.8 163.755 150.02L157.645 143.962V142.09L167.135 138.32L167.785 140.4L160.193 143.39L165.393 148.616C166.537 149.76 166.979 150.982 166.979 152.152C166.979 154.388 165.393 156 162.429 156H155.227C155.123 156 154.967 155.922 154.967 154.908C154.967 153.868 155.123 153.764 155.227 153.764H162.429ZM183.31 153.764C184.532 153.764 185.338 153.166 185.338 152.36C185.338 151.606 184.844 150.306 182.452 143.858L184.454 142.948L187.496 151.58C188.042 153.14 188.614 153.764 189.862 153.764H190.408C190.538 153.764 190.668 153.894 190.668 154.908C190.668 155.974 190.538 156 190.408 156H189.784C188.224 156 187.184 155.506 186.586 154.362C185.936 155.506 184.896 156 183.31 156H177.226L177.018 153.764H183.31ZM200.714 153.764C200.818 153.764 200.974 153.868 200.974 154.882C200.974 155.922 200.818 156 200.714 156H199.908C198.374 156 197.282 155.506 196.788 154.466C196.164 155.506 195.02 156 193.538 156H190.418C190.314 156 190.158 155.922 190.158 154.908C190.158 153.868 190.314 153.764 190.418 153.764H193.538C194.864 153.764 195.748 153.036 195.748 151.84V147.628H197.906V151.788C197.906 153.088 198.634 153.764 199.986 153.764H200.714ZM195.774 159.276V161.356H188.91V159.276H195.774ZM201.533 153.764C202.755 153.764 203.613 153.036 203.613 151.84V139.178H205.797V151.866C205.797 154.466 204.081 156 201.533 156H200.727C200.623 156 200.467 155.922 200.467 154.908C200.467 153.868 200.623 153.764 200.727 153.764H201.533ZM222.571 153.764C222.701 153.764 222.831 153.868 222.831 154.908C222.831 155.922 222.701 156 222.571 156H220.075C219.763 159.978 217.215 162.344 213.367 162.344H210.169L209.961 160.108H213.393C216.175 160.108 217.943 158.522 217.969 156H215.369C211.755 156 210.325 154.544 210.325 151.45C210.325 148.174 212.353 145.938 215.265 145.938C218.281 145.938 220.127 148.096 220.127 151.58V153.764H222.571ZM212.483 151.32C212.483 153.088 213.237 153.764 215.499 153.764H217.969V151.736C217.969 149.344 216.981 148.122 215.135 148.122C213.523 148.122 212.483 149.422 212.483 151.32ZM230.337 142.454V144.508H223.473V142.454H230.337ZM227.373 151.84V147.628H229.531V151.866C229.531 154.466 227.815 156 225.267 156H222.562C222.458 156 222.302 155.922 222.302 154.908C222.302 153.868 222.458 153.764 222.562 153.764H225.267C226.489 153.764 227.373 153.088 227.373 151.84ZM261.925 138.892V140.946H259.559V138.892H261.925ZM257.297 144.508V142.454H264.161V144.508H257.297ZM266.267 147.628H268.425V151.658C268.425 154.388 266.709 156 264.005 156C262.211 156 261.119 155.428 260.651 154.388C260.001 155.428 258.857 156 257.219 156C256.023 156 255.269 155.688 254.905 155.246V155.558C254.827 159.562 251.967 162.344 247.833 162.344H246.689C242.295 162.344 239.877 159.666 239.877 155.142V150.228H242.035V155.09C242.035 158.366 243.647 160.108 246.741 160.108H247.833C250.797 160.108 252.747 158.262 252.747 155.298V147.628H254.905V151.762C254.905 152.958 255.633 153.764 257.219 153.764C258.805 153.764 259.663 152.958 259.663 151.71V147.628H261.821V151.71C261.821 153.01 262.549 153.764 264.005 153.764C265.461 153.764 266.267 153.01 266.267 151.71V147.628ZM276.416 144.508H273.66V142.35H276.416V144.508ZM276.312 155.246C276.312 159.64 273.53 162.344 269.5 162.344H267.68L267.472 160.108H269.448C272.386 160.108 274.154 158.314 274.154 155.246V147.628H276.312V155.246ZM292.826 153.764C292.956 153.764 293.086 153.868 293.086 154.908C293.086 155.922 292.956 156 292.826 156H290.33C290.018 159.978 287.47 162.344 283.622 162.344H280.424L280.216 160.108H283.648C286.43 160.108 288.198 158.522 288.224 156H285.624C282.01 156 280.58 154.544 280.58 151.45C280.58 148.174 282.608 145.938 285.52 145.938C288.536 145.938 290.382 148.096 290.382 151.58V153.764H292.826ZM282.738 151.32C282.738 153.088 283.492 153.764 285.754 153.764H288.224V151.736C288.224 149.344 287.236 148.122 285.39 148.122C283.778 148.122 282.738 149.422 282.738 151.32ZM293.416 153.764C294.664 153.764 295.262 153.218 295.262 152.1V151.034C295.262 147.706 297.134 145.678 300.228 145.678C303.322 145.678 305.038 147.524 305.038 150.93C305.038 154.154 303.192 156 300.15 156C298.33 156 297.108 155.428 296.51 154.388C295.938 155.506 295.028 156 293.416 156H292.818C292.714 156 292.558 155.922 292.558 154.908C292.558 153.868 292.714 153.764 292.818 153.764H293.416ZM302.88 150.93C302.88 148.902 301.996 147.862 300.15 147.862C298.304 147.862 297.42 148.902 297.42 151.034C297.42 152.724 298.408 153.764 300.15 153.764C301.944 153.764 302.88 152.854 302.88 150.93ZM309.022 137.852C308.294 137.852 307.904 138.112 307.696 138.658L307.02 140.27L305.564 139.62L306.344 137.618C306.864 136.318 307.592 135.928 309.022 135.928H315.392V137.852H309.022ZM310.088 141.544H312.246V156H310.088V141.544ZM321.423 160.108C324.361 160.108 326.129 158.314 326.129 155.246V147.628H328.287V151.762C328.287 153.036 329.041 153.764 330.471 153.764H330.809C330.913 153.764 331.069 153.894 331.069 154.908C331.069 155.922 330.913 156 330.809 156H330.471C329.535 156 328.651 155.636 328.287 155.116V155.428C328.209 159.64 325.505 162.344 321.475 162.344H320.747L320.539 160.108H321.423ZM338.577 142.454V144.508H331.713V142.454H338.577ZM335.613 151.84V147.628H337.771V151.866C337.771 154.466 336.055 156 333.507 156H330.803C330.699 156 330.543 155.922 330.543 154.908C330.543 153.868 330.699 153.764 330.803 153.764H333.507C334.729 153.764 335.613 153.088 335.613 151.84ZM348.195 148.122L349.391 145.938H356.047C357.945 145.938 359.453 146.796 359.453 148.668C359.453 149.994 358.829 151.034 356.099 153.348C356.619 153.66 357.321 153.764 359.089 153.764H361.637C361.767 153.764 361.897 153.868 361.897 154.908C361.897 155.922 361.767 156 361.637 156H359.089C355.761 156 354.721 155.688 353.681 154.674C351.159 156.234 350.275 157.768 350.275 159.458C350.275 161.72 351.549 162.786 354.825 162.786H359.895L359.687 165.022H354.695C350.119 165.022 348.117 163.228 348.117 159.536C348.117 157.196 349.261 155.168 351.809 153.348L348.195 148.122ZM357.347 149.11C357.347 148.408 356.775 148.018 355.735 148.018H350.587L353.915 152.88C356.723 150.54 357.347 149.786 357.347 149.11ZM362.225 153.764C363.473 153.764 364.071 153.218 364.071 152.1V151.034C364.071 147.706 365.943 145.678 369.037 145.678C372.131 145.678 373.847 147.524 373.847 150.93C373.847 154.154 372.001 156 368.959 156C367.139 156 365.917 155.428 365.319 154.388C364.747 155.506 363.837 156 362.225 156H361.627C361.523 156 361.367 155.922 361.367 154.908C361.367 153.868 361.523 153.764 361.627 153.764H362.225ZM371.689 150.93C371.689 148.902 370.805 147.862 368.959 147.862C367.113 147.862 366.229 148.902 366.229 151.034C366.229 152.724 367.217 153.764 368.959 153.764C370.753 153.764 371.689 152.854 371.689 150.93ZM382.968 153.764C383.098 153.764 383.228 153.868 383.228 154.908C383.228 155.922 383.098 156 382.968 156H382.292C379.614 156 378.262 154.31 378.262 151.45V139.178H380.42V151.346C380.42 152.958 381.07 153.764 382.396 153.764H382.968ZM384.8 153.764C387.426 153.764 388.908 153.4 390.728 152.36L394.68 150.046C394.134 148.148 393.276 147.55 391.404 147.55H385.32L385.606 145.288H391.768C394.862 145.288 396.214 146.666 397.202 150.774L391.742 154.154C389.532 155.532 387.79 156 384.722 156H382.98C382.876 156 382.72 155.922 382.72 154.908C382.72 153.868 382.876 153.764 382.98 153.764H384.8ZM390.546 161.46H387.79V159.276H390.546V161.46ZM416.675 155.168C416.675 159.614 414.023 162.344 409.915 162.344H406.717L406.509 160.108H409.941C412.723 160.108 414.491 158.522 414.517 156H411.917C408.303 156 406.873 154.544 406.873 151.45C406.873 148.174 408.901 145.938 411.813 145.938C414.829 145.938 416.675 148.096 416.675 151.58V155.168ZM409.031 151.32C409.031 153.088 409.785 153.764 412.047 153.764H414.517V151.736C414.517 149.344 413.529 148.122 411.683 148.122C410.071 148.122 409.031 149.422 409.031 151.32ZM425.575 160.108C428.513 160.108 430.281 158.314 430.281 155.246V147.628H432.439V151.762C432.439 153.036 433.193 153.764 434.623 153.764H434.961C435.065 153.764 435.221 153.894 435.221 154.908C435.221 155.922 435.065 156 434.961 156H434.623C433.687 156 432.803 155.636 432.439 155.116V155.428C432.361 159.64 429.657 162.344 425.627 162.344H424.899L424.691 160.108H425.575ZM436.125 144.508V142.454H442.989V144.508H436.125ZM445.251 153.764C445.355 153.764 445.511 153.868 445.511 154.882C445.511 155.922 445.355 156 445.251 156H444.445C442.911 156 441.819 155.506 441.325 154.466C440.701 155.506 439.557 156 438.075 156H434.955C434.851 156 434.695 155.922 434.695 154.908C434.695 153.868 434.851 153.764 434.955 153.764H438.075C439.401 153.764 440.285 153.036 440.285 151.84V147.628H442.443V151.788C442.443 153.088 443.171 153.764 444.523 153.764H445.251ZM458.836 138.892V140.946H456.47V138.892H458.836ZM454.208 144.508V142.454H461.072V144.508H454.208ZM468.196 153.764C468.326 153.764 468.482 153.868 468.482 154.908C468.482 155.922 468.326 156 468.196 156H467.442C465.804 156 464.712 155.506 464.218 154.466C463.594 155.506 462.502 156 460.994 156C459.2 156 458.108 155.428 457.614 154.388C456.99 155.428 455.846 156 454.208 156C452.284 156 451.192 155.428 450.698 154.388C450.074 155.428 448.93 156 447.292 156H445.264C445.16 156 445.004 155.922 445.004 154.908C445.004 153.868 445.16 153.764 445.264 153.764H447.292C448.852 153.764 449.71 152.958 449.71 151.71V147.628H451.894V151.71C451.894 153.01 452.622 153.764 454.208 153.764C455.768 153.764 456.626 152.958 456.626 151.71V147.628H458.784V151.71C458.784 153.01 459.538 153.764 460.994 153.764C462.45 153.764 463.23 152.958 463.23 151.71V147.628H465.388V151.71C465.388 153.088 466.116 153.764 467.442 153.764H468.196ZM478.513 153.764C478.617 153.764 478.773 153.868 478.773 154.882C478.773 155.922 478.617 156 478.513 156H477.707C476.173 156 475.081 155.506 474.587 154.466C473.963 155.506 472.819 156 471.337 156H468.217C468.113 156 467.957 155.922 467.957 154.908C467.957 153.868 468.113 153.764 468.217 153.764H471.337C472.663 153.764 473.547 153.036 473.547 151.84V147.628H475.705V151.788C475.705 153.088 476.433 153.764 477.785 153.764H478.513ZM473.573 159.276V161.356H466.709V159.276H473.573ZM485.493 151.866C485.493 154.466 483.777 156 481.229 156H478.525C478.421 156 478.265 155.922 478.265 154.908C478.265 153.868 478.421 153.764 478.525 153.764H481.229C482.451 153.764 483.335 153.088 483.335 151.84V147.628H485.493V151.866ZM481.983 161.46H479.227V159.276H481.983V161.46ZM505.694 151.164C505.694 153.036 506.37 153.764 507.592 153.764H508.216C508.346 153.764 508.476 153.868 508.476 154.908C508.476 155.922 508.346 156 508.216 156H507.592C505.772 156 504.524 155.272 504.108 153.53C503.328 154.362 501.82 154.726 500.39 154.726C497.478 154.726 495.84 153.14 495.84 150.02C495.84 147.108 497.868 144.716 500.91 144.716H503.536V142.922H505.694V151.164ZM497.998 149.968C497.998 151.632 498.804 152.49 500.52 152.49C502.366 152.49 503.536 151.762 503.536 150.618V146.9H500.91C499.116 146.9 497.998 147.992 497.998 149.968ZM510.651 138.502L519.101 134.966L519.543 136.37L510.651 140.062V138.502ZM515.409 153.764C516.917 153.764 517.801 153.114 517.801 152.126C517.801 151.424 517.489 150.8 516.735 150.02L510.625 143.962V142.09L520.115 138.32L520.765 140.4L513.173 143.39L518.373 148.616C519.517 149.76 519.959 150.982 519.959 152.152C519.959 154.388 518.373 156 515.409 156H508.207C508.103 156 507.947 155.922 507.947 154.908C507.947 153.868 508.103 153.764 508.207 153.764H515.409ZM524.791 156V139.178H526.949V156H524.791ZM547.436 151.164C547.436 153.036 548.112 153.764 549.334 153.764H549.958C550.088 153.764 550.218 153.868 550.218 154.908C550.218 155.922 550.088 156 549.958 156H549.334C547.514 156 546.266 155.272 545.85 153.53C545.07 154.362 543.562 154.726 542.132 154.726C539.22 154.726 537.582 153.14 537.582 150.02C537.582 147.108 539.61 144.716 542.652 144.716H545.278V142.922H547.436V151.164ZM539.74 149.968C539.74 151.632 540.546 152.49 542.262 152.49C544.108 152.49 545.278 151.762 545.278 150.618V146.9H542.652C540.858 146.9 539.74 147.992 539.74 149.968ZM550.547 153.764C551.795 153.764 552.393 153.218 552.393 152.1V151.034C552.393 147.706 554.265 145.678 557.359 145.678C560.453 145.678 562.169 147.524 562.169 150.93V151.658C562.169 153.166 562.793 153.764 563.963 153.764H564.613C564.717 153.764 564.873 153.868 564.873 154.908C564.873 155.922 564.717 156 564.613 156H563.963C562.481 156 561.493 155.506 561.025 154.336C560.297 155.454 558.867 156 557.281 156C555.461 156 554.239 155.428 553.641 154.388C553.069 155.506 552.159 156 550.547 156H549.949C549.845 156 549.689 155.922 549.689 154.908C549.689 153.868 549.845 153.764 549.949 153.764H550.547ZM560.011 150.93C560.011 148.902 559.127 147.862 557.281 147.862C555.435 147.862 554.551 148.902 554.551 151.034C554.551 152.724 555.539 153.764 557.281 153.764C559.075 153.764 560.011 152.854 560.011 150.93ZM571.827 153.764C573.335 153.764 574.219 153.114 574.219 152.126C574.219 151.424 573.907 150.8 573.153 150.02L567.043 143.962V142.09L576.533 138.32L577.183 140.4L569.591 143.39L574.791 148.616C575.935 149.76 576.377 150.982 576.377 152.152C576.377 154.388 574.791 156 571.827 156H564.625C564.521 156 564.365 155.922 564.365 154.908C564.365 153.868 564.521 153.764 564.625 153.764H571.827ZM595.516 146.848H592.76V144.69H595.516V146.848ZM593.956 162.344C589.562 162.344 587.144 159.666 587.144 155.142V150.228H589.302V155.09C589.302 158.366 590.914 160.108 594.008 160.108H595.1C598.064 160.108 600.014 158.262 600.014 155.298V147.628H602.172V155.09C602.172 159.64 599.234 162.344 595.1 162.344H593.956ZM618.69 153.764C618.82 153.764 618.95 153.868 618.95 154.908C618.95 155.922 618.82 156 618.69 156H616.194C615.882 159.978 613.334 162.344 609.486 162.344H606.288L606.08 160.108H609.512C612.294 160.108 614.062 158.522 614.088 156H611.488C607.874 156 606.444 154.544 606.444 151.45C606.444 148.174 608.472 145.938 611.384 145.938C614.4 145.938 616.246 148.096 616.246 151.58V153.764H618.69ZM608.602 151.32C608.602 153.088 609.356 153.764 611.618 153.764H614.088V151.736C614.088 149.344 613.1 148.122 611.254 148.122C609.642 148.122 608.602 149.422 608.602 151.32ZM632.254 138.892V140.946H629.888V138.892H632.254ZM627.626 144.508V142.454H634.49V144.508H627.626ZM636.648 147.628H638.806V151.658C638.806 154.388 637.09 156 634.412 156C632.618 156 631.526 155.428 631.032 154.388C630.408 155.428 629.264 156 627.626 156C625.702 156 624.61 155.428 624.116 154.388C623.492 155.428 622.348 156 620.71 156H618.682C618.578 156 618.422 155.922 618.422 154.908C618.422 153.868 618.578 153.764 618.682 153.764H620.71C622.27 153.764 623.128 152.958 623.128 151.71V147.628H625.312V151.71C625.312 153.01 626.04 153.764 627.626 153.764C629.186 153.764 630.044 152.958 630.044 151.71V147.628H632.202V151.71C632.202 153.01 632.956 153.764 634.412 153.764C635.868 153.764 636.648 153.01 636.648 151.71V147.628ZM647.97 153.764C648.1 153.764 648.23 153.868 648.23 154.908C648.23 155.922 648.1 156 647.97 156H647.294C644.616 156 643.264 154.31 643.264 151.45V139.178H645.422V151.346C645.422 152.958 646.072 153.764 647.398 153.764H647.97ZM652.064 153.764C650.972 153.01 650.244 151.58 650.244 150.228C650.244 147.394 652.402 145.288 655.288 145.288C657.992 145.288 660.072 147.342 660.072 150.02C660.072 151.528 659.292 152.906 657.914 153.764H661.762C663.296 153.764 664.076 153.114 664.076 152.126C664.076 151.502 663.842 150.878 662.932 149.942L657.654 144.404L659.214 142.818L664.596 148.564C665.766 149.812 666.234 150.982 666.234 152.152C666.234 154.466 664.57 156 661.762 156H658.824C656.614 156 655.782 155.922 655.132 155.584C654.482 155.922 653.442 156 651.336 156H647.982C647.878 156 647.722 155.922 647.722 154.908C647.722 153.868 647.878 153.764 647.982 153.764H652.064ZM655.028 153.712C656.952 152.906 657.992 151.658 657.992 150.228C657.992 148.59 656.822 147.472 655.158 147.472C653.494 147.472 652.324 148.59 652.324 150.228C652.324 151.71 653.26 152.906 655.028 153.712ZM698.644 138.892V140.946H696.278V138.892H698.644ZM694.016 144.508V142.454H700.88V144.508H694.016ZM702.986 147.628H705.144V151.658C705.144 154.388 703.428 156 700.724 156C698.93 156 697.838 155.428 697.37 154.388C696.72 155.428 695.576 156 693.938 156C692.742 156 691.988 155.688 691.624 155.246V155.558C691.546 159.562 688.686 162.344 684.552 162.344H683.408C679.014 162.344 676.596 159.666 676.596 155.142V150.228H678.754V155.09C678.754 158.366 680.366 160.108 683.46 160.108H684.552C687.516 160.108 689.466 158.262 689.466 155.298V147.628H691.624V151.762C691.624 152.958 692.352 153.764 693.938 153.764C695.524 153.764 696.382 152.958 696.382 151.71V147.628H698.54V151.71C698.54 153.01 699.268 153.764 700.724 153.764C702.18 153.764 702.986 153.01 702.986 151.71V147.628ZM713.135 144.508H710.379V142.35H713.135V144.508ZM713.031 155.246C713.031 159.64 710.249 162.344 706.219 162.344H704.399L704.191 160.108H706.167C709.105 160.108 710.873 158.314 710.873 155.246V147.628H713.031V155.246ZM729.545 153.764C729.675 153.764 729.805 153.868 729.805 154.908C729.805 155.922 729.675 156 729.545 156H727.049C726.737 159.978 724.189 162.344 720.341 162.344H717.143L716.935 160.108H720.367C723.149 160.108 724.917 158.522 724.943 156H722.343C718.729 156 717.299 154.544 717.299 151.45C717.299 148.174 719.327 145.938 722.239 145.938C725.255 145.938 727.101 148.096 727.101 151.58V153.764H729.545ZM719.457 151.32C719.457 153.088 720.211 153.764 722.473 153.764H724.943V151.736C724.943 149.344 723.955 148.122 722.109 148.122C720.497 148.122 719.457 149.422 719.457 151.32ZM730.135 153.764C731.383 153.764 731.981 153.218 731.981 152.1V151.034C731.981 147.706 733.853 145.678 736.947 145.678C740.041 145.678 741.757 147.524 741.757 150.93C741.757 154.154 739.911 156 736.869 156C735.049 156 733.827 155.428 733.229 154.388C732.657 155.506 731.747 156 730.135 156H729.537C729.433 156 729.277 155.922 729.277 154.908C729.277 153.868 729.433 153.764 729.537 153.764H730.135ZM739.599 150.93C739.599 148.902 738.715 147.862 736.869 147.862C735.023 147.862 734.139 148.902 734.139 151.034C734.139 152.724 735.127 153.764 736.869 153.764C738.663 153.764 739.599 152.854 739.599 150.93ZM745.741 137.852C745.013 137.852 744.623 138.112 744.415 138.658L743.739 140.27L742.283 139.62L743.063 137.618C743.583 136.318 744.311 135.928 745.741 135.928H752.111V137.852H745.741ZM746.807 141.544H748.965V156H746.807V141.544ZM762.952 144.43L764.486 142.896L769.478 148.642C770.648 149.968 771.038 151.06 771.038 152.152C771.038 154.388 769.452 156 766.488 156H759.078L758.87 153.764H766.488C768.022 153.764 768.88 153.114 768.88 152.126C768.88 151.502 768.568 150.904 767.814 150.02L762.952 144.43ZM775.447 156V139.178H777.605V156H775.447ZM787.607 153.764C788.829 153.764 789.635 153.166 789.635 152.36C789.635 151.606 789.141 150.306 786.749 143.858L788.751 142.948L791.793 151.58C792.339 153.14 792.911 153.764 794.159 153.764H794.705C794.835 153.764 794.965 153.894 794.965 154.908C794.965 155.974 794.835 156 794.705 156H794.081C792.521 156 791.481 155.506 790.883 154.362C790.233 155.506 789.193 156 787.607 156H781.523L781.315 153.764H787.607ZM796.405 153.764C798.563 153.764 799.655 153.582 800.409 153.192L796.899 148.122L798.095 145.938H804.751C806.649 145.938 808.157 146.796 808.157 148.668C808.157 149.994 807.533 151.034 804.803 153.348C805.323 153.66 806.025 153.764 807.793 153.764H810.341C810.471 153.764 810.601 153.868 810.601 154.908C810.601 155.922 810.471 156 810.341 156H807.793C804.465 156 803.425 155.688 802.385 154.674C800.799 155.688 799.135 156 796.327 156H794.715C794.611 156 794.455 155.922 794.455 154.908C794.455 153.868 794.611 153.764 794.715 153.764H796.405ZM806.077 149.11C806.077 148.408 805.479 148.018 804.439 148.018H799.291L802.619 152.88C805.453 150.54 806.077 149.786 806.077 149.11ZM818.104 142.454V144.508H811.24V142.454H818.104ZM815.14 151.84V147.628H817.298V151.866C817.298 154.466 815.582 156 813.034 156H810.33C810.226 156 810.07 155.922 810.07 154.908C810.07 153.868 810.226 153.764 810.33 153.764H813.034C814.256 153.764 815.14 153.088 815.14 151.84ZM835.054 155.922L835.288 153.764H845.818C845.922 153.764 846.078 153.868 846.078 154.908C846.078 155.922 845.922 156 845.818 156H843.114C843.374 156.26 843.504 156.728 843.504 157.222C843.504 160.238 840.748 162.344 836.458 162.344H834.456C830.062 162.344 827.644 159.666 827.644 155.142V150.228H829.802V155.09C829.802 158.366 831.414 160.108 834.508 160.108H836.458C839.682 160.108 841.346 159.016 841.346 157.274C841.346 156.338 840.904 155.922 839.89 155.922H835.054ZM846.632 153.764C847.854 153.764 848.712 153.036 848.712 151.84V139.178H850.896V151.866C850.896 154.466 849.18 156 846.632 156H845.826C845.722 156 845.566 155.922 845.566 154.908C845.566 153.868 845.722 153.764 845.826 153.764H846.632ZM865.226 155.168C865.226 159.614 862.574 162.344 858.466 162.344H855.268L855.06 160.108H858.492C861.274 160.108 863.042 158.522 863.068 156H860.468C856.854 156 855.424 154.544 855.424 151.45C855.424 148.174 857.452 145.938 860.364 145.938C863.38 145.938 865.226 148.096 865.226 151.58V155.168ZM857.582 151.32C857.582 153.088 858.336 153.764 860.598 153.764H863.068V151.736C863.068 149.344 862.08 148.122 860.234 148.122C858.622 148.122 857.582 149.422 857.582 151.32ZM885.436 151.164C885.436 153.036 886.112 153.764 887.334 153.764H887.958C888.088 153.764 888.218 153.868 888.218 154.908C888.218 155.922 888.088 156 887.958 156H887.334C885.514 156 884.266 155.272 883.85 153.53C883.07 154.362 881.562 154.726 880.132 154.726C877.22 154.726 875.582 153.14 875.582 150.02C875.582 147.108 877.61 144.716 880.652 144.716H883.278V142.922H885.436V151.164ZM877.74 149.968C877.74 151.632 878.546 152.49 880.262 152.49C882.108 152.49 883.278 151.762 883.278 150.618V146.9H880.652C878.858 146.9 877.74 147.992 877.74 149.968ZM895.255 144.508H892.499V142.35H895.255V144.508ZM891.069 153.764C892.395 153.764 893.279 153.036 893.279 151.84V147.628H895.437V151.788C895.437 153.088 896.165 153.764 897.517 153.764H898.245C898.349 153.764 898.505 153.868 898.505 154.882C898.505 155.922 898.349 156 898.245 156H897.439C895.905 156 894.813 155.506 894.319 154.466C893.695 155.506 892.551 156 891.069 156H887.949C887.845 156 887.689 155.922 887.689 154.908C887.689 153.868 887.845 153.764 887.949 153.764H891.069ZM905.46 153.764C906.968 153.764 907.852 153.114 907.852 152.126C907.852 151.424 907.54 150.8 906.786 150.02L900.676 143.962V142.09L910.166 138.32L910.816 140.4L903.224 143.39L908.372 148.564C913.156 153.374 913.806 153.764 915.392 153.764C915.496 153.764 915.652 153.868 915.652 154.908C915.652 155.922 915.496 156 915.392 156C913.286 156 912.428 155.61 909.724 152.906C909.594 154.674 908.06 156 905.46 156H898.258C898.154 156 897.998 155.922 897.998 154.908C897.998 153.868 898.154 153.764 898.258 153.764H905.46ZM925.692 153.764C925.796 153.764 925.952 153.868 925.952 154.882C925.952 155.922 925.796 156 925.692 156H924.886C923.352 156 922.26 155.506 921.766 154.466C921.142 155.506 919.998 156 918.516 156H915.396C915.292 156 915.136 155.922 915.136 154.908C915.136 153.868 915.292 153.764 915.396 153.764H918.516C919.842 153.764 920.726 153.036 920.726 151.84V147.628H922.884V151.788C922.884 153.088 923.612 153.764 924.964 153.764H925.692ZM920.752 159.276V161.356H913.888V159.276H920.752ZM926.303 153.764C927.551 153.764 928.149 153.218 928.149 152.1V151.034C928.149 147.706 930.021 145.678 933.115 145.678C936.209 145.678 937.925 147.524 937.925 150.93C937.925 154.154 936.079 156 933.037 156C931.217 156 929.995 155.428 929.397 154.388C928.825 155.506 927.915 156 926.303 156H925.705C925.601 156 925.445 155.922 925.445 154.908C925.445 153.868 925.601 153.764 925.705 153.764H926.303ZM935.767 150.93C935.767 148.902 934.883 147.862 933.037 147.862C931.191 147.862 930.307 148.902 930.307 151.034C930.307 152.724 931.295 153.764 933.037 153.764C934.831 153.764 935.767 152.854 935.767 150.93ZM759.732 196C758.796 196 758.328 195.584 758.328 194.44C758.328 193.348 758.796 192.958 759.732 192.958C760.694 192.958 761.162 193.348 761.162 194.44C761.162 195.584 760.694 196 759.732 196ZM775.164 191.164C775.164 193.036 775.84 193.764 777.062 193.764H777.686C777.816 193.764 777.946 193.868 777.946 194.908C777.946 195.922 777.816 196 777.686 196H777.062C775.242 196 773.994 195.272 773.578 193.53C772.798 194.362 771.29 194.726 769.86 194.726C766.948 194.726 765.31 193.14 765.31 190.02C765.31 187.108 767.338 184.716 770.38 184.716H773.006V182.922H775.164V191.164ZM767.468 189.968C767.468 191.632 768.274 192.49 769.99 192.49C771.836 192.49 773.006 191.762 773.006 190.618V186.9H770.38C768.586 186.9 767.468 187.992 767.468 189.968ZM791.25 178.892V180.946H788.884V178.892H791.25ZM786.622 184.508V182.454H793.486V184.508H786.622ZM800.61 193.764C800.74 193.764 800.896 193.868 800.896 194.908C800.896 195.922 800.74 196 800.61 196H799.856C798.218 196 797.126 195.506 796.632 194.466C796.008 195.506 794.916 196 793.408 196C791.614 196 790.522 195.428 790.028 194.388C789.404 195.428 788.26 196 786.622 196C784.698 196 783.606 195.428 783.112 194.388C782.488 195.428 781.344 196 779.706 196H777.678C777.574 196 777.418 195.922 777.418 194.908C777.418 193.868 777.574 193.764 777.678 193.764H779.706C781.266 193.764 782.124 192.958 782.124 191.71V187.628H784.308V191.71C784.308 193.01 785.036 193.764 786.622 193.764C788.182 193.764 789.04 192.958 789.04 191.71V187.628H791.198V191.71C791.198 193.01 791.952 193.764 793.408 193.764C794.864 193.764 795.644 192.958 795.644 191.71V187.628H797.802V191.71C797.802 193.088 798.53 193.764 799.856 193.764H800.61ZM810.927 193.764C811.031 193.764 811.187 193.868 811.187 194.882C811.187 195.922 811.031 196 810.927 196H810.121C808.587 196 807.495 195.506 807.001 194.466C806.377 195.506 805.233 196 803.751 196H800.631C800.527 196 800.371 195.922 800.371 194.908C800.371 193.868 800.527 193.764 800.631 193.764H803.751C805.077 193.764 805.961 193.036 805.961 191.84V187.628H808.119V191.788C808.119 193.088 808.847 193.764 810.199 193.764H810.927ZM805.987 199.276V201.356H799.123V199.276H805.987ZM811.537 193.764C812.785 193.764 813.383 193.218 813.383 192.1V191.034C813.383 187.706 815.255 185.678 818.349 185.678C821.443 185.678 823.159 187.524 823.159 190.93C823.159 194.154 821.313 196 818.271 196C816.451 196 815.229 195.428 814.631 194.388C814.059 195.506 813.149 196 811.537 196H810.939C810.835 196 810.679 195.922 810.679 194.908C810.679 193.868 810.835 193.764 810.939 193.764H811.537ZM821.001 190.93C821.001 188.902 820.117 187.862 818.271 187.862C816.425 187.862 815.541 188.902 815.541 191.034C815.541 192.724 816.529 193.764 818.271 193.764C820.065 193.764 821.001 192.854 821.001 190.93ZM840.92 195.922L841.154 193.764H851.684C851.788 193.764 851.944 193.868 851.944 194.908C851.944 195.922 851.788 196 851.684 196H848.98C849.24 196.26 849.37 196.728 849.37 197.222C849.37 200.238 846.614 202.344 842.324 202.344H840.322C835.928 202.344 833.51 199.666 833.51 195.142V190.228H835.668V195.09C835.668 198.366 837.28 200.108 840.374 200.108H842.324C845.548 200.108 847.212 199.016 847.212 197.274C847.212 196.338 846.77 195.922 845.756 195.922H840.92ZM852.497 193.764C853.719 193.764 854.577 193.036 854.577 191.84V179.178H856.761V191.866C856.761 194.466 855.045 196 852.497 196H851.691C851.587 196 851.431 195.922 851.431 194.908C851.431 193.868 851.587 193.764 851.691 193.764H852.497ZM866.151 193.764C866.281 193.764 866.411 193.868 866.411 194.908C866.411 195.922 866.281 196 866.151 196H865.475C862.797 196 861.445 194.31 861.445 191.45V179.178H863.603V191.346C863.603 192.958 864.253 193.764 865.579 193.764H866.151ZM869.414 193.764C868.634 193.01 868.348 192.022 868.348 190.982C868.348 188.044 870.376 185.86 873.418 185.86C874.666 185.86 875.836 186.146 877.214 187.004L876.46 188.772C875.264 188.226 874.302 188.044 873.418 188.044C871.754 188.044 870.506 189.266 870.506 190.852C870.506 192.542 871.572 193.764 873.262 193.764H877.916L877.708 196H866.164C866.06 196 865.904 195.922 865.904 194.908C865.904 193.868 866.06 193.764 866.164 193.764H869.414ZM895.687 195.922L895.921 193.764H906.451C906.555 193.764 906.711 193.868 906.711 194.908C906.711 195.922 906.555 196 906.451 196H903.747C904.007 196.26 904.137 196.728 904.137 197.222C904.137 200.238 901.381 202.344 897.091 202.344H895.089C890.695 202.344 888.277 199.666 888.277 195.142V190.228H890.435V195.09C890.435 198.366 892.047 200.108 895.141 200.108H897.091C900.315 200.108 901.979 199.016 901.979 197.274C901.979 196.338 901.537 195.922 900.523 195.922H895.687ZM907.265 193.764C908.487 193.764 909.345 193.036 909.345 191.84V179.178H911.529V191.71C911.529 193.192 912.413 193.764 913.531 193.764H914.181C914.285 193.764 914.441 193.868 914.441 194.882C914.441 195.922 914.285 196 914.181 196H913.453C911.945 196 910.853 195.454 910.437 194.44C909.839 195.454 908.747 196 907.265 196H906.459C906.355 196 906.199 195.922 906.199 194.908C906.199 193.868 906.355 193.764 906.459 193.764H907.265ZM924.474 193.764C924.578 193.764 924.734 193.868 924.734 194.882C924.734 195.922 924.578 196 924.474 196H923.668C922.134 196 921.042 195.506 920.548 194.466C919.924 195.506 918.78 196 917.298 196H914.178C914.074 196 913.918 195.922 913.918 194.908C913.918 193.868 914.074 193.764 914.178 193.764H917.298C918.624 193.764 919.508 193.036 919.508 191.84V187.628H921.666V191.788C921.666 193.088 922.394 193.764 923.746 193.764H924.474ZM919.534 199.276V201.356H912.67V199.276H919.534ZM932.858 182.246H930.102V180.088H932.858V182.246ZM926.306 193.764C928.932 193.764 930.414 193.4 932.234 192.36L936.186 190.046C935.64 188.148 934.782 187.55 932.91 187.55H926.826L927.112 185.288H933.274C936.368 185.288 937.72 186.666 938.708 190.774L933.248 194.154C931.038 195.532 929.296 196 926.228 196H924.486C924.382 196 924.226 195.922 924.226 194.908C924.226 193.868 924.382 193.764 924.486 193.764H926.306Z" fill="black"/>
</svg>
