<svg width="278" height="111" viewBox="0 0 278 111" fill="none" xmlns="http://www.w3.org/2000/svg">
<path d="M0.363146 0.140992C0.581033 0.281987 0.798919 0.493477 1.01681 0.634472C2.17887 1.26895 3.41357 1.97392 4.57564 2.6084C5.7377 3.24287 6.9724 3.87735 8.13447 4.58233C8.78813 4.93481 9.44179 5.2873 10.0228 5.71029C10.1681 5.78078 10.3133 6.06277 10.3133 6.20377C10.386 8.10719 10.4586 9.94012 10.4586 11.8436C10.4586 20.7967 10.4586 29.7499 10.4586 38.6325C10.4586 38.7735 10.4586 38.985 10.4586 39.267C10.6765 39.126 10.8217 39.0555 10.8944 38.985C12.0564 37.9276 13.1459 36.7996 14.2353 35.7421C14.5258 35.4602 15.0342 35.2487 15.1795 34.7552C15.2521 34.4732 15.3974 34.2617 15.3974 33.9797C15.3974 28.6219 15.3974 23.3346 15.3974 17.9768C15.3974 15.0159 15.3248 12.1255 15.3248 9.16465C15.3248 9.02366 15.3248 8.88266 15.3974 8.67117C16.051 9.02366 16.7047 9.30564 17.2857 9.65813C17.8668 10.0106 18.5204 10.3631 19.1015 10.7156C20.1909 11.3501 21.2077 11.914 22.2972 12.5485C23.2413 13.1125 24.2581 13.6765 25.275 14.17C25.5655 14.311 25.7107 14.5929 25.7107 14.8749C25.7107 16.0734 25.7107 17.3423 25.7107 18.5408C25.7107 22.5591 25.7107 26.5775 25.7107 30.5958C25.7107 33.0632 25.7834 35.4602 25.856 37.9276C25.856 38.421 25.7107 38.844 25.275 39.267C23.314 41.0999 21.4256 43.0034 19.4646 44.9068C19.3194 45.0478 19.2467 45.1888 19.1015 45.3298C19.2467 45.4003 19.4646 45.4708 19.6099 45.5413C20.7719 45.8233 21.8614 46.1052 23.0234 46.3167C23.7497 46.4577 24.5487 46.6692 25.275 46.8102C25.5655 46.8807 25.7107 47.0217 25.7107 47.3742C25.7107 48.7136 25.7107 50.0531 25.7107 51.3925C25.7107 61.9671 25.7107 72.6122 25.7107 83.1868C25.7107 83.5393 25.5655 83.6803 25.275 83.8213C23.895 84.5968 22.4424 85.4427 21.0625 86.2182C19.9004 86.9232 18.6657 87.5577 17.5036 88.2627C16.85 88.6151 16.1963 88.9676 15.3974 89.3906C15.3974 88.7561 15.3248 88.1921 15.3248 87.6282C15.3248 77.0536 15.3248 66.479 15.3248 55.9044C15.3248 55.7634 15.3248 55.6224 15.3248 55.4814C15.2521 55.0584 14.9616 54.9174 14.5985 54.7764C13.4364 54.5649 12.347 54.2829 11.1849 54.0714C11.1849 54.0714 11.1849 54.0714 11.1123 54.0714C10.2407 53.7895 10.2407 53.7895 10.2407 54.6354C10.2407 54.9879 10.2407 55.3404 10.2407 55.6929C10.5312 65.915 10.3133 76.1371 10.386 86.3592C10.386 88.0512 10.4586 89.7431 10.4586 91.3645C10.4586 91.9285 10.2407 92.281 9.80494 92.4925C8.64287 93.127 7.48081 93.8319 6.31874 94.4664C5.30193 95.0304 4.28512 95.5944 3.34094 96.1583C2.54202 96.5813 1.81573 97.0748 1.01681 97.4978C0.72629 97.6388 0.435776 97.7798 0.145259 97.9208C0.145259 97.6388 0.145259 97.4273 0.145259 97.2863C0.145259 76.2076 0.145259 55.0584 0.145259 33.9797C0.145259 33.7682 0.0726292 33.6272 0 33.4157C0 22.2771 0 11.1386 0 0C0.217888 0.140995 0.290517 0.140992 0.363146 0.140992Z" fill="black"/>
<path d="M41.3988 63.3068C42.343 62.8133 43.2145 62.3198 44.0861 61.8263C44.8124 61.4034 45.6113 60.9804 46.3376 60.5574C46.5555 60.4164 46.9912 60.4164 47.2091 60.5574C48.4438 61.1919 49.6059 61.8264 50.7679 62.4608C52.0753 63.1658 53.31 63.8708 54.6173 64.5757C55.4162 64.9987 56.1425 65.4217 56.9414 65.8447C57.0141 65.9152 57.0141 65.9857 57.0867 66.0562C56.5783 66.3382 56.0699 66.6202 55.6341 66.9022C54.472 67.5366 53.31 68.2416 52.1479 68.8761C51.349 69.2991 50.5501 69.7925 49.7511 70.2155C48.2986 71.0615 46.9186 71.837 45.466 72.6829C44.8124 73.0354 44.1587 73.3879 43.5777 73.7404C42.4156 74.3749 41.2535 75.0798 40.0915 75.7143C38.4936 76.6308 36.8958 77.4768 35.2979 78.3932C34.2811 78.9572 33.1917 79.5917 32.1749 80.1557C31.8844 80.2967 31.6665 80.5081 31.376 80.6491C31.3033 80.7196 31.1581 80.7196 31.0854 80.7196C31.0854 80.5081 31.0854 80.3672 31.0854 80.1557C31.0854 69.8631 31.0854 59.5704 31.0854 49.2073C31.0854 44.343 31.0128 39.4787 30.9402 34.6144C30.9402 34.4734 30.9402 34.3324 30.9402 34.1914C31.5938 34.5439 32.2475 34.8964 32.8285 35.1784C33.2643 35.3898 33.7001 35.6718 34.1359 35.9538C35.1527 36.5178 36.1695 37.0818 37.1863 37.6458C37.84 37.9982 38.4936 38.3507 39.2199 38.7737C40.2367 39.3377 41.3262 39.9722 42.343 40.5362C42.9966 40.8886 43.5777 41.2411 44.2313 41.5231C45.3208 42.0871 46.3376 42.7216 47.427 43.2855C48.6617 43.9905 49.969 44.6955 51.2037 45.33C52.5837 46.1054 53.891 46.8104 55.271 47.5859C56.433 48.2909 57.6677 48.9253 58.8298 49.6303C59.774 50.1238 60.7181 50.6878 61.6623 51.1813C62.0981 51.3927 62.4612 51.4632 62.897 51.1813C63.9865 50.4763 65.0759 49.9123 66.238 49.2778C66.5285 49.1368 66.819 48.9253 67.1821 48.7139C66.8916 48.5024 66.6011 48.2909 66.3106 48.1499C65.2938 47.5859 64.2043 47.0219 63.1875 46.4579C62.0255 45.8235 60.8634 45.1185 59.7013 44.484C58.975 44.061 58.3214 43.779 57.5951 43.3561C56.5783 42.7921 55.6341 42.2281 54.6173 41.6641C53.891 41.2411 53.1647 40.8886 52.3658 40.4657C51.4216 39.9017 50.4774 39.4082 49.5333 38.8442C48.807 38.4212 48.008 38.0687 47.2817 37.6458C46.0471 36.9408 44.8124 36.2358 43.505 35.5308C42.7787 35.1079 42.0524 34.7554 41.3988 34.4029C40.1641 33.6979 38.8568 32.9929 37.6221 32.288C36.1695 31.442 34.7169 30.6665 33.1917 29.8911C32.6107 29.6091 32.0296 29.2566 31.5212 28.9041C31.1581 28.6926 30.9402 28.4811 30.9402 27.9876C30.9402 24.8153 30.9402 21.6429 30.9402 18.4705C30.9402 18.0475 30.8676 17.554 30.7949 17.0605C31.5938 17.554 32.3201 17.9065 33.0464 18.3295C34.499 19.1755 36.0242 19.9509 37.4768 20.7969C38.7841 21.5019 40.1641 22.2773 41.4714 23.0528C42.6335 23.6873 43.7229 24.3218 44.885 24.9562C46.2649 25.7317 47.5723 26.4367 48.9522 27.2122C50.0417 27.8466 51.2037 28.4106 52.2932 29.0451C53.5279 29.7501 54.7625 30.455 55.9246 31.16C56.6509 31.583 57.4498 31.9355 58.1761 32.3585C59.1203 32.9224 60.0645 33.4159 61.0087 33.9799C61.5897 34.3324 62.1707 34.6144 62.8244 34.9669C64.1317 35.6718 65.3664 36.4473 66.6737 37.1523C67.4 37.5753 68.1263 37.9278 68.8526 38.3507C70.3052 39.1262 71.7578 39.9722 73.283 40.7477C74.4451 41.3821 75.5345 42.0166 76.6966 42.6511C78.0039 43.4265 79.3838 44.1315 80.6912 44.907C81.8532 45.5415 82.9427 46.1759 84.1047 46.8104C85.2668 47.4449 86.3562 48.0794 87.5183 48.7139C87.5909 48.7843 87.6636 48.7843 87.7362 48.8548C87.0099 49.2778 86.3562 49.6303 85.7026 49.9828C84.6131 50.6173 83.5963 51.1813 82.5069 51.8157C81.9259 52.1682 81.2722 52.5207 80.6912 52.8027C79.8196 53.2962 78.9481 53.7897 78.0765 54.2831C77.4229 54.6356 76.7692 54.9881 76.1882 55.3406C75.0261 55.9751 73.864 56.68 72.6293 57.385C71.2494 58.1605 69.8694 58.936 68.4895 59.7819C67.5453 60.3459 66.6011 60.8394 65.6569 61.3329C64.6401 61.8968 63.6959 62.4608 62.6791 63.0248C62.3886 63.2363 62.0255 63.1658 61.735 63.0248C60.936 62.6018 60.1371 62.1083 59.3382 61.6854C57.813 60.8394 56.2878 59.9934 54.7626 59.1474C53.7457 58.5835 52.7289 58.0195 51.7121 57.4555C50.4774 56.7505 49.2427 56.0456 48.008 55.3406C47.3544 54.9881 46.7007 54.6356 46.1197 54.2831C44.9576 53.5782 43.7229 52.9437 42.5609 52.2387C42.1977 52.0272 41.7619 51.8157 41.3262 51.6042C41.3262 52.9437 41.3262 54.2126 41.3262 55.4816C41.3262 56.7505 41.3262 58.0195 41.3262 59.2884C41.2535 60.6279 41.1083 61.9673 41.3988 63.3068Z" fill="#4866CF"/>
<path d="M9.66006 103.49C9.87794 103.49 9.95057 103.49 10.0958 103.49C11.4032 103.419 12.4926 104.406 12.5652 105.675C12.6379 106.803 12.2021 107.649 11.4032 108.425C10.2411 109.482 8.86114 110.258 7.40855 110.892C7.33592 110.963 7.26329 110.892 7.11804 110.963C5.95597 107.931 4.7939 104.9 3.63184 101.869C5.01179 100.882 6.31911 99.6831 8.20747 99.6126C9.95057 99.4716 11.04 101.305 10.1685 102.785C10.0958 102.997 9.87794 103.208 9.66006 103.49ZM8.35273 108.566C9.15165 108.213 9.80532 107.79 10.2411 107.156C10.5316 106.662 10.5316 106.028 10.1685 105.534C9.80531 105.111 9.36954 104.97 8.71588 105.182C8.49799 105.252 8.35273 105.323 8.20747 105.393C7.33592 105.816 7.33593 105.816 7.69907 106.662C7.84433 107.297 8.13484 107.931 8.35273 108.566ZM6.82752 104.406C7.48118 104.054 8.13485 103.702 8.49799 103.067C8.78851 102.644 8.78851 102.151 8.49799 101.728C8.20747 101.305 7.7717 101.164 7.33593 101.375C6.90015 101.516 6.537 101.798 6.17386 102.01C6.10123 102.08 6.0286 102.221 6.10123 102.362C6.31911 102.997 6.537 103.702 6.82752 104.406Z" fill="black"/>
<path d="M25.4197 100.529C24.8387 100.882 24.2577 101.164 23.6766 101.516C23.5314 101.234 23.4588 100.952 23.3135 100.67C22.2967 97.9912 21.2799 95.3123 20.2631 92.7039C20.1178 92.4219 20.1904 92.2809 20.4083 92.0694C21.3525 91.2939 22.3693 90.5889 23.5314 90.2365C25.8555 89.461 27.3081 91.1529 27.3807 92.9858C27.4534 94.4663 26.6544 95.5238 25.4924 96.2992C25.1292 96.5812 24.6934 96.7927 24.3303 97.0042C24.0398 97.1452 24.0398 97.2862 24.1124 97.4977C24.6935 98.4141 25.0566 99.4716 25.4197 100.529ZM23.5314 95.5238C24.185 95.3123 24.6935 95.0303 25.1292 94.4663C25.4197 94.0433 25.565 93.6203 25.4924 93.1269C25.4197 92.3514 24.6934 91.6464 23.9672 91.8579C23.4588 91.9989 23.023 92.2809 22.5872 92.5629C22.5146 92.6334 22.5146 92.7744 22.5146 92.8449C22.8777 93.6908 23.1682 94.6073 23.5314 95.5238Z" fill="black"/>
<path d="M88.3896 63.9408C87.8086 64.2933 87.3002 64.5753 86.7918 64.8573C86.5739 64.4343 86.356 64.0818 86.1381 63.6588H86.0655C85.9929 63.9408 85.9929 64.2228 85.9202 64.5048C85.775 65.4918 84.9761 66.2672 83.8866 66.4787C83.0151 66.6197 82.0709 66.1262 81.4898 65.2098C79.892 62.5309 80.7636 59.57 83.5961 58.16C84.1045 57.8781 84.6855 57.7371 85.1939 57.5256C85.4845 57.3846 85.6297 57.4551 85.7023 57.7371C86.356 59.429 87.0097 61.0504 87.6633 62.7424C87.9538 63.1654 88.1717 63.5178 88.3896 63.9408ZM85.3392 62.9539C85.2666 62.0374 84.9034 61.1914 84.5403 60.3455C84.4677 60.134 84.2498 59.711 84.1771 59.711C83.8866 59.711 83.6687 59.9225 83.4508 60.0635C83.3782 60.134 83.3056 60.2045 83.233 60.3455C82.6519 61.0504 82.6519 61.8964 82.8698 62.6719C83.0151 63.1654 83.233 63.6588 83.5961 64.0818C84.0319 64.6458 84.7582 64.5753 85.0487 63.9408C85.1939 63.7293 85.1939 63.3064 85.3392 62.9539Z" fill="black"/>
<path d="M69.8689 66.7607C70.7404 66.7607 71.3941 67.0427 71.9751 67.6772C73.2825 69.0872 73.6456 71.4841 72.3383 73.176C71.6846 74.022 70.8857 74.5154 69.7963 74.7269C68.6342 74.9384 67.5448 74.3745 66.8185 73.317C65.5838 71.4136 65.8743 69.0872 67.4721 67.6772C68.1984 67.1132 68.9247 66.7607 69.8689 66.7607ZM68.0532 70.2151C68.0532 71.0611 68.3437 71.8366 68.9247 72.471C69.651 73.2465 70.6678 72.9645 71.031 72.048C71.3941 71.0611 70.8857 69.3691 70.0141 68.7347C69.651 68.4527 69.2879 68.3822 68.8521 68.5937C68.1984 68.9462 68.0532 69.5101 68.0532 70.2151Z" fill="black"/>
<path d="M33.627 89.5316C33.627 87.7691 34.7164 86.2887 36.3869 85.6542C37.5489 85.2312 38.8563 85.5132 39.6552 86.5002C41.1078 88.1921 41.253 91.012 39.2194 92.6334C38.3478 93.3384 37.331 93.7614 36.0963 93.4089C35.4427 93.1974 34.9343 92.8449 34.5711 92.281C33.9901 91.435 33.627 90.5185 33.627 89.5316ZM35.5879 88.8971C35.5879 89.7431 35.8785 90.589 36.4595 91.2235C37.1858 91.999 38.2752 91.717 38.5657 90.73C38.8563 89.5316 38.4931 88.4036 37.6216 87.5576C37.1858 87.0642 36.4595 87.1346 35.9511 87.6281C35.7332 87.9806 35.5879 88.4036 35.5879 88.8971Z" fill="black"/>
<path d="M80.982 68.2413C80.4009 68.5938 79.8199 68.9463 79.1662 69.2988C78.8757 68.5938 78.6579 67.8888 78.3673 67.1839C78.0768 66.4084 77.7863 65.6329 77.4232 64.928C77.2779 64.5755 77.06 64.2935 76.6242 64.2935C76.1885 64.2935 75.8979 64.646 75.7527 65.0689C75.4622 65.8444 75.6074 66.5494 75.8979 67.2544C76.2611 68.2413 76.6242 69.2283 76.9874 70.1448C77.1326 70.4267 77.06 70.5677 76.7695 70.7087C76.2611 70.9907 75.8253 71.2727 75.3169 71.5547C74.7359 70.0038 74.1548 68.5233 73.5738 67.0429C73.3559 66.4084 73.0654 65.7034 72.7749 65.0689C72.7023 64.8575 72.7023 64.7165 72.9201 64.5755C73.3559 64.364 73.7917 64.082 74.2275 63.8C74.3727 64.1525 74.5906 64.505 74.7359 64.8575C74.8811 64.364 74.9538 64.0115 75.099 63.659C75.4622 62.954 76.0432 62.4605 76.7695 62.1786C77.4958 61.9671 78.2947 62.2491 78.7305 62.954C79.0936 63.5885 79.3841 64.223 79.6747 64.928C80.1831 65.9854 80.6188 67.1134 80.982 68.2413Z" fill="black"/>
<path d="M18.884 102.221C19.1019 102.433 19.2472 102.715 19.3924 102.926C19.7556 103.42 19.8282 103.42 19.3198 103.913C18.6661 104.618 17.8672 105.182 16.923 105.535C15.8336 105.958 14.6715 105.676 13.8726 104.9C12.42 103.42 12.2748 100.952 13.4368 99.3308C14.0905 98.4848 14.8894 97.9208 15.9788 97.8503C16.7778 97.7799 17.4314 98.0619 17.8672 98.7668C18.303 99.4718 18.3756 100.177 17.9398 100.882C17.4314 101.728 16.7051 102.292 15.9062 102.785C15.6883 102.926 15.4704 102.997 15.3252 103.138C15.1073 103.208 15.1073 103.349 15.2525 103.49C15.6157 103.913 16.1967 104.054 16.7778 103.843C17.5767 103.561 18.0851 103.208 18.884 102.221ZM14.5989 101.869C15.2526 101.516 15.8336 101.164 16.2694 100.67C16.5599 100.318 16.5599 99.9653 16.2694 99.7538C16.0515 99.5423 15.6883 99.4718 15.3252 99.6833C14.5989 100.036 14.3084 100.882 14.5989 101.869Z" fill="black"/>
<path d="M51.4215 83.2573C51.712 83.6098 51.9299 83.9623 52.2204 84.3148C52.293 84.3853 52.293 84.5263 52.2204 84.5968C51.3488 85.7247 50.332 86.5002 48.9521 86.7822C47.8626 86.9937 46.9911 86.5707 46.3374 85.7247C45.1027 84.1738 45.0301 81.9884 46.1195 80.4374C46.7732 79.5915 47.5721 79.0275 48.6615 78.8865C49.4605 78.816 50.1141 79.098 50.5499 79.803C50.9857 80.5079 51.0583 81.2129 50.6225 81.9179C50.1141 82.7638 49.2426 83.3278 48.4437 83.8918C48.371 83.8918 48.371 83.9623 48.2984 83.9623C48.1531 84.1033 48.0079 84.2443 47.8626 84.3853C48.0805 84.5263 48.2984 84.8788 48.5889 84.8788C48.9521 84.9493 49.3878 84.8788 49.751 84.7378C50.4046 84.4558 50.9131 83.8918 51.4215 83.2573ZM47.1363 82.9048C47.4269 82.7638 47.7174 82.6228 47.9353 82.4113C48.2984 82.1294 48.5889 81.8474 48.8794 81.5654C49.0973 81.3539 49.0973 81.0014 48.8794 80.7899C48.6615 80.5784 48.4437 80.5079 48.0805 80.6489C47.209 80.9309 46.7732 81.9179 47.1363 82.9048Z" fill="black"/>
<path d="M43.2146 79.9437C41.8346 80.4372 41.9073 81.2127 42.1978 82.1292C42.2704 82.3407 42.4157 82.4112 42.5609 82.2702C42.8515 82.0587 43.2146 81.9177 43.5777 81.7062C43.7956 82.1997 43.9409 82.6931 44.1588 83.1866C43.7956 83.3981 43.5051 83.6096 43.2146 83.7506C42.9967 83.8916 42.9241 83.9621 43.0693 84.2441C43.6504 85.795 44.2314 87.346 44.8851 88.8969C44.9577 89.1789 44.9577 89.3199 44.7398 89.4609C44.2314 89.7429 43.7956 90.0249 43.2872 90.3069C42.6336 88.5444 41.9799 86.782 41.2536 85.0196C40.9631 85.1605 40.6726 85.3015 40.4547 85.4425C40.2368 84.9491 40.0915 84.5261 39.9463 84.0326C40.2368 83.8211 40.6 83.6801 40.6726 83.4686C40.7452 83.2571 40.5273 82.9046 40.4547 82.6226C39.9463 80.7192 40.7452 79.1683 42.5609 78.5338C42.8515 78.4633 42.9241 78.4633 42.9967 78.7453C42.9241 79.0978 43.0693 79.5208 43.2146 79.9437Z" fill="black"/>
<path d="M58.3217 79.3799C58.9028 79.1684 59.4112 78.9569 59.9196 78.7454C60.0648 78.6749 60.2101 78.5339 60.2827 78.3929C60.3553 78.1814 60.5006 77.8994 60.428 77.6879C60.3553 77.4764 60.0648 77.3354 59.8469 77.2649C59.5564 77.1944 59.2659 77.2649 58.9028 77.2649C58.1038 77.2649 57.3775 77.1239 57.0144 76.2075C56.6512 75.291 56.7965 74.445 57.3775 73.7401C57.9586 72.9646 58.7575 72.4711 59.629 72.1891C59.9196 72.1186 60.0648 72.1891 60.1374 72.5416C60.2101 72.8941 60.2827 73.2466 60.3553 73.5286C59.9196 73.7401 59.4838 73.8811 59.1206 74.0926C58.6849 74.304 58.5396 74.727 58.6122 75.009C58.6849 75.3615 58.9754 75.5025 59.4838 75.5025C59.9922 75.5025 60.5006 75.432 61.009 75.573C62.0984 75.855 62.6068 77.2649 62.0984 78.4634C61.6627 79.5208 60.8637 80.0848 59.9196 80.5078C59.629 80.6488 59.2659 80.7193 58.9028 80.7898C58.6849 80.8603 58.6122 80.7898 58.5396 80.5078C58.3943 80.0848 58.3217 79.7323 58.3217 79.3799Z" fill="black"/>
<path d="M55.271 76.6305C54.7626 76.842 54.3268 76.983 53.8911 77.1945C53.6732 77.265 53.5279 77.4765 53.3827 77.688C53.1648 77.97 53.31 78.3224 53.6732 78.4634C53.9637 78.5339 54.2542 78.5339 54.6173 78.5339C55.1257 78.5339 55.6342 78.5339 56.0699 78.6044C57.232 78.9569 57.7404 80.2964 57.232 81.4243C56.7236 82.4818 55.852 83.0458 54.7626 83.5392C54.3995 83.6802 54.0363 83.7507 53.6732 83.8212C53.3827 83.8917 53.2374 83.7507 53.2374 83.5392C53.1648 83.1867 53.0921 82.8343 53.0195 82.4818C53.4553 82.3408 53.8911 82.2703 54.3268 82.1293C54.6173 81.9883 54.9079 81.8473 55.1984 81.6358C55.4163 81.4243 55.5615 81.2128 55.4163 80.8603C55.271 80.5784 55.0531 80.4374 54.7626 80.4374C54.3268 80.4374 53.9637 80.4374 53.5279 80.4374C51.7122 80.4374 50.9859 78.8159 51.6396 77.547C52.2206 76.278 53.31 75.714 54.6173 75.2911C54.9079 75.2206 55.0531 75.2911 55.0531 75.573C55.1258 75.9255 55.1984 76.278 55.271 76.6305Z" fill="black"/>
<path d="M87.9536 52.0977C88.2441 52.8731 88.5347 53.6486 88.8252 54.4241C89.7693 56.821 90.6409 59.2179 91.5851 61.6853C91.7303 61.9673 91.6577 62.1083 91.3672 62.2493C90.8588 62.5313 90.423 62.8133 89.9146 63.0952C89.6241 62.2493 89.2609 61.4033 88.9704 60.5573C88.0989 58.2309 87.2273 55.9045 86.3558 53.5076C86.2832 53.2256 86.2831 53.0846 86.5737 52.9436C86.9368 52.6616 87.4452 52.3796 87.9536 52.0977Z" fill="black"/>
<path d="M28.2529 90.5889C28.6887 90.3069 29.1971 90.0249 29.7055 89.743C29.9234 90.1659 30.1413 90.5889 30.3592 91.0119C30.4318 91.0119 30.4318 91.0119 30.5044 91.0119C30.5044 89.884 30.7223 88.897 31.957 88.333C32.1749 88.9675 32.3928 89.5315 32.6107 90.1659C32.6107 90.1659 32.6107 90.2364 32.5381 90.2364C31.2307 90.9414 31.1581 92.1399 31.5939 93.4088C31.8844 94.3253 32.2475 95.1713 32.6107 96.0172C32.6833 96.2992 32.6833 96.3697 32.4654 96.5107C31.957 96.7927 31.5212 97.0747 31.0128 97.3567C30.0687 95.1008 29.1245 92.8448 28.2529 90.5889Z" fill="black"/>
<path d="M64.6397 77.7585C63.7681 75.5026 62.8966 73.2467 62.0977 70.9203C62.6787 70.5678 63.2597 70.2153 63.9134 69.8628C64.2765 70.7793 64.6397 71.6957 64.9302 72.5417C65.4386 73.8106 65.8744 75.0796 66.3828 76.2781C66.528 76.56 66.4554 76.701 66.1649 76.842C65.5839 77.1945 65.1481 77.4765 64.6397 77.7585Z" fill="black"/>
<path d="M63.3326 68.4527C63.3326 69.0166 62.7515 69.5806 62.0979 69.5806C61.5168 69.5806 61.0811 69.0871 61.0811 68.4527C61.0811 67.8182 61.6621 67.3247 62.2431 67.3247C62.8968 67.3952 63.3326 67.8887 63.3326 68.4527Z" fill="black"/>
<path d="M96.8145 110.963V0.141113" stroke="#231F20" stroke-width="3" stroke-miterlimit="10"/>
<path d="M124.341 23.8286L115.771 33.0638L124.341 42.2284H119.112L113.156 35.8836V42.2284H109.234V23.8286H113.156V30.2439L119.112 23.8286H124.341Z" fill="black"/>
<path d="M128.481 27.565V23.8286H141.918V27.565C139.666 27.565 137.415 27.565 135.236 27.565C132.984 27.565 130.733 27.565 128.481 27.565ZM128.481 34.8967V31.1603C129.934 31.1603 131.314 31.1603 132.767 31.1603C134.219 31.1603 135.672 31.1603 137.052 31.1603V34.8967C135.599 34.8967 134.147 34.8967 132.767 34.8967C131.387 34.8967 129.934 34.8967 128.481 34.8967ZM141.918 42.2284H128.481V38.4921C130.733 38.4921 132.984 38.4921 135.163 38.4921C137.415 38.4921 139.666 38.4921 141.845 38.4921V42.2284H141.918Z" fill="black"/>
<path d="M161.818 23.8283L154.628 35.5309V42.1576H150.778V35.5309L143.588 23.7578H148.091L152.667 31.2305L157.315 23.7578H161.818V23.8283Z" fill="black"/>
<path d="M180.266 23.8286L171.696 33.0638L180.266 42.2284H175.037L169.081 35.8836V42.2284H165.159V23.8286H169.081V30.2439L175.037 23.8286H180.266Z" fill="black"/>
<path d="M200.021 42.2281H195.736L195.445 41.6641L191.596 33.6979L191.088 32.711L189.635 35.6719L187.819 39.4082L186.439 42.2281H182.154L191.088 23.7578L200.021 42.2281Z" fill="black"/>
<path d="M219.34 23.8286L210.625 42.2284L201.909 23.8286H206.122L210.552 33.2048L214.982 23.8286H219.34Z" fill="black"/>
<path d="M239.749 33.0638C239.749 34.3327 239.531 35.5312 239.023 36.6591C238.514 37.7871 237.86 38.7035 236.989 39.5495C236.117 40.3955 235.173 41.03 234.011 41.5234C232.849 42.0169 231.614 42.2284 230.307 42.2284C229 42.2284 227.765 42.0169 226.603 41.5234C225.441 41.03 224.424 40.3955 223.625 39.5495C222.754 38.7035 222.027 37.7166 221.592 36.6591C221.083 35.5312 220.865 34.3327 220.865 33.0638C220.865 31.7948 221.083 30.5964 221.592 29.4684C222.027 28.4109 222.754 27.424 223.625 26.5075C224.497 25.6615 225.514 25.0271 226.603 24.5336C227.765 24.0401 229 23.8286 230.307 23.8286C231.687 23.8286 232.922 24.0401 234.011 24.5336C235.173 25.0271 236.19 25.6615 236.989 26.5075C237.86 27.3535 238.514 28.3404 239.023 29.4684C239.458 30.5964 239.749 31.7948 239.749 33.0638ZM235.899 33.0638C235.899 32.6408 235.827 32.1473 235.682 31.5833C235.536 31.0898 235.318 30.5964 235.028 30.1029C234.737 29.6799 234.374 29.1864 233.866 28.8339C233.357 28.4814 232.776 28.1289 232.123 27.847C231.977 27.7765 231.832 27.7765 231.614 27.706C231.542 27.706 231.396 27.706 231.324 27.706C231.251 27.706 231.179 27.706 231.106 27.6355C231.033 27.6355 230.888 27.565 230.598 27.565C230.307 27.565 230.162 27.565 230.234 27.565C229.871 27.565 229.435 27.6355 229 27.706C228.564 27.7765 228.128 27.988 227.692 28.1994C227.257 28.4109 226.821 28.6929 226.458 29.0454C226.095 29.3979 225.731 29.7504 225.441 30.2439C225.078 30.8078 224.86 31.4423 224.787 31.9358C224.787 32.0063 224.715 32.1473 224.715 32.2178C224.715 32.2883 224.715 32.4293 224.715 32.4998C224.715 32.6408 224.642 32.8523 224.642 33.0638C224.642 33.8392 224.787 34.4737 225.078 35.1787C225.368 35.8131 225.804 36.4476 226.312 36.8706C226.821 37.3641 227.402 37.7871 228.128 38.0691C228.782 38.3511 229.508 38.4921 230.307 38.4921C231.033 38.4921 231.76 38.3511 232.486 38.0691C233.14 37.7871 233.721 37.4346 234.302 36.9411C234.81 36.4476 235.246 35.8837 235.536 35.2492C235.682 34.5442 235.899 33.8392 235.899 33.0638Z" fill="black"/>
<path d="M260.158 33.0638C260.158 34.3327 259.94 35.5312 259.432 36.6591C258.923 37.7871 258.27 38.7035 257.398 39.5495C256.527 40.3955 255.582 41.03 254.42 41.5234C253.258 42.0169 252.024 42.2284 250.716 42.2284C249.409 42.2284 248.174 42.0169 247.012 41.5234C245.85 41.03 244.833 40.3955 244.034 39.5495C243.163 38.7035 242.436 37.7166 242.001 36.6591C241.492 35.5312 241.274 34.3327 241.274 33.0638C241.274 31.7948 241.492 30.5964 242.001 29.4684C242.436 28.4109 243.163 27.424 244.034 26.5075C244.906 25.6615 245.923 25.0271 247.012 24.5336C248.174 24.0401 249.409 23.8286 250.716 23.8286C252.096 23.8286 253.331 24.0401 254.42 24.5336C255.582 25.0271 256.599 25.6615 257.398 26.5075C258.27 27.3535 258.923 28.3404 259.432 29.4684C259.94 30.5964 260.158 31.7948 260.158 33.0638ZM256.309 33.0638C256.309 32.6408 256.236 32.1473 256.091 31.5833C255.946 31.0898 255.728 30.5964 255.437 30.1029C255.147 29.6799 254.783 29.1864 254.275 28.8339C253.767 28.4814 253.186 28.1289 252.532 27.847C252.387 27.7765 252.241 27.7765 252.024 27.706C251.951 27.706 251.806 27.706 251.733 27.706C251.66 27.706 251.588 27.706 251.515 27.6355C251.443 27.6355 251.297 27.565 251.007 27.565C250.716 27.565 250.571 27.565 250.644 27.565C250.28 27.565 249.845 27.6355 249.409 27.706C248.973 27.7765 248.537 27.988 248.102 28.1994C247.666 28.4109 247.23 28.6929 246.867 29.0454C246.504 29.3979 246.141 29.7504 245.85 30.2439C245.487 30.8078 245.269 31.4423 245.196 31.9358C245.196 32.0063 245.124 32.1473 245.124 32.2178C245.124 32.2883 245.124 32.4293 245.124 32.4998C245.124 32.6408 245.051 32.8523 245.051 33.0638C245.051 33.8392 245.196 34.4737 245.487 35.1787C245.777 35.8131 246.213 36.4476 246.722 36.8706C247.23 37.3641 247.811 37.7871 248.537 38.0691C249.191 38.3511 249.917 38.4921 250.716 38.4921C251.442 38.4921 252.169 38.3511 252.895 38.0691C253.549 37.7871 254.13 37.4346 254.711 36.9411C255.219 36.4476 255.655 35.8837 255.946 35.2492C256.163 34.5442 256.309 33.8392 256.309 33.0638Z" fill="black"/>
<path d="M277.589 27.5648L274.32 29.1862C274.175 28.8337 273.957 28.6223 273.739 28.4108C273.521 28.1993 273.231 27.9878 272.94 27.8468C272.65 27.7058 272.359 27.6353 272.069 27.5648C271.778 27.4943 271.56 27.4943 271.27 27.4943C270.979 27.4943 270.689 27.4943 270.471 27.5648C270.253 27.5648 269.962 27.7058 269.745 27.7763C269.527 27.8468 269.381 28.0583 269.236 28.2698C269.091 28.4813 269.018 28.7632 269.018 29.1157C269.018 29.3977 269.091 29.6797 269.309 29.9617C269.454 30.3142 269.745 30.5257 270.18 30.7372C270.18 30.7372 270.253 30.8077 270.398 30.8782C270.471 30.9487 270.543 30.9487 270.616 30.9487C270.834 31.0897 271.197 31.3011 271.706 31.5126C272.069 31.7241 272.432 31.8651 272.795 32.0061C272.868 32.0766 273.013 32.1471 273.086 32.1471C273.231 32.2176 273.303 32.2176 273.376 32.2881C273.521 32.3586 273.739 32.4291 273.884 32.4996C274.03 32.5701 274.175 32.6406 274.393 32.7816C274.901 33.0636 275.337 33.4161 275.7 33.7685C276.063 34.121 276.281 34.544 276.499 34.8965C276.717 35.3195 276.79 35.672 276.935 36.095C277.007 36.5179 277.08 36.9409 277.08 37.2934C277.08 37.7869 277.007 38.2099 276.862 38.6329C276.717 39.1264 276.499 39.5493 276.281 39.9018C275.991 40.2543 275.628 40.6068 275.192 40.9593C274.756 41.3118 274.175 41.5938 273.521 41.8053C273.449 41.8053 273.376 41.8757 273.303 41.8757C273.231 41.8757 273.158 41.9462 273.013 41.9462C272.868 42.0167 272.65 42.0167 272.359 42.0872C272.214 42.0872 272.141 42.0872 271.996 42.1577C271.851 42.1577 271.778 42.1577 271.633 42.1577C271.342 42.1577 271.125 42.1577 271.052 42.1577C270.979 42.1577 270.979 42.1577 270.907 42.1577C270.761 42.1577 270.616 42.1577 270.543 42.1577C270.471 42.1577 270.398 42.1577 270.326 42.1577C270.253 42.1577 270.18 42.1577 270.108 42.1577C270.035 42.1577 269.962 42.1577 269.745 42.0872C269.309 42.0167 268.946 41.9462 268.51 41.8053C268.074 41.6643 267.638 41.5233 267.13 41.2413C266.622 40.9593 266.258 40.6773 265.895 40.3248C265.459 39.9723 265.096 39.5493 264.878 39.0558C264.806 38.9149 264.733 38.8444 264.733 38.7739C264.661 38.6329 264.588 38.4919 264.588 38.4919L267.784 36.9409H267.856C268.001 37.2229 268.219 37.5049 268.437 37.7164C268.655 37.9279 268.946 38.1394 269.164 38.2804C269.454 38.4214 269.745 38.4919 270.035 38.5624C270.326 38.6329 270.616 38.6329 270.834 38.6329C271.125 38.6329 271.415 38.6329 271.633 38.5624C271.923 38.5624 272.141 38.4214 272.359 38.3509C272.577 38.2804 272.722 38.0689 272.868 37.8574C273.013 37.6459 273.086 37.3639 273.086 37.0114C273.086 36.3065 272.577 35.672 271.56 35.1785C271.56 35.1785 271.488 35.1785 271.415 35.108C271.342 35.0375 271.27 35.0375 271.197 34.967C271.052 34.8965 270.834 34.7555 270.616 34.685C270.543 34.6145 270.398 34.544 270.326 34.544C270.18 34.4735 270.108 34.403 269.962 34.403C269.672 34.262 269.454 34.1915 269.381 34.121C269.309 34.121 269.236 34.0505 269.091 33.98C269.018 33.9095 268.873 33.9095 268.728 33.8391C268.655 33.7686 268.582 33.7686 268.51 33.6981C268.437 33.6276 268.365 33.6276 268.219 33.5571C268.147 33.4866 268.074 33.4866 267.929 33.4161C267.856 33.3456 267.784 33.3456 267.638 33.2751C267.13 32.9931 266.694 32.7111 266.331 32.3586C265.968 32.0061 265.677 31.5831 265.532 31.2307C265.314 30.8782 265.242 30.4552 265.096 30.0322C265.024 29.6092 264.951 29.1862 264.951 28.8337C264.951 28.8337 264.951 28.7632 264.951 28.6927C264.951 28.6222 264.951 28.5518 264.951 28.4108C264.951 28.2698 264.951 28.1993 264.951 28.0583C264.951 27.9173 264.951 27.8468 265.024 27.7763C265.024 27.7058 265.096 27.6353 265.096 27.5648C265.096 27.4943 265.096 27.4238 265.169 27.2828C265.169 27.2123 265.242 27.2123 265.242 27.1418C265.242 27.0713 265.314 27.0008 265.314 26.9303C265.387 26.7893 265.459 26.6483 265.532 26.5778C265.677 26.2958 265.895 26.0139 266.113 25.8024C266.331 25.5909 266.622 25.3089 266.912 25.1679C267.13 25.0269 267.42 24.8154 267.711 24.6039C268.001 24.4629 268.292 24.3219 268.51 24.2514C268.873 24.1104 269.309 24.0399 269.745 23.9694C270.18 23.8989 270.543 23.8989 270.979 23.8989C271.052 23.8989 271.052 23.8989 271.125 23.8989C271.125 23.8989 271.27 23.8989 271.488 23.8989C271.56 23.8989 271.633 23.8989 271.706 23.8989C271.778 23.8989 271.851 23.8989 271.923 23.8989C271.996 23.8989 272.141 23.8989 272.287 23.8989C272.65 23.9694 273.013 24.0399 273.594 24.1809C274.03 24.3219 274.465 24.5334 274.974 24.7449C275.482 25.0269 275.845 25.3089 276.209 25.6614C276.572 26.0138 276.935 26.4368 277.225 26.9303C277.225 26.9303 277.298 27.0713 277.371 27.2123C277.516 27.4238 277.589 27.4943 277.589 27.5648Z" fill="black"/>
<path d="M129.571 62.0379L116.28 77.5473H129.571V82.8346H109.162V77.6883L122.453 62.1789H109.162V56.8916H129.571V62.0379Z" fill="black"/>
<path d="M166.975 82.9051H160.947L160.511 82.1296L155.064 70.8501L154.41 69.4401L152.376 73.67L149.762 78.9573L147.801 82.9756H141.772L154.41 56.8916L166.975 82.9051Z" fill="black"/>
<path d="M204.234 82.9048H198.932V66.2674L191.669 76.9125L184.333 66.2674V82.8343H179.031V56.8208H184.261L191.596 67.4659L199.004 56.8208H204.234V82.9048Z" fill="black"/>
<path d="M241.783 82.9051H235.755L235.319 82.1296L229.872 70.8501L229.219 69.4401L227.185 73.67L224.57 78.9573L222.609 82.9756H216.581L229.219 56.8916L241.783 82.9051Z" fill="black"/>
<path d="M277.808 82.9051H272.36L260.522 66.2677V82.9051H255.002V56.8916H260.449L272.288 73.529V56.8916H277.808V82.9051Z" fill="black"/>
</svg>
